Roboto Serif Micro Cond-Super Italic G4.ufo
<glyph name="exclam" format="2">
  <advance width="422"/>
  <unicode hex="0021"/>
  <outline>
    <contour>
      <point x="473" y="762" type="line"/>
      <point x="424" y="564"/>
      <point x="335" y="477"/>
      <point x="288" y="274" type="curve"/>
      <point x="126" y="274" type="line"/>
      <point x="172" y="477"/>
      <point x="136" y="574"/>
      <point x="183" y="762" type="curve"/>
    </contour>
    <component base="period" xOffset="-32"/>
  </outline>
</glyph>
<glyph name="dollar" format="2">
  <advance width="560"/>
  <unicode hex="0024"/>
  <outline>
    <contour>
      <point x="236" y="12" type="curve" smooth="yes"/>
      <point x="404" y="12"/>
      <point x="521" y="93"/>
      <point x="521" y="250" type="curve" smooth="yes"/>
      <point x="521" y="357"/>
      <point x="451" y="406"/>
      <point x="327" y="456" type="curve" smooth="yes"/>
      <point x="263" y="482"/>
      <point x="212" y="510"/>
      <point x="212" y="550" type="curve" smooth="yes"/>
      <point x="212" y="586"/>
      <point x="244" y="606"/>
      <point x="335" y="606" type="curve" smooth="yes"/>
      <point x="422" y="606"/>
      <point x="466" y="583"/>
      <point x="489" y="561" type="curve"/>
      <point x="481" y="598"/>
      <point x="480" y="614"/>
      <point x="446" y="624" type="curve"/>
      <point x="420" y="520" type="line"/>
      <point x="548" y="520" type="line"/>
      <point x="578" y="640" type="line"/>
      <point x="542" y="667"/>
      <point x="446" y="698"/>
      <point x="332" y="698" type="curve" smooth="yes"/>
      <point x="151" y="698"/>
      <point x="66" y="601"/>
      <point x="66" y="478" type="curve" smooth="yes"/>
      <point x="66" y="365"/>
      <point x="133" y="327"/>
      <point x="233" y="284" type="curve" smooth="yes"/>
      <point x="317" y="247"/>
      <point x="373" y="227"/>
      <point x="373" y="177" type="curve" smooth="yes"/>
      <point x="373" y="131"/>
      <point x="338" y="103"/>
      <point x="243" y="103" type="curve" smooth="yes"/>
      <point x="142" y="103"/>
      <point x="84" y="136"/>
      <point x="63" y="159" type="curve"/>
      <point x="53" y="142"/>
      <point x="79" y="92"/>
      <point x="114" y="92" type="curve"/>
      <point x="145" y="216" type="line"/>
      <point x="5" y="216" type="line"/>
      <point x="-28" y="80" type="line"/>
      <point x="20" y="54"/>
      <point x="95" y="12"/>
    </contour>
    <contour>
      <point x="91" y="-120" type="line"/>
      <point x="238" y="-120" type="line"/>
      <point x="282" y="59" type="line"/>
      <point x="251" y="81" type="line"/>
      <point x="388" y="633" type="line"/>
      <point x="431" y="654" type="line"/>
      <point x="464" y="790" type="line"/>
      <point x="317" y="790" type="line"/>
      <point x="282" y="646" type="line"/>
      <point x="314" y="627" type="line"/>
      <point x="177" y="79" type="line"/>
      <point x="135" y="60" type="line"/>
    </contour>
  </outline>
</glyph>
<glyph name="ampersand" format="2">
  <advance width="746"/>
  <unicode hex="0026"/>
  <outline>
    <contour>
      <point x="668" y="0" type="line"/>
      <point x="697" y="125" type="line"/>
      <point x="689" y="125" type="line" smooth="yes"/>
      <point x="663" y="125"/>
      <point x="639" y="138"/>
      <point x="609" y="172" type="curve" smooth="yes"/>
      <point x="453" y="360"/>
      <point x="395" y="477"/>
      <point x="395" y="550" type="curve" smooth="yes"/>
      <point x="395" y="575"/>
      <point x="400" y="612"/>
      <point x="446" y="612" type="curve"/>
      <point x="482" y="612"/>
      <point x="489" y="589"/>
      <point x="489" y="558" type="curve"/>
      <point x="489" y="496"/>
      <point x="453" y="462"/>
      <point x="351" y="436" type="curve"/>
      <point x="352" y="375" type="line"/>
      <point x="551" y="414"/>
      <point x="664" y="474"/>
      <point x="664" y="584" type="curve"/>
      <point x="664" y="660"/>
      <point x="619" y="718"/>
      <point x="445" y="718" type="curve" smooth="yes"/>
      <point x="276" y="718"/>
      <point x="201" y="642"/>
      <point x="201" y="516" type="curve" smooth="yes"/>
      <point x="201" y="372"/>
      <point x="301" y="199"/>
      <point x="464" y="0" type="curve"/>
    </contour>
    <contour>
      <point x="325" y="104" type="curve" smooth="yes"/>
      <point x="242" y="104"/>
      <point x="218" y="141"/>
      <point x="218" y="207" type="curve" smooth="yes"/>
      <point x="218" y="291"/>
      <point x="243" y="323"/>
      <point x="301" y="335" type="curve"/>
      <point x="292" y="417" type="line"/>
      <point x="101" y="400"/>
      <point x="1" y="348"/>
      <point x="1" y="182" type="curve" smooth="yes"/>
      <point x="1" y="56"/>
      <point x="73" y="-10"/>
      <point x="234" y="-10" type="curve" smooth="yes"/>
      <point x="505" y="-10"/>
      <point x="605" y="126"/>
      <point x="685" y="270" type="curve" smooth="yes"/>
      <point x="698" y="293"/>
      <point x="706" y="303"/>
      <point x="728" y="303" type="curve" smooth="yes"/>
      <point x="736" y="303" type="line"/>
      <point x="766" y="428" type="line"/>
      <point x="575" y="428" type="line"/>
      <point x="545" y="303" type="line"/>
      <point x="551" y="303" type="line" smooth="yes"/>
      <point x="576" y="303"/>
      <point x="583" y="297"/>
      <point x="583" y="291" type="curve"/>
      <point x="552" y="212"/>
      <point x="445" y="104"/>
    </contour>
  </outline>
</glyph>
<glyph name="asterisk" format="2">
  <advance width="581"/>
  <unicode hex="002A"/>
  <outline>
    <contour>
      <point x="88" y="629" type="curve"/>
      <point x="186" y="745" type="line"/>
      <point x="252" y="693"/>
      <point x="249" y="654"/>
      <point x="312" y="600" type="curve"/>
      <point x="263" y="542" type="line"/>
      <point x="193" y="591"/>
      <point x="153" y="579"/>
    </contour>
    <contour>
      <point x="108" y="393" type="curve"/>
      <point x="64" y="522" type="line"/>
      <point x="145" y="555"/>
      <point x="187" y="535"/>
      <point x="271" y="569" type="curve"/>
      <point x="293" y="503" type="line"/>
      <point x="210" y="465"/>
      <point x="189" y="426"/>
    </contour>
    <contour>
      <point x="330" y="305" type="curve"/>
      <point x="185" y="305" type="line"/>
      <point x="207" y="408"/>
      <point x="248" y="432"/>
      <point x="272" y="520" type="curve"/>
      <point x="347" y="513" type="line"/>
      <point x="328" y="423"/>
      <point x="352" y="390"/>
    </contour>
    <contour>
      <point x="306" y="794" type="curve"/>
      <point x="450" y="794" type="line"/>
      <point x="428" y="689"/>
      <point x="387" y="667"/>
      <point x="362" y="579" type="curve"/>
      <point x="288" y="587" type="line"/>
      <point x="308" y="676"/>
      <point x="283" y="707"/>
    </contour>
    <contour>
      <point x="453" y="354" type="line"/>
      <point x="387" y="403"/>
      <point x="383" y="447"/>
      <point x="322" y="503" type="curve"/>
      <point x="369" y="560" type="line"/>
      <point x="440" y="510"/>
      <point x="483" y="520"/>
      <point x="548" y="470" type="curve"/>
    </contour>
    <contour>
      <point x="576" y="580" type="line"/>
      <point x="492" y="548"/>
      <point x="447" y="563"/>
      <point x="363" y="529" type="curve"/>
      <point x="342" y="595" type="line"/>
      <point x="426" y="634"/>
      <point x="447" y="673"/>
      <point x="530" y="707" type="curve"/>
    </contour>
  </outline>
</glyph>
<glyph name="zero" format="2">
  <advance width="560"/>
  <unicode hex="0030"/>
  <outline>
    <contour>
      <point x="220" y="-11" type="curve"/>
      <point x="472" y="-11"/>
      <point x="550" y="280"/>
      <point x="550" y="466" type="curve" smooth="yes"/>
      <point x="550" y="610"/>
      <point x="465" y="690"/>
      <point x="343" y="690" type="curve"/>
      <point x="91" y="690"/>
      <point x="13" y="397"/>
      <point x="13" y="210" type="curve" smooth="yes"/>
      <point x="13" y="68"/>
      <point x="99" y="-11"/>
    </contour>
    <contour>
      <point x="232" y="105" type="curve" smooth="yes"/>
      <point x="203" y="105"/>
      <point x="189" y="122"/>
      <point x="189" y="159" type="curve" smooth="yes"/>
      <point x="189" y="188"/>
      <point x="191" y="232"/>
      <point x="223" y="364" type="curve" smooth="yes"/>
      <point x="265" y="539"/>
      <point x="298" y="573"/>
      <point x="335" y="573" type="curve" smooth="yes"/>
      <point x="362" y="573"/>
      <point x="374" y="559"/>
      <point x="374" y="518" type="curve" smooth="yes"/>
      <point x="374" y="479"/>
      <point x="370" y="441"/>
      <point x="339" y="315" type="curve" smooth="yes"/>
      <point x="296" y="142"/>
      <point x="267" y="105"/>
    </contour>
  </outline>
</glyph>
<glyph name="one" format="2">
  <advance width="560"/>
  <unicode hex="0031"/>
  <outline>
    <contour>
      <point x="375" y="159" type="curve" smooth="yes"/>
      <point x="508" y="679" type="line"/>
      <point x="326" y="679" type="line"/>
      <point x="279" y="630"/>
      <point x="230" y="599"/>
      <point x="111" y="598" type="curve"/>
      <point x="76" y="443" type="line"/>
      <point x="176" y="442"/>
      <point x="239" y="477"/>
      <point x="288" y="581" type="curve"/>
      <point x="278" y="599" type="line"/>
      <point x="165" y="159" type="line" smooth="yes"/>
      <point x="155" y="120"/>
      <point x="109" y="113"/>
      <point x="47" y="113" type="curve" smooth="yes"/>
      <point x="10" y="113" type="line"/>
      <point x="-15" y="0" type="line"/>
      <point x="462" y="0" type="line"/>
      <point x="487" y="113" type="line"/>
      <point x="465" y="113" type="line" smooth="yes"/>
      <point x="404" y="113"/>
      <point x="365" y="120"/>
    </contour>
  </outline>
</glyph>
<glyph name="three" format="2">
  <advance width="560"/>
  <unicode hex="0033"/>
  <outline>
    <contour>
      <point x="201" y="-58" type="curve" smooth="yes" identifier="ohn7sd9cH8"/>
      <point x="65" y="-58" identifier="DMj1xmIUuy"/>
      <point x="2" y="21" identifier="6QLyJqhuny"/>
      <point x="-30" y="109" type="curve" identifier="uR3be4UGfp"/>
      <point x="86" y="154" type="line" identifier="le9OjM9Htv"/>
      <point x="108" y="109" identifier="KY9DqoArdr"/>
      <point x="128" y="68" identifier="FyLXnofNg4"/>
      <point x="203" y="68" type="curve" smooth="yes" identifier="bgUM8BwQtG"/>
      <point x="277" y="68" identifier="rSjzCDd1wE"/>
      <point x="304" y="118" identifier="aLpgyv3Ht9"/>
      <point x="304" y="187" type="curve" smooth="yes" identifier="QwhePGo7TC"/>
      <point x="304" y="233" identifier="QLkMAJgdaY"/>
      <point x="287" y="264" identifier="SZOkYM0ikG"/>
      <point x="223" y="264" type="curve" smooth="yes" identifier="hDvHwkU5li"/>
      <point x="113" y="264" type="line" identifier="qgt09iH6Fx"/>
      <point x="143" y="393" type="line" identifier="Ff5VREDK7I"/>
      <point x="253" y="393" type="line" smooth="yes" identifier="0Uudh5nS5C"/>
      <point x="315" y="393" identifier="k0E2VdVna7"/>
      <point x="367" y="425" identifier="u24RtgEtaL"/>
      <point x="367" y="508" type="curve" smooth="yes" identifier="bWwqqD5hsv"/>
      <point x="367" y="562" identifier="7z5z9AHSsi"/>
      <point x="346" y="575" identifier="yE2U3G21gP"/>
      <point x="287" y="575" type="curve" smooth="yes" identifier="bzPPZ7PBW1"/>
      <point x="251" y="575" identifier="QhSbxSCHQV"/>
      <point x="223" y="565" identifier="VJK9MkYq25"/>
      <point x="201" y="548" type="curve" identifier="nQRwQl70Bx"/>
      <point x="203" y="569" identifier="xogK6N6L3f"/>
      <point x="224" y="615" identifier="Q7kvkjN5LO"/>
      <point x="255" y="619" type="curve" identifier="tTKedNT7cQ"/>
      <point x="225" y="497" type="line" identifier="l8AXsxdkxr"/>
      <point x="81" y="497" type="line" identifier="xbb6ADrjT3"/>
      <point x="120" y="659" type="line" identifier="Bt97JxBkTk"/>
      <point x="164" y="675" identifier="Fml6VonJQP"/>
      <point x="229" y="693" identifier="P1XYO5o5z4"/>
      <point x="319" y="693" type="curve" smooth="yes" identifier="9WdUanxhUa"/>
      <point x="474" y="693" identifier="RH91uiXkG8"/>
      <point x="553" y="640" identifier="IOeobe92FY"/>
      <point x="553" y="530" type="curve" smooth="yes" identifier="0k51CkIYO5"/>
      <point x="553" y="397" identifier="QHxnkLKCNW"/>
      <point x="463" y="336" identifier="dDZ4EpD1XA"/>
      <point x="299" y="330" type="curve" identifier="7hxNfcyLKg"/>
      <point x="331" y="353" type="line" identifier="aVHNBJKyLI"/>
      <point x="320" y="304" type="line" identifier="ut7VbNDCl1"/>
      <point x="298" y="328" type="line" identifier="rbI0jUdvUg"/>
      <point x="433" y="314" identifier="RYzdq8JJUc"/>
      <point x="497" y="260" identifier="zH5kZaRouM"/>
      <point x="497" y="160" type="curve" smooth="yes" identifier="2i3BLbRS7a"/>
      <point x="497" y="23" identifier="xEV3ZbFLMl"/>
      <point x="405" y="-58" identifier="1BzhfTcIJq"/>
    </contour>
  </outline>
</glyph>
<glyph name="nine" format="2">
  <advance width="560"/>
  <unicode hex="0039"/>
  <outline>
    <contour>
      <point x="325" y="693" type="curve" smooth="yes"/>
      <point x="475" y="693"/>
      <point x="544" y="600"/>
      <point x="544" y="470" type="curve" smooth="yes"/>
      <point x="544" y="201"/>
      <point x="424" y="-78"/>
      <point x="-37" y="-85" type="curve"/>
      <point x="-26" y="37" type="line"/>
      <point x="186" y="52"/>
      <point x="280" y="77"/>
      <point x="342" y="343" type="curve" smooth="yes"/>
      <point x="365" y="440"/>
      <point x="370" y="509"/>
      <point x="370" y="528" type="curve" smooth="yes"/>
      <point x="370" y="561"/>
      <point x="350" y="575"/>
      <point x="319" y="575" type="curve" smooth="yes"/>
      <point x="280" y="575"/>
      <point x="261" y="550"/>
      <point x="239" y="471" type="curve" smooth="yes"/>
      <point x="226" y="419"/>
      <point x="224" y="396"/>
      <point x="224" y="377" type="curve" smooth="yes"/>
      <point x="224" y="355"/>
      <point x="238" y="338"/>
      <point x="258" y="338" type="curve" smooth="yes"/>
      <point x="293" y="338"/>
      <point x="322" y="356"/>
      <point x="361" y="401" type="curve"/>
      <point x="372" y="363" type="line"/>
      <point x="321" y="287"/>
      <point x="262" y="219"/>
      <point x="164" y="219" type="curve" smooth="yes"/>
      <point x="84" y="219"/>
      <point x="33" y="272"/>
      <point x="33" y="379" type="curve" smooth="yes"/>
      <point x="33" y="523"/>
      <point x="109" y="693"/>
    </contour>
  </outline>
</glyph>
<glyph name="less" format="2">
  <advance width="560"/>
  <unicode hex="003C"/>
  <outline>
    <contour>
      <point x="408" y="62" type="line"/>
      <point x="63" y="265" type="line"/>
      <point x="98" y="409" type="line"/>
      <point x="545" y="614" type="line"/>
      <point x="506" y="440" type="line"/>
      <point x="318" y="362" type="line"/>
      <point x="308" y="301" type="line"/>
      <point x="447" y="220" type="line"/>
    </contour>
  </outline>
</glyph>
<glyph name="question" format="2">
  <advance width="599"/>
  <unicode hex="003F"/>
  <outline>
    <contour>
      <point x="193" y="434" type="curve"/>
      <point x="152" y="271" type="line"/>
      <point x="353" y="271" type="line"/>
      <point x="382" y="387" type="line"/>
      <point x="517" y="390"/>
      <point x="615" y="449"/>
      <point x="615" y="610" type="curve" smooth="yes"/>
      <point x="615" y="710"/>
      <point x="534" y="762"/>
      <point x="361" y="762" type="curve" smooth="yes"/>
      <point x="258" y="762"/>
      <point x="168" y="728"/>
      <point x="136" y="714" type="curve"/>
      <point x="94" y="546" type="line"/>
      <point x="269" y="546" type="line"/>
      <point x="306" y="691" type="line"/>
      <point x="268" y="688"/>
      <point x="259" y="617"/>
      <point x="256" y="603" type="curve"/>
      <point x="268" y="613"/>
      <point x="300" y="636"/>
      <point x="336" y="636" type="curve" smooth="yes"/>
      <point x="372" y="636"/>
      <point x="392" y="622"/>
      <point x="390" y="588" type="curve" smooth="yes"/>
      <point x="387" y="526"/>
      <point x="350" y="438"/>
    </contour>
    <component base="period" xOffset="20" yOffset="-1"/>
  </outline>
</glyph>
<glyph name="B" format="2">
  <advance width="699"/>
  <unicode hex="0042"/>
  <outline>
    <contour>
      <point x="344" y="311" type="line"/>
      <point x="381" y="311"/>
      <point x="407" y="290"/>
      <point x="407" y="243" type="curve"/>
      <point x="407" y="161"/>
      <point x="350" y="124"/>
      <point x="292" y="124" type="curve" smooth="yes"/>
      <point x="252" y="124" type="line"/>
      <point x="303" y="311" type="line"/>
    </contour>
    <contour>
      <point x="389" y="586" type="line" smooth="yes"/>
      <point x="440" y="586"/>
      <point x="465" y="564"/>
      <point x="465" y="520" type="curve" smooth="yes"/>
      <point x="465" y="456"/>
      <point x="420" y="431"/>
      <point x="375" y="431" type="curve" smooth="yes"/>
      <point x="329" y="431" type="line"/>
      <point x="373" y="586" type="line"/>
    </contour>
    <contour>
      <point x="435" y="364" type="line"/>
      <point x="598" y="376"/>
      <point x="688" y="433"/>
      <point x="688" y="554" type="curve" smooth="yes"/>
      <point x="688" y="654"/>
      <point x="616" y="710"/>
      <point x="448" y="710" type="curve" smooth="yes"/>
      <point x="130" y="710" type="line"/>
      <point x="101" y="585" type="line"/>
      <point x="111" y="585" type="line" smooth="yes"/>
      <point x="136" y="585"/>
      <point x="141" y="576"/>
      <point x="134" y="549" type="curve" smooth="yes"/>
      <point x="33" y="161" type="line" smooth="yes"/>
      <point x="26" y="131"/>
      <point x="11" y="125"/>
      <point x="-9" y="125" type="curve" smooth="yes"/>
      <point x="-18" y="125" type="line"/>
      <point x="-48" y="0" type="line"/>
      <point x="348" y="0" type="line" smooth="yes"/>
      <point x="547" y="0"/>
      <point x="635" y="75"/>
      <point x="635" y="210" type="curve"/>
      <point x="635" y="306"/>
      <point x="567" y="350"/>
      <point x="438" y="355" type="curve"/>
      <point x="457" y="312" type="line"/>
      <point x="479" y="384" type="line"/>
    </contour>
  </outline>
</glyph>
<glyph name="C" format="2">
  <advance width="659"/>
  <unicode hex="0043"/>
  <outline>
    <contour>
      <point x="355" y="105" type="curve" smooth="yes"/>
      <point x="307" y="105"/>
      <point x="271" y="140"/>
      <point x="271" y="257" type="curve" smooth="yes"/>
      <point x="271" y="402"/>
      <point x="323" y="605"/>
      <point x="424" y="605" type="curve" smooth="yes"/>
      <point x="485" y="605"/>
      <point x="499" y="556"/>
      <point x="503" y="461" type="curve"/>
      <point x="644" y="461" type="line"/>
      <point x="709" y="720" type="line"/>
      <point x="600" y="720" type="line"/>
      <point x="524" y="533" type="line"/>
      <point x="580" y="529" type="line"/>
      <point x="579" y="659"/>
      <point x="538" y="735"/>
      <point x="409" y="735" type="curve" smooth="yes"/>
      <point x="176" y="735"/>
      <point x="34" y="505"/>
      <point x="34" y="262" type="curve" smooth="yes"/>
      <point x="34" y="67"/>
      <point x="132" y="-25"/>
      <point x="306" y="-25" type="curve" smooth="yes"/>
      <point x="463" y="-25"/>
      <point x="540" y="60"/>
      <point x="606" y="203" type="curve"/>
      <point x="498" y="256" type="line"/>
      <point x="449" y="164"/>
      <point x="411" y="105"/>
    </contour>
  </outline>
</glyph>
<glyph name="G" format="2">
  <advance width="721"/>
  <unicode hex="0047"/>
  <outline>
    <contour>
      <point x="267" y="210" type="curve" smooth="yes"/>
      <point x="267" y="122"/>
      <point x="301" y="105"/>
      <point x="334" y="105" type="curve" smooth="yes"/>
      <point x="355" y="105"/>
      <point x="375" y="117"/>
      <point x="386" y="132" type="curve"/>
      <point x="404" y="190" type="line" smooth="yes"/>
      <point x="413" y="219"/>
      <point x="399" y="228"/>
      <point x="374" y="228" type="curve" smooth="yes"/>
      <point x="352" y="228" type="line"/>
      <point x="382" y="353" type="line"/>
      <point x="694" y="353" type="line"/>
      <point x="665" y="228" type="line"/>
      <point x="649" y="228" type="line" smooth="yes"/>
      <point x="628" y="228"/>
      <point x="622" y="221"/>
      <point x="612" y="188" type="curve" smooth="yes"/>
      <point x="574" y="61" type="line"/>
      <point x="523" y="24"/>
      <point x="427" y="-25"/>
      <point x="319" y="-25" type="curve" smooth="yes"/>
      <point x="135" y="-25"/>
      <point x="34" y="90"/>
      <point x="34" y="253" type="curve" smooth="yes"/>
      <point x="34" y="519"/>
      <point x="191" y="735"/>
      <point x="417" y="735" type="curve" smooth="yes"/>
      <point x="557" y="735"/>
      <point x="592" y="650"/>
      <point x="592" y="532" type="curve"/>
      <point x="545" y="557" type="line"/>
      <point x="611" y="720" type="line"/>
      <point x="721" y="720" type="line"/>
      <point x="658" y="481" type="line"/>
      <point x="515" y="481" type="line"/>
      <point x="499" y="549"/>
      <point x="489" y="605"/>
      <point x="433" y="605" type="curve" smooth="yes"/>
      <point x="333" y="605"/>
      <point x="267" y="367"/>
    </contour>
  </outline>
</glyph>
<glyph name="H" format="2">
  <advance width="712"/>
  <unicode hex="0048"/>
  <outline>
    <contour>
      <point x="191" y="427" type="line"/>
      <point x="170" y="303" type="line"/>
      <point x="520" y="303" type="line"/>
      <point x="541" y="427" type="line"/>
    </contour>
    <contour>
      <point x="-48" y="0" type="line"/>
      <point x="256" y="0" type="line"/>
      <point x="285" y="125" type="line"/>
      <point x="278" y="125" type="line" smooth="yes"/>
      <point x="264" y="125"/>
      <point x="251" y="128"/>
      <point x="253" y="135" type="curve" smooth="yes"/>
      <point x="369" y="575" type="line" smooth="yes"/>
      <point x="371" y="582"/>
      <point x="385" y="585"/>
      <point x="399" y="585" type="curve" smooth="yes"/>
      <point x="405" y="585" type="line"/>
      <point x="434" y="710" type="line"/>
      <point x="130" y="710" type="line"/>
      <point x="101" y="585" type="line"/>
      <point x="111" y="585" type="line" smooth="yes"/>
      <point x="135" y="585"/>
      <point x="142" y="580"/>
      <point x="134" y="549" type="curve" smooth="yes"/>
      <point x="32" y="161" type="line" smooth="yes"/>
      <point x="25" y="131"/>
      <point x="10" y="125"/>
      <point x="-10" y="125" type="curve" smooth="yes"/>
      <point x="-19" y="125" type="line"/>
    </contour>
    <contour>
      <point x="302" y="0" type="line"/>
      <point x="606" y="0" type="line"/>
      <point x="635" y="125" type="line"/>
      <point x="628" y="125" type="line" smooth="yes"/>
      <point x="614" y="125"/>
      <point x="601" y="128"/>
      <point x="603" y="135" type="curve" smooth="yes"/>
      <point x="719" y="575" type="line" smooth="yes"/>
      <point x="721" y="582"/>
      <point x="735" y="585"/>
      <point x="749" y="585" type="curve" smooth="yes"/>
      <point x="755" y="585" type="line"/>
      <point x="784" y="710" type="line"/>
      <point x="480" y="710" type="line"/>
      <point x="451" y="585" type="line"/>
      <point x="461" y="585" type="line" smooth="yes"/>
      <point x="485" y="585"/>
      <point x="492" y="580"/>
      <point x="484" y="549" type="curve" smooth="yes"/>
      <point x="382" y="161" type="line" smooth="yes"/>
      <point x="375" y="131"/>
      <point x="360" y="125"/>
      <point x="340" y="125" type="curve" smooth="yes"/>
      <point x="331" y="125" type="line"/>
    </contour>
  </outline>
</glyph>
<glyph name="I" format="2">
  <advance width="382"/>
  <unicode hex="0049"/>
  <outline>
    <contour>
      <point x="37" y="161" type="line" smooth="yes"/>
      <point x="29" y="132"/>
      <point x="10" y="125"/>
      <point x="-10" y="125" type="curve" smooth="yes"/>
      <point x="-22" y="125" type="line"/>
      <point x="-51" y="0" type="line"/>
      <point x="277" y="0" type="line"/>
      <point x="306" y="125" type="line"/>
      <point x="292" y="125" type="line" smooth="yes"/>
      <point x="269" y="125"/>
      <point x="257" y="130"/>
      <point x="265" y="161" type="curve" smooth="yes"/>
      <point x="367" y="549" type="line" smooth="yes"/>
      <point x="375" y="578"/>
      <point x="394" y="585"/>
      <point x="412" y="585" type="curve" smooth="yes"/>
      <point x="426" y="585" type="line"/>
      <point x="455" y="710" type="line"/>
      <point x="127" y="710" type="line"/>
      <point x="98" y="585" type="line"/>
      <point x="114" y="585" type="line" smooth="yes"/>
      <point x="136" y="585"/>
      <point x="147" y="578"/>
      <point x="139" y="549" type="curve" smooth="yes"/>
    </contour>
  </outline>
</glyph>
<glyph name="J" format="2">
  <advance width="613"/>
  <unicode hex="004A"/>
  <outline>
    <contour>
      <point x="372" y="549" type="curve" smooth="yes"/>
      <point x="287" y="216" type="line" smooth="yes"/>
      <point x="268" y="140"/>
      <point x="255" y="103"/>
      <point x="211" y="103" type="curve" smooth="yes"/>
      <point x="188" y="103"/>
      <point x="161" y="123"/>
      <point x="154" y="147" type="curve"/>
      <point x="85" y="144"/>
      <point x="122" y="66"/>
      <point x="158" y="48" type="curve"/>
      <point x="210" y="259" type="line"/>
      <point x="18" y="259" type="line"/>
      <point x="-31" y="58" type="line"/>
      <point x="20" y="15"/>
      <point x="105" y="-25"/>
      <point x="228" y="-25" type="curve"/>
      <point x="375" y="-25"/>
      <point x="472" y="41"/>
      <point x="512" y="201" type="curve" smooth="yes"/>
      <point x="600" y="549" type="line" smooth="yes"/>
      <point x="607" y="578"/>
      <point x="626" y="585"/>
      <point x="646" y="585" type="curve" smooth="yes"/>
      <point x="659" y="585" type="line"/>
      <point x="689" y="710" type="line"/>
      <point x="342" y="710" type="line"/>
      <point x="312" y="585" type="line"/>
      <point x="338" y="585" type="line" smooth="yes"/>
      <point x="367" y="585"/>
      <point x="379" y="578"/>
    </contour>
  </outline>
</glyph>
<glyph name="K" format="2">
  <advance width="746"/>
  <unicode hex="004B"/>
  <outline>
    <contour>
      <point x="-48" y="0" type="line"/>
      <point x="251" y="0" type="line"/>
      <point x="280" y="125" type="line"/>
      <point x="273" y="125" type="line" smooth="yes"/>
      <point x="263" y="125"/>
      <point x="251" y="128"/>
      <point x="253" y="135" type="curve" smooth="yes"/>
      <point x="369" y="575" type="line" smooth="yes"/>
      <point x="371" y="582"/>
      <point x="380" y="585"/>
      <point x="407" y="585" type="curve" smooth="yes"/>
      <point x="416" y="585" type="line"/>
      <point x="445" y="710" type="line"/>
      <point x="130" y="710" type="line"/>
      <point x="101" y="585" type="line"/>
      <point x="111" y="585" type="line" smooth="yes"/>
      <point x="135" y="585"/>
      <point x="142" y="580"/>
      <point x="134" y="549" type="curve" smooth="yes"/>
      <point x="32" y="161" type="line" smooth="yes"/>
      <point x="24" y="131"/>
      <point x="10" y="125"/>
      <point x="-10" y="125" type="curve" smooth="yes"/>
      <point x="-19" y="125" type="line"/>
    </contour>
    <contour>
      <point x="330" y="0" type="line"/>
      <point x="647" y="0" type="line"/>
      <point x="676" y="125" type="line"/>
      <point x="665" y="125" type="line" smooth="yes"/>
      <point x="643" y="125"/>
      <point x="635" y="136"/>
      <point x="629" y="156" type="curve" smooth="yes"/>
      <point x="533" y="460" type="line"/>
      <point x="422" y="286" type="line"/>
      <point x="703" y="571" type="line" smooth="yes"/>
      <point x="715" y="583"/>
      <point x="729" y="585"/>
      <point x="736" y="585" type="curve"/>
      <point x="739" y="585" type="line"/>
      <point x="768" y="710" type="line"/>
      <point x="520" y="710" type="line"/>
      <point x="491" y="585" type="line"/>
      <point x="506" y="585" type="line" smooth="yes"/>
      <point x="531" y="585"/>
      <point x="533" y="581"/>
      <point x="532" y="574" type="curve"/>
      <point x="329" y="372" type="line"/>
      <point x="324" y="348" type="line"/>
      <point x="384" y="135" type="line"/>
      <point x="382" y="128"/>
      <point x="376" y="125"/>
      <point x="362" y="125" type="curve" smooth="yes"/>
      <point x="359" y="125" type="line"/>
    </contour>
  </outline>
</glyph>
<glyph name="N" format="2">
  <advance width="668"/>
  <unicode hex="004E"/>
  <outline>
    <contour>
      <point x="-48" y="0" type="line"/>
      <point x="124" y="0" type="line"/>
      <point x="153" y="125" type="line"/>
      <point x="149" y="125" type="line" smooth="yes"/>
      <point x="142" y="125"/>
      <point x="139" y="128"/>
      <point x="141" y="135" type="curve" smooth="yes"/>
      <point x="279" y="650" type="line"/>
      <point x="250" y="610" type="line"/>
      <point x="287" y="0" type="line"/>
      <point x="542" y="0" type="line"/>
      <point x="684" y="553" type="line" smooth="yes"/>
      <point x="691" y="582"/>
      <point x="695" y="585"/>
      <point x="704" y="585" type="curve" smooth="yes"/>
      <point x="711" y="585" type="line"/>
      <point x="740" y="710" type="line"/>
      <point x="569" y="710" type="line"/>
      <point x="540" y="585" type="line"/>
      <point x="547" y="585" type="line" smooth="yes"/>
      <point x="558" y="585"/>
      <point x="560" y="582"/>
      <point x="558" y="575" type="curve" smooth="yes"/>
      <point x="450" y="177" type="line"/>
      <point x="473" y="189" type="line"/>
      <point x="437" y="710" type="line"/>
      <point x="130" y="710" type="line"/>
      <point x="101" y="585" type="line"/>
      <point x="111" y="585" type="line" smooth="yes"/>
      <point x="119" y="585"/>
      <point x="124" y="577"/>
      <point x="117" y="549" type="curve" smooth="yes"/>
      <point x="15" y="161" type="line" smooth="yes"/>
      <point x="7" y="132"/>
      <point x="-4" y="125"/>
      <point x="-10" y="125" type="curve" smooth="yes"/>
      <point x="-19" y="125" type="line"/>
    </contour>
  </outline>
</glyph>
<glyph name="T" format="2">
  <advance width="684"/>
  <unicode hex="0054"/>
  <outline>
    <contour>
      <point x="189" y="161" type="line" smooth="yes"/>
      <point x="182" y="132"/>
      <point x="163" y="125"/>
      <point x="142" y="125" type="curve" smooth="yes"/>
      <point x="128" y="125" type="line"/>
      <point x="99" y="0" type="line"/>
      <point x="431" y="0" type="line"/>
      <point x="460" y="125" type="line"/>
      <point x="444" y="125" type="line" smooth="yes"/>
      <point x="425" y="125"/>
      <point x="410" y="131"/>
      <point x="417" y="161" type="curve" smooth="yes"/>
      <point x="528" y="584" type="line"/>
      <point x="533" y="584" type="line" smooth="yes"/>
      <point x="576" y="584"/>
      <point x="586" y="567"/>
      <point x="579" y="531" type="curve" smooth="yes"/>
      <point x="558" y="427" type="line"/>
      <point x="687" y="427" type="line"/>
      <point x="758" y="710" type="line"/>
      <point x="125" y="710" type="line"/>
      <point x="54" y="427" type="line"/>
      <point x="183" y="427" type="line"/>
      <point x="223" y="531" type="line" smooth="yes"/>
      <point x="237" y="568"/>
      <point x="256" y="584"/>
      <point x="296" y="584" type="curve" smooth="yes"/>
      <point x="300" y="584" type="line"/>
    </contour>
  </outline>
</glyph>
<glyph name="V" format="2">
  <advance width="637"/>
  <unicode hex="0056"/>
  <outline>
    <contour>
      <point x="303" y="128" type="line"/>
      <point x="366" y="571" type="line" smooth="yes"/>
      <point x="368" y="582"/>
      <point x="375" y="585"/>
      <point x="399" y="585" type="curve" smooth="yes"/>
      <point x="407" y="585" type="line"/>
      <point x="436" y="710" type="line"/>
      <point x="116" y="710" type="line"/>
      <point x="87" y="585" type="line"/>
      <point x="91" y="585" type="line" smooth="yes"/>
      <point x="113" y="585"/>
      <point x="138" y="572"/>
      <point x="135" y="521" type="curve" smooth="yes"/>
      <point x="103" y="-4" type="line"/>
      <point x="371" y="-4" type="line"/>
      <point x="625" y="521" type="line" smooth="yes"/>
      <point x="650" y="572"/>
      <point x="672" y="585"/>
      <point x="694" y="585" type="curve" smooth="yes"/>
      <point x="699" y="585" type="line"/>
      <point x="728" y="710" type="line"/>
      <point x="504" y="710" type="line"/>
      <point x="475" y="585" type="line"/>
      <point x="481" y="585" type="line" smooth="yes"/>
      <point x="505" y="585"/>
      <point x="507" y="578"/>
      <point x="504" y="562" type="curve"/>
      <point x="287" y="125" type="line"/>
    </contour>
  </outline>
</glyph>
<glyph name="X" format="2">
  <advance width="617"/>
  <unicode hex="0058"/>
  <outline>
    <contour>
      <point x="68" y="585" type="line"/>
      <point x="69" y="585" type="line" smooth="yes"/>
      <point x="105" y="585"/>
      <point x="111" y="579"/>
      <point x="121" y="551" type="curve" smooth="yes"/>
      <point x="196" y="338" type="line"/>
      <point x="210" y="331" type="line"/>
      <point x="282" y="135" type="line"/>
      <point x="282" y="128"/>
      <point x="283" y="125"/>
      <point x="270" y="125" type="curve" smooth="yes"/>
      <point x="247" y="125" type="line"/>
      <point x="218" y="0" type="line"/>
      <point x="542" y="0" type="line"/>
      <point x="571" y="125" type="line"/>
      <point x="556" y="125" type="line" smooth="yes"/>
      <point x="531" y="125"/>
      <point x="520" y="127"/>
      <point x="509" y="159" type="curve" smooth="yes"/>
      <point x="427" y="388" type="line"/>
      <point x="414" y="399" type="line"/>
      <point x="354" y="578" type="line"/>
      <point x="354" y="584"/>
      <point x="363" y="585"/>
      <point x="373" y="585" type="curve" smooth="yes"/>
      <point x="384" y="585" type="line"/>
      <point x="412" y="710" type="line"/>
      <point x="96" y="710" type="line"/>
    </contour>
    <contour>
      <point x="-50" y="0" type="line"/>
      <point x="183" y="0" type="line"/>
      <point x="212" y="125" type="line"/>
      <point x="202" y="125" type="line" smooth="yes"/>
      <point x="190" y="125"/>
      <point x="186" y="127"/>
      <point x="189" y="136" type="curve"/>
      <point x="350" y="345" type="line"/>
      <point x="217" y="389" type="line"/>
      <point x="37" y="171" type="line" smooth="yes"/>
      <point x="9" y="137"/>
      <point x="-1" y="125"/>
      <point x="-16" y="125" type="curve" smooth="yes"/>
      <point x="-21" y="125" type="line"/>
    </contour>
    <contour>
      <point x="355" y="263" type="line"/>
      <point x="584" y="541" type="line" smooth="yes"/>
      <point x="611" y="574"/>
      <point x="620" y="585"/>
      <point x="635" y="585" type="curve" smooth="yes"/>
      <point x="636" y="585" type="line"/>
      <point x="664" y="710" type="line"/>
      <point x="462" y="710" type="line"/>
      <point x="434" y="585" type="line"/>
      <point x="441" y="585" type="line" smooth="yes"/>
      <point x="450" y="585"/>
      <point x="453" y="584"/>
      <point x="453" y="578" type="curve"/>
      <point x="299" y="390" type="line"/>
    </contour>
  </outline>
</glyph>
<glyph name="Z" format="2">
  <advance width="592"/>
  <unicode hex="005A"/>
  <outline>
    <contour>
      <point x="138" y="126" type="line"/>
      <point x="167" y="40" type="line"/>
      <point x="607" y="582" type="line"/>
      <point x="639" y="710" type="line"/>
      <point x="132" y="710" type="line"/>
      <point x="73" y="479" type="line"/>
      <point x="203" y="479" type="line"/>
      <point x="228" y="542" type="line" smooth="yes"/>
      <point x="243" y="579"/>
      <point x="249" y="584"/>
      <point x="303" y="584" type="curve" smooth="yes"/>
      <point x="438" y="584" type="line"/>
      <point x="417" y="658" type="line"/>
      <point x="-11" y="131" type="line"/>
      <point x="-44" y="0" type="line"/>
      <point x="497" y="0" type="line"/>
      <point x="561" y="261" type="line"/>
      <point x="429" y="261" type="line"/>
      <point x="390" y="168" type="line" smooth="yes"/>
      <point x="375" y="133"/>
      <point x="348" y="126"/>
      <point x="274" y="126" type="curve" smooth="yes"/>
    </contour>
  </outline>
</glyph>
<glyph name="backslash" format="2">
  <advance width="486"/>
  <unicode hex="005C"/>
  <outline>
    <contour>
      <point x="162" y="780" type="line"/>
      <point x="7" y="780" type="line"/>
      <point x="312" y="-158" type="line"/>
      <point x="467" y="-158" type="line"/>
    </contour>
  </outline>
</glyph>
<glyph name="asciicircum" format="2">
  <advance width="497"/>
  <unicode hex="005E"/>
  <outline>
    <contour>
      <point x="208" y="307" type="line"/>
      <point x="344" y="642" type="line"/>
      <point x="358" y="713" type="line"/>
      <point x="241" y="713" type="line"/>
      <point x="21" y="307" type="line"/>
    </contour>
    <contour>
      <point x="303" y="307" type="line"/>
      <point x="488" y="307" type="line"/>
      <point x="440" y="713" type="line"/>
      <point x="313" y="713" type="line"/>
      <point x="287" y="642" type="line"/>
    </contour>
  </outline>
</glyph>
<glyph name="f" format="2">
  <advance width="451"/>
  <unicode hex="0066"/>
  <outline>
    <contour>
      <point x="72" y="569" type="line"/>
      <point x="44" y="445" type="line"/>
      <point x="455" y="445" type="line"/>
      <point x="484" y="569" type="line"/>
    </contour>
    <contour>
      <point x="442" y="667" type="curve" smooth="yes"/>
      <point x="477.0" y="667.0"/>
      <point x="503.0" y="656.0"/>
      <point x="514" y="651" type="curve"/>
      <point x="545" y="768" type="line"/>
      <point x="518" y="776"/>
      <point x="474" y="787"/>
      <point x="404" y="787" type="curve" smooth="yes"/>
      <point x="259" y="787"/>
      <point x="175" y="740"/>
      <point x="153" y="608" type="curve" smooth="yes"/>
      <point x="13" y="-241" type="line"/>
      <point x="189" y="-241" type="line"/>
      <point x="371" y="590" type="line" smooth="yes"/>
      <point x="383.0" y="645.0"/>
      <point x="395.0" y="667.0"/>
    </contour>
  </outline>
</glyph>
<glyph name="g" format="2">
  <advance width="658"/>
  <unicode hex="0067"/>
  <outline>
    <contour>
      <point x="299" y="-49" type="line" smooth="yes"/>
      <point x="286" y="-101"/>
      <point x="247" y="-135"/>
      <point x="186" y="-135" type="curve" smooth="yes"/>
      <point x="139" y="-135"/>
      <point x="114" y="-112"/>
      <point x="99" y="-100" type="curve"/>
      <point x="88" y="-98"/>
      <point x="107" y="-191"/>
      <point x="128" y="-202" type="curve"/>
      <point x="158" y="-61" type="line"/>
      <point x="-14" y="-61" type="line"/>
      <point x="-46" y="-201" type="line"/>
      <point x="-7" y="-225"/>
      <point x="73" y="-256"/>
      <point x="181" y="-256" type="curve" smooth="yes"/>
      <point x="388" y="-256"/>
      <point x="482" y="-183"/>
      <point x="528" y="4" type="curve" smooth="yes"/>
      <point x="667" y="566" type="line"/>
      <point x="543" y="566" type="line"/>
      <point x="435" y="404" type="line"/>
      <point x="411" y="402" type="line"/>
    </contour>
    <contour>
      <point x="448" y="344" type="line"/>
      <point x="445" y="489"/>
      <point x="400" y="580"/>
      <point x="285" y="580" type="curve" smooth="yes"/>
      <point x="147" y="580"/>
      <point x="25" y="391"/>
      <point x="25" y="197" type="curve" smooth="yes"/>
      <point x="25" y="69"/>
      <point x="80" y="14"/>
      <point x="174" y="14" type="curve" smooth="yes"/>
      <point x="267" y="14"/>
      <point x="338" y="79"/>
      <point x="412" y="226" type="curve"/>
      <point x="414" y="274" type="line"/>
      <point x="341" y="177"/>
      <point x="314" y="148"/>
      <point x="282" y="148" type="curve" smooth="yes"/>
      <point x="255" y="148"/>
      <point x="243" y="170"/>
      <point x="243" y="217" type="curve" smooth="yes"/>
      <point x="243" y="321"/>
      <point x="284" y="418"/>
      <point x="332" y="418" type="curve" smooth="yes"/>
      <point x="370" y="418"/>
      <point x="377" y="388"/>
      <point x="397" y="306" type="curve"/>
    </contour>
  </outline>
</glyph>
<glyph name="i" format="2">
  <advance width="346"/>
  <unicode hex="0069"/>
  <outline>
    <contour>
      <point x="19" y="96" type="curve" smooth="yes" identifier="b0iYjRbEcD"/>
      <point x="19" y="32" identifier="NUNEv4S4y4"/>
      <point x="59" y="0" identifier="Ed0b7S7rA0"/>
      <point x="130" y="0" type="curve" smooth="yes" identifier="c0LUT5OlNB"/>
      <point x="174" y="0" identifier="lowH4coRoA"/>
      <point x="220" y="0" identifier="1571gID13Q"/>
      <point x="263" y="0" type="curve" identifier="uMaNM7XyPx"/>
      <point x="287" y="112" type="line" identifier="0EOeXXyCWk"/>
      <point x="281" y="112" identifier="RIaKHMWuNs"/>
      <point x="279" y="112" identifier="LYaWS8f9LA"/>
      <point x="272" y="112" type="curve" smooth="yes" identifier="HpOSSMZfjZ"/>
      <point x="252" y="112" identifier="5MiWwfJOo8"/>
      <point x="242" y="118" identifier="4546HUNyJt"/>
      <point x="242" y="135" type="curve" smooth="yes" identifier="KjmnVV5T09"/>
      <point x="242" y="149" identifier="nEOQkw4nL5"/>
      <point x="245" y="160" identifier="vYfH8HZZlH"/>
      <point x="268" y="251" type="curve" smooth="yes" identifier="13dbRj4pGX"/>
      <point x="347" y="569" type="line" identifier="FG8f7hKSi6"/>
      <point x="97" y="569" type="line" identifier="wXpAr9JrUK"/>
      <point x="70" y="449" type="line" identifier="uRnFBsFp6s"/>
      <point x="78" y="447" type="line" smooth="yes" identifier="tfnYXJPHVt"/>
      <point x="95" y="443" identifier="EkOtTeAjgL"/>
      <point x="102" y="437" identifier="7uqQo0iuAe"/>
      <point x="97" y="417" type="curve" smooth="yes" identifier="jKhskVhKFP"/>
      <point x="51" y="247" type="line" smooth="yes" identifier="Ln9RjDtpPK"/>
      <point x="27" y="158" identifier="I5kbTCcqHC"/>
      <point x="19" y="122" identifier="q2rtYDJDlB"/>
    </contour>
    <contour>
      <point x="147" y="718" type="curve" smooth="yes"/>
      <point x="147" y="653"/>
      <point x="190" y="626"/>
      <point x="261" y="626" type="curve" smooth="yes"/>
      <point x="343" y="626"/>
      <point x="374" y="666"/>
      <point x="374" y="724" type="curve" smooth="yes"/>
      <point x="374" y="789"/>
      <point x="332" y="817"/>
      <point x="261" y="817" type="curve" smooth="yes"/>
      <point x="179" y="817"/>
      <point x="147" y="778"/>
    </contour>
  </outline>
</glyph>
<glyph name="m" format="2">
  <advance width="961"/>
  <unicode hex="006D"/>
  <outline>
    <contour>
      <point x="-7" y="0" type="line"/>
      <point x="101" y="417" type="line" smooth="yes"/>
      <point x="104" y="430"/>
      <point x="99" y="442"/>
      <point x="83" y="447" type="curve" smooth="yes"/>
      <point x="76" y="449" type="line"/>
      <point x="103" y="569" type="line"/>
      <point x="313" y="569" type="line"/>
      <point x="303" y="416" type="line"/>
      <point x="306" y="392" type="line"/>
      <point x="208" y="0" type="line"/>
    </contour>
    <contour>
      <point x="891" y="251" type="line" smooth="yes"/>
      <point x="869" y="164"/>
      <point x="865" y="148"/>
      <point x="865" y="135" type="curve" smooth="yes"/>
      <point x="865" y="118"/>
      <point x="877" y="112"/>
      <point x="894" y="112" type="curve" smooth="yes"/>
      <point x="901" y="112"/>
      <point x="904" y="112"/>
      <point x="908" y="112" type="curve"/>
      <point x="883" y="0" type="line"/>
      <point x="841" y="0"/>
      <point x="795" y="0"/>
      <point x="754" y="0" type="curve" smooth="yes"/>
      <point x="683" y="0"/>
      <point x="640" y="29"/>
      <point x="640" y="89" type="curve" smooth="yes"/>
      <point x="640" y="114"/>
      <point x="649" y="150"/>
      <point x="676" y="247" type="curve" smooth="yes"/>
      <point x="706" y="356" type="line" smooth="yes"/>
      <point x="709" y="366"/>
      <point x="714" y="388"/>
      <point x="714" y="399" type="curve" smooth="yes"/>
      <point x="714" y="412"/>
      <point x="706" y="418"/>
      <point x="694" y="418" type="curve" smooth="yes"/>
      <point x="662" y="418"/>
      <point x="627" y="369"/>
      <point x="551" y="290" type="curve"/>
      <point x="580" y="396" type="line"/>
      <point x="657" y="510"/>
      <point x="735" y="581"/>
      <point x="843" y="581" type="curve" smooth="yes"/>
      <point x="908" y="581"/>
      <point x="941" y="546"/>
      <point x="941" y="491" type="curve" smooth="yes"/>
      <point x="941" y="458"/>
      <point x="936" y="427"/>
      <point x="928" y="396" type="curve" smooth="yes"/>
    </contour>
    <contour>
      <point x="306" y="0" type="line"/>
      <point x="396" y="356" type="line" smooth="yes"/>
      <point x="399" y="368"/>
      <point x="402" y="389"/>
      <point x="402" y="399" type="curve" smooth="yes"/>
      <point x="402" y="411"/>
      <point x="396" y="419"/>
      <point x="385" y="419" type="curve" smooth="yes"/>
      <point x="353" y="419"/>
      <point x="315" y="366"/>
      <point x="240" y="290" type="curve"/>
      <point x="269" y="396" type="line"/>
      <point x="345" y="509"/>
      <point x="424" y="581"/>
      <point x="526" y="581" type="curve" smooth="yes"/>
      <point x="589" y="581"/>
      <point x="621" y="546"/>
      <point x="621" y="491" type="curve" smooth="yes"/>
      <point x="621" y="471"/>
      <point x="614" y="385"/>
      <point x="612" y="375" type="curve" smooth="yes"/>
      <point x="522" y="0" type="line"/>
    </contour>
  </outline>
</glyph>
<glyph name="n" format="2">
  <advance width="650"/>
  <unicode hex="006E"/>
  <outline>
    <contour>
      <point x="-7" y="0" type="line" identifier="jUx2UXcmIy"/>
      <point x="101" y="417" type="line" smooth="yes" identifier="CoyGoa45wm"/>
      <point x="104" y="430" identifier="lu5X72Svzi"/>
      <point x="98" y="443" identifier="N7tAL3JDTC"/>
      <point x="83" y="447" type="curve" smooth="yes" identifier="cPPEprRdU1"/>
      <point x="76" y="449" type="line" identifier="uscqyHmjzz"/>
      <point x="103" y="569" type="line" identifier="zNHTvxNemF"/>
      <point x="313" y="569" type="line" identifier="vvQBM6nVlu"/>
      <point x="303" y="416" type="line" identifier="L8D0W6DbDm"/>
      <point x="306" y="392" type="line" identifier="p6SoIB9Pad"/>
      <point x="208" y="0" type="line" identifier="mLDdIsea5U"/>
    </contour>
    <contour>
      <point x="584" y="267" type="line" smooth="yes" identifier="WXvu3XJh9w"/>
      <point x="562" y="180" identifier="DVi8pEBZuE"/>
      <point x="554" y="149" identifier="fLUWyXBMXh"/>
      <point x="554" y="136" type="curve" smooth="yes" identifier="8SNHHG3SOU"/>
      <point x="554" y="119" identifier="voJlnpADKe"/>
      <point x="564" y="112" identifier="SYxnWIvlkF"/>
      <point x="584" y="112" type="curve" smooth="yes" identifier="2Ntj2y8D6y"/>
      <point x="589" y="112" identifier="VKdT34R5nv"/>
      <point x="593" y="112" identifier="iRNgSHXyxV"/>
      <point x="597" y="112" type="curve" identifier="GabzaFPAzh"/>
      <point x="572" y="0" type="line" identifier="6qMVp6XzAE"/>
      <point x="531" y="0" identifier="LNwKvg5zZ5"/>
      <point x="484" y="0" identifier="mUBYIFZ3mT"/>
      <point x="443" y="0" type="curve" smooth="yes" identifier="ukWJTb8QYu"/>
      <point x="372" y="0" identifier="wJdAU0NRJl"/>
      <point x="329" y="29" identifier="l9UMBckd2O"/>
      <point x="329" y="89" type="curve" smooth="yes" identifier="AYZvzpTkty"/>
      <point x="329" y="116" identifier="6GnvCqgcXe"/>
      <point x="340" y="157" identifier="UvWxPHCZLg"/>
      <point x="365" y="247" type="curve" smooth="yes" identifier="0noswGCD7K"/>
      <point x="395" y="356" type="line" smooth="yes" identifier="kMsHq2kJoU"/>
      <point x="398" y="366" identifier="kH0Z9OZ9f1"/>
      <point x="401" y="382" identifier="oRvonCwZwX"/>
      <point x="401" y="395" type="curve" smooth="yes" identifier="xqfnGerhLm"/>
      <point x="401" y="409" identifier="U6GhRU4cgI"/>
      <point x="395" y="419" identifier="EmASIKYsya"/>
      <point x="382" y="419" type="curve" smooth="yes" identifier="IEYLWXiicC"/>
      <point x="354" y="419" identifier="wHPYyjpVCd"/>
      <point x="319" y="374" identifier="mVoLjv2575"/>
      <point x="246" y="291" type="curve" identifier="nyHt9MlC8H"/>
      <point x="269" y="396" type="line" identifier="00SymWIlqB"/>
      <point x="345" y="509" identifier="tzW6Y4Sz88"/>
      <point x="424" y="581" identifier="gcJBZkMVl4"/>
      <point x="527" y="581" type="curve" smooth="yes" identifier="6Al21phrGI"/>
      <point x="594" y="581" identifier="VYEJmNB8LO"/>
      <point x="630" y="544" identifier="GWvpbrH5t0"/>
      <point x="630" y="487" type="curve" smooth="yes" identifier="JLFyb1N7Rw"/>
      <point x="630" y="458" identifier="7ddwA8qzOb"/>
      <point x="623" y="421" identifier="AVfFKrNcYB"/>
      <point x="617" y="396" type="curve" smooth="yes" identifier="XO0byrBNcj"/>
    </contour>
  </outline>
</glyph>
<glyph name="w" format="2">
  <advance width="882"/>
  <unicode hex="0077"/>
  <outline>
    <contour>
      <point x="293" y="0" type="line"/>
      <point x="362" y="149"/>
      <point x="437" y="311"/>
      <point x="504" y="457" type="curve"/>
      <point x="434" y="464" type="line"/>
      <point x="413" y="0" type="line"/>
      <point x="625" y="0" type="line"/>
      <point x="725" y="185"/>
      <point x="823" y="367"/>
      <point x="921" y="551" type="curve"/>
      <point x="922" y="569" type="line"/>
      <point x="761" y="569" type="line"/>
      <point x="699" y="421"/>
      <point x="646" y="299"/>
      <point x="601" y="201" type="curve"/>
      <point x="606" y="160" type="line"/>
      <point x="629" y="569" type="line"/>
      <point x="430" y="569" type="line"/>
      <point x="368" y="414"/>
      <point x="307" y="270"/>
      <point x="272" y="200" type="curve"/>
      <point x="277" y="147" type="line"/>
      <point x="295" y="569" type="line"/>
      <point x="76" y="569" type="line"/>
      <point x="53" y="455" type="line"/>
      <point x="62" y="452" type="line" smooth="yes"/>
      <point x="81" y="446"/>
      <point x="89" y="435"/>
      <point x="88" y="406" type="curve" smooth="yes"/>
      <point x="76" y="0" type="line"/>
    </contour>
  </outline>
</glyph>
<glyph name="z" format="2">
  <advance width="588"/>
  <unicode hex="007A"/>
  <outline>
    <contour>
      <point x="391" y="-12" type="curve" smooth="yes"/>
      <point x="500" y="-12"/>
      <point x="562" y="89"/>
      <point x="562" y="238" type="curve"/>
      <point x="482" y="250" type="line"/>
      <point x="462" y="184"/>
      <point x="421" y="171"/>
      <point x="375" y="171" type="curve" smooth="yes"/>
      <point x="318" y="171"/>
      <point x="282" y="189"/>
      <point x="262" y="204" type="curve"/>
      <point x="203" y="162" type="line"/>
      <point x="244" y="73"/>
      <point x="284" y="-12"/>
    </contour>
    <contour>
      <point x="106" y="0" type="line"/>
      <point x="545" y="416" type="line"/>
      <point x="582" y="569" type="line"/>
      <point x="102" y="569" type="line"/>
      <point x="41" y="331" type="line"/>
      <point x="167" y="331" type="line"/>
      <point x="179" y="357" type="line" smooth="yes"/>
      <point x="198" y="399"/>
      <point x="223" y="411"/>
      <point x="287" y="411" type="curve" smooth="yes"/>
      <point x="395" y="411" type="line"/>
      <point x="412" y="450" type="line"/>
      <point x="-1" y="81" type="line"/>
      <point x="-17" y="0" type="line"/>
    </contour>
  </outline>
</glyph>
<glyph name="braceleft" format="2">
  <advance width="404"/>
  <unicode hex="007B"/>
  <outline>
    <contour>
      <point x="356" y="225" type="curve" smooth="yes"/>
      <point x="356" y="276"/>
      <point x="313" y="299"/>
      <point x="182" y="320" type="curve"/>
      <point x="186" y="336" type="line"/>
      <point x="355" y="342"/>
      <point x="400" y="370"/>
      <point x="400" y="420" type="curve" smooth="yes"/>
      <point x="400" y="466"/>
      <point x="371" y="506"/>
      <point x="371" y="565" type="curve" smooth="yes"/>
      <point x="371" y="600"/>
      <point x="385" y="635"/>
      <point x="424" y="635" type="curve" smooth="yes"/>
      <point x="443" y="635"/>
      <point x="459" y="632"/>
      <point x="467" y="630" type="curve"/>
      <point x="474" y="741" type="line"/>
      <point x="447" y="747"/>
      <point x="408" y="752"/>
      <point x="372" y="752" type="curve" smooth="yes"/>
      <point x="244" y="752"/>
      <point x="161" y="709"/>
      <point x="161" y="603" type="curve" smooth="yes"/>
      <point x="161" y="516"/>
      <point x="206" y="469"/>
      <point x="242" y="387" type="curve"/>
      <point x="256" y="465" type="line"/>
      <point x="84" y="416" type="line"/>
      <point x="49" y="261" type="line"/>
      <point x="193" y="197" type="line"/>
      <point x="219" y="263" type="line"/>
      <point x="123" y="180"/>
      <point x="33" y="118"/>
      <point x="33" y="8" type="curve" smooth="yes"/>
      <point x="33" y="-85"/>
      <point x="104" y="-121"/>
      <point x="205" y="-121" type="curve" smooth="yes"/>
      <point x="242" y="-121"/>
      <point x="282" y="-116"/>
      <point x="301" y="-111" type="curve"/>
      <point x="340" y="6" type="line"/>
      <point x="329" y="4"/>
      <point x="317" y="2"/>
      <point x="305" y="2" type="curve" smooth="yes"/>
      <point x="277" y="2"/>
      <point x="256" y="15"/>
      <point x="256" y="45" type="curve" smooth="yes"/>
      <point x="256" y="114"/>
      <point x="356" y="135"/>
    </contour>
  </outline>
</glyph>
<glyph name="dieresis" format="2">
  <advance width="418"/>
  <unicode hex="00A8"/>
  <outline>
    <contour>
      <point x="99" y="622" type="curve" smooth="yes"/>
      <point x="28" y="622"/>
      <point x="-12" y="654"/>
      <point x="-12" y="722" type="curve" smooth="yes"/>
      <point x="-12" y="789"/>
      <point x="28" y="823"/>
      <point x="99" y="823" type="curve" smooth="yes"/>
      <point x="168" y="823"/>
      <point x="208" y="789"/>
      <point x="208" y="722" type="curve" smooth="yes"/>
      <point x="208" y="655"/>
      <point x="168" y="622"/>
    </contour>
    <contour>
      <point x="377" y="622" type="curve" smooth="yes"/>
      <point x="308" y="622"/>
      <point x="268" y="654"/>
      <point x="268" y="722" type="curve" smooth="yes"/>
      <point x="268" y="789"/>
      <point x="308" y="823"/>
      <point x="377" y="823" type="curve" smooth="yes"/>
      <point x="447" y="823"/>
      <point x="488" y="789"/>
      <point x="488" y="722" type="curve" smooth="yes"/>
      <point x="488" y="655"/>
      <point x="447" y="622"/>
    </contour>
  </outline>
</glyph>
<glyph name="copyright" format="2">
  <advance width="815"/>
  <unicode hex="00A9"/>
  <outline>
    <contour>
      <point x="425" y="487" type="curve" smooth="yes"/>
      <point x="447" y="487"/>
      <point x="467" y="475"/>
      <point x="479" y="423" type="curve"/>
      <point x="546" y="423" type="line"/>
      <point x="546" y="550" type="line"/>
      <point x="498" y="550" type="line"/>
      <point x="469" y="485" type="line"/>
      <point x="512" y="430" type="line"/>
      <point x="502" y="512"/>
      <point x="477" y="561"/>
      <point x="401" y="561" type="curve" smooth="yes"/>
      <point x="313" y="561"/>
      <point x="242" y="494"/>
      <point x="242" y="355" type="curve" smooth="yes"/>
      <point x="242" y="215"/>
      <point x="310" y="149"/>
      <point x="411" y="149" type="curve" smooth="yes"/>
      <point x="499" y="149"/>
      <point x="531" y="195"/>
      <point x="551" y="279" type="curve"/>
      <point x="492" y="296" type="line"/>
      <point x="477" y="239"/>
      <point x="464" y="226"/>
      <point x="433" y="226" type="curve" smooth="yes"/>
      <point x="392" y="226"/>
      <point x="381" y="255"/>
      <point x="381" y="355" type="curve" smooth="yes"/>
      <point x="381" y="463"/>
      <point x="390" y="487"/>
    </contour>
    <contour>
      <point x="150" y="355" type="curve" smooth="yes"/>
      <point x="150" y="543"/>
      <point x="244" y="660"/>
      <point x="408" y="660" type="curve" smooth="yes"/>
      <point x="572" y="660"/>
      <point x="665" y="543"/>
      <point x="665" y="355" type="curve" smooth="yes"/>
      <point x="665" y="165"/>
      <point x="572" y="50"/>
      <point x="408" y="50" type="curve" smooth="yes"/>
      <point x="244" y="50"/>
      <point x="150" y="165"/>
    </contour>
    <contour>
      <point x="48" y="355" type="curve" smooth="yes"/>
      <point x="48" y="121"/>
      <point x="190" y="-38"/>
      <point x="408" y="-38" type="curve" smooth="yes"/>
      <point x="626" y="-38"/>
      <point x="767" y="121"/>
      <point x="767" y="355" type="curve" smooth="yes"/>
      <point x="767" y="588"/>
      <point x="626" y="748"/>
      <point x="408" y="748" type="curve" smooth="yes"/>
      <point x="190" y="748"/>
      <point x="48" y="588"/>
    </contour>
  </outline>
</glyph>
<glyph name="ordfeminine" format="2">
  <advance width="530"/>
  <unicode hex="00AA"/>
  <outline>
    <contour>
      <point x="393" y="297" type="curve" smooth="yes"/>
      <point x="428" y="297"/>
      <point x="461" y="297"/>
      <point x="496" y="297" type="curve"/>
      <point x="520" y="406" type="line"/>
      <point x="516" y="406"/>
      <point x="509" y="406"/>
      <point x="505" y="406" type="curve" smooth="yes"/>
      <point x="490" y="406"/>
      <point x="481" y="412"/>
      <point x="481" y="426" type="curve" smooth="yes"/>
      <point x="481" y="438"/>
      <point x="485" y="453"/>
      <point x="500" y="510" type="curve" smooth="yes"/>
      <point x="555" y="722" type="line"/>
      <point x="435" y="722" type="line"/>
      <point x="361" y="625" type="line"/>
      <point x="350" y="601" type="line"/>
      <point x="300" y="406" type="line"/>
      <point x="308" y="399" type="line"/>
      <point x="308" y="383"/>
      <point x="308" y="376"/>
      <point x="308" y="366" type="curve" smooth="yes"/>
      <point x="308" y="321"/>
      <point x="339" y="297"/>
    </contour>
    <contour>
      <point x="171" y="288" type="curve" smooth="yes"/>
      <point x="243" y="288"/>
      <point x="284" y="344"/>
      <point x="348" y="451" type="curve"/>
      <point x="349" y="494" type="line"/>
      <point x="300" y="441"/>
      <point x="277" y="414"/>
      <point x="251" y="414" type="curve" smooth="yes"/>
      <point x="232" y="414"/>
      <point x="225" y="431"/>
      <point x="225" y="466" type="curve" smooth="yes"/>
      <point x="225" y="526"/>
      <point x="258" y="605"/>
      <point x="297" y="605" type="curve"/>
      <point x="337" y="605"/>
      <point x="342" y="564"/>
      <point x="355" y="511" type="curve"/>
      <point x="378" y="569" type="line"/>
      <point x="369" y="676"/>
      <point x="340" y="730"/>
      <point x="253" y="730" type="curve" smooth="yes"/>
      <point x="132" y="730"/>
      <point x="50" y="584"/>
      <point x="50" y="448" type="curve" smooth="yes"/>
      <point x="50" y="343"/>
      <point x="96" y="288"/>
    </contour>
  </outline>
</glyph>
<glyph name="logicalnot" format="2">
  <advance width="560"/>
  <unicode hex="00AC"/>
  <outline>
    <contour>
      <point x="359" y="393" type="line"/>
      <point x="299" y="153" type="line"/>
      <point x="459" y="153" type="line"/>
      <point x="537" y="463" type="line"/>
      <point x="81" y="463" type="line"/>
      <point x="41" y="298" type="line"/>
      <point x="477" y="298" type="line"/>
    </contour>
  </outline>
</glyph>
<glyph name="acute" format="2">
  <advance width="418"/>
  <unicode hex="00B4"/>
  <outline>
    <contour>
      <point x="225" y="820" type="curve" smooth="yes"/>
      <point x="156" y="694" type="line"/>
      <point x="146" y="643" type="line"/>
      <point x="232" y="643" type="line"/>
      <point x="308" y="692" type="line" smooth="yes"/>
      <point x="363" y="727"/>
      <point x="412" y="745"/>
      <point x="412" y="806" type="curve" smooth="yes"/>
      <point x="412" y="849"/>
      <point x="387" y="885"/>
      <point x="334" y="885" type="curve" smooth="yes"/>
      <point x="283" y="885"/>
      <point x="249" y="864"/>
    </contour>
  </outline>
</glyph>
<glyph name="paragraph" format="2">
  <advance width="561"/>
  <unicode hex="00B6"/>
  <outline>
    <contour>
      <point x="631" y="710" type="line"/>
      <point x="602" y="585" type="line"/>
      <point x="591" y="585" type="line" smooth="yes"/>
      <point x="572" y="585"/>
      <point x="568" y="577"/>
      <point x="561" y="549" type="curve" smooth="yes"/>
      <point x="421" y="0" type="line"/>
      <point x="294" y="0" type="line"/>
      <point x="472" y="710" type="line"/>
    </contour>
    <contour>
      <point x="492" y="710" type="line"/>
      <point x="465" y="592" type="line"/>
      <point x="298" y="592" type="line"/>
      <point x="325" y="710" type="line"/>
    </contour>
    <contour>
      <point x="248" y="0" type="line"/>
      <point x="120" y="0" type="line"/>
      <point x="194" y="296" type="line"/>
      <point x="191" y="296" type="line" smooth="yes"/>
      <point x="98" y="296"/>
      <point x="41" y="354"/>
      <point x="41" y="451" type="curve" smooth="yes"/>
      <point x="41" y="590"/>
      <point x="120" y="710"/>
      <point x="291" y="710" type="curve" smooth="yes"/>
      <point x="426" y="710" type="line"/>
    </contour>
  </outline>
</glyph>
<glyph name="cedilla" format="2">
  <advance width="418"/>
  <unicode hex="00B8"/>
  <outline>
    <contour>
      <point x="215" y="-323" type="curve" smooth="yes"/>
      <point x="337" y="-323"/>
      <point x="392" y="-260"/>
      <point x="392" y="-185" type="curve" smooth="yes"/>
      <point x="392" y="-110"/>
      <point x="344" y="-66"/>
      <point x="204" y="-61" type="curve"/>
      <point x="197" y="-90" type="line"/>
      <point x="324" y="6" type="line"/>
      <point x="185" y="16" type="line"/>
      <point x="108" y="-136" type="line"/>
      <point x="151" y="-136" type="line" smooth="yes"/>
      <point x="201" y="-136"/>
      <point x="223" y="-153"/>
      <point x="223" y="-187" type="curve" smooth="yes"/>
      <point x="223" y="-214"/>
      <point x="216" y="-236"/>
      <point x="184" y="-236" type="curve"/>
      <point x="139" y="-236"/>
      <point x="117" y="-204"/>
      <point x="107" y="-190" type="curve"/>
      <point x="42" y="-251" type="line"/>
      <point x="70" y="-289"/>
      <point x="123" y="-323"/>
    </contour>
  </outline>
</glyph>
<glyph name="ordmasculine" format="2">
  <advance width="542"/>
  <unicode hex="00BA"/>
  <outline>
    <contour>
      <point x="277" y="289" type="curve" smooth="yes"/>
      <point x="474" y="289"/>
      <point x="527" y="437"/>
      <point x="527" y="557" type="curve" smooth="yes"/>
      <point x="527" y="671"/>
      <point x="450" y="730"/>
      <point x="335" y="730" type="curve" smooth="yes"/>
      <point x="138" y="730"/>
      <point x="85" y="581"/>
      <point x="85" y="462" type="curve" smooth="yes"/>
      <point x="85" y="348"/>
      <point x="164" y="289"/>
    </contour>
    <contour>
      <point x="325" y="627" type="curve" smooth="yes"/>
      <point x="354" y="627"/>
      <point x="365" y="609"/>
      <point x="365" y="584" type="curve" smooth="yes"/>
      <point x="365" y="557"/>
      <point x="361" y="508"/>
      <point x="349" y="462" type="curve" smooth="yes"/>
      <point x="339" y="426"/>
      <point x="327" y="391"/>
      <point x="289" y="391" type="curve" smooth="yes"/>
      <point x="260" y="391"/>
      <point x="248" y="412"/>
      <point x="248" y="438" type="curve" smooth="yes"/>
      <point x="248" y="463"/>
      <point x="252" y="507"/>
      <point x="265" y="553" type="curve" smooth="yes"/>
      <point x="275" y="590"/>
      <point x="287" y="627"/>
    </contour>
  </outline>
</glyph>
<glyph name="Eth" format="2">
  <advance width="720"/>
  <unicode hex="00D0"/>
  <outline>
    <contour>
      <point x="19" y="303" type="line"/>
      <point x="371" y="303" type="line"/>
      <point x="398" y="428" type="line"/>
      <point x="46" y="428" type="line"/>
    </contour>
    <component base="D"/>
  </outline>
</glyph>
<glyph name="multiply" format="2">
  <advance width="560"/>
  <unicode hex="00D7"/>
  <outline>
    <contour>
      <point x="107" y="106" type="line"/>
      <point x="550" y="449" type="line"/>
      <point x="453" y="573" type="line"/>
      <point x="10" y="230" type="line"/>
    </contour>
    <contour>
      <point x="335" y="105" type="line"/>
      <point x="482" y="216" type="line"/>
      <point x="218" y="575" type="line"/>
      <point x="71" y="464" type="line"/>
    </contour>
  </outline>
</glyph>
<glyph name="Thorn" format="2">
  <advance width="691"/>
  <unicode hex="00DE"/>
  <outline>
    <contour>
      <point x="375" y="568" type="line" smooth="yes"/>
      <point x="377" y="575"/>
      <point x="405" y="578"/>
      <point x="425" y="578" type="curve" smooth="yes"/>
      <point x="433" y="578" type="line"/>
      <point x="464" y="710" type="line"/>
      <point x="130" y="710" type="line"/>
      <point x="101" y="585" type="line"/>
      <point x="111" y="585" type="line" smooth="yes"/>
      <point x="133" y="585"/>
      <point x="149" y="578"/>
      <point x="142" y="549" type="curve" smooth="yes"/>
      <point x="40" y="161" type="line" smooth="yes"/>
      <point x="33" y="132"/>
      <point x="16" y="125"/>
      <point x="-9" y="125" type="curve" smooth="yes"/>
      <point x="-19" y="125" type="line"/>
      <point x="-48" y="0" type="line"/>
      <point x="287" y="0" type="line"/>
      <point x="318" y="132" type="line"/>
      <point x="293" y="132" type="line" smooth="yes"/>
      <point x="273" y="132"/>
      <point x="261" y="135"/>
      <point x="263" y="142" type="curve" smooth="yes"/>
    </contour>
    <contour>
      <point x="234" y="186" type="line"/>
      <point x="413" y="186" type="line" smooth="yes"/>
      <point x="567" y="186"/>
      <point x="683" y="245"/>
      <point x="683" y="382" type="curve" smooth="yes"/>
      <point x="683" y="478"/>
      <point x="599" y="534"/>
      <point x="427" y="534" type="curve" smooth="yes"/>
      <point x="310" y="534" type="line"/>
      <point x="299" y="430" type="line"/>
      <point x="402" y="430" type="line" smooth="yes"/>
      <point x="451" y="430"/>
      <point x="461" y="403"/>
      <point x="461" y="373" type="curve" smooth="yes"/>
      <point x="461" y="319"/>
      <point x="439" y="290"/>
      <point x="368" y="290" type="curve" smooth="yes"/>
      <point x="258" y="290" type="line"/>
    </contour>
  </outline>
</glyph>
<glyph name="ae" format="2">
  <advance width="867"/>
  <unicode hex="00E6"/>
  <outline>
    <contour>
      <point x="296" y="454" type="curve" smooth="yes"/>
      <point x="330" y="454"/>
      <point x="347" y="437"/>
      <point x="347" y="409" type="curve" smooth="yes"/>
      <point x="347" y="395"/>
      <point x="345" y="382"/>
      <point x="336" y="352" type="curve" smooth="yes"/>
      <point x="316" y="291" type="line"/>
      <point x="502" y="362" type="line"/>
      <point x="506" y="431" type="line" smooth="yes"/>
      <point x="511" y="520"/>
      <point x="439" y="580"/>
      <point x="322" y="580" type="curve" smooth="yes"/>
      <point x="228" y="580"/>
      <point x="154" y="547"/>
      <point x="121" y="527" type="curve"/>
      <point x="82" y="371" type="line"/>
      <point x="247" y="371" type="line"/>
      <point x="279" y="499" type="line"/>
      <point x="248" y="502"/>
      <point x="220" y="463"/>
      <point x="212" y="416" type="curve"/>
      <point x="233" y="440"/>
      <point x="269" y="454"/>
    </contour>
    <contour>
      <point x="167" y="-12" type="curve" smooth="yes"/>
      <point x="264" y="-12"/>
      <point x="301" y="37"/>
      <point x="369" y="135" type="curve"/>
      <point x="340" y="178" type="line"/>
      <point x="291" y="130"/>
      <point x="273" y="120"/>
      <point x="248" y="120" type="curve" smooth="yes"/>
      <point x="221" y="120"/>
      <point x="207" y="144"/>
      <point x="207" y="171" type="curve" smooth="yes"/>
      <point x="207" y="214"/>
      <point x="211" y="245"/>
      <point x="344" y="255" type="curve"/>
      <point x="363" y="351" type="line"/>
      <point x="83" y="345"/>
      <point x="15" y="255"/>
      <point x="15" y="144" type="curve" smooth="yes"/>
      <point x="15" y="39"/>
      <point x="66" y="-12"/>
    </contour>
    <contour>
      <point x="556" y="-14" type="curve" smooth="yes"/>
      <point x="678" y="-14"/>
      <point x="760" y="35"/>
      <point x="817" y="125" type="curve"/>
      <point x="725" y="195" type="line"/>
      <point x="703" y="173"/>
      <point x="665" y="126"/>
      <point x="605" y="126" type="curve" smooth="yes"/>
      <point x="556" y="126"/>
      <point x="519" y="163"/>
      <point x="519" y="238" type="curve" smooth="yes"/>
      <point x="519" y="360"/>
      <point x="568" y="482"/>
      <point x="626" y="482" type="curve" smooth="yes"/>
      <point x="655" y="482"/>
      <point x="671" y="459"/>
      <point x="671" y="426" type="curve" smooth="yes"/>
      <point x="671" y="335"/>
      <point x="597" y="320"/>
      <point x="465" y="314" type="curve"/>
      <point x="474" y="215" type="line"/>
      <point x="730" y="222"/>
      <point x="851" y="297"/>
      <point x="851" y="427" type="curve" smooth="yes"/>
      <point x="851" y="513"/>
      <point x="795" y="580"/>
      <point x="649" y="580" type="curve" smooth="yes"/>
      <point x="565" y="580"/>
      <point x="459" y="524"/>
      <point x="398" y="426" type="curve"/>
      <point x="339" y="393"/>
      <point x="312" y="309"/>
      <point x="312" y="208" type="curve" smooth="yes"/>
      <point x="312" y="66"/>
      <point x="399" y="-14"/>
    </contour>
  </outline>
</glyph>
<glyph name="icircumflex" format="2">
  <advance width="346"/>
  <unicode hex="00EE"/>
  <outline>
    <contour>
      <point x="363" y="866" type="line"/>
      <point x="434" y="690" type="line"/>
      <point x="420" y="633" type="line"/>
      <point x="343" y="633" type="line"/>
      <point x="234" y="750" type="line"/>
      <point x="280" y="750" type="line"/>
      <point x="153" y="633" type="line"/>
      <point x="56" y="633" type="line"/>
      <point x="70" y="690" type="line"/>
      <point x="227" y="866" type="line"/>
    </contour>
    <component base="dotlessi"/>
  </outline>
</glyph>
<glyph name="eth" format="2">
  <advance width="617"/>
  <unicode hex="00F0"/>
  <outline>
    <contour>
      <point x="133" y="671" type="line"/>
      <point x="151" y="572" type="line"/>
      <point x="652" y="696" type="line"/>
      <point x="636" y="796" type="line"/>
    </contour>
    <contour>
      <point x="410" y="414" type="line"/>
      <point x="394" y="508"/>
      <point x="358" y="553"/>
      <point x="270" y="553" type="curve" smooth="yes"/>
      <point x="114" y="553"/>
      <point x="25" y="408"/>
      <point x="25" y="223" type="curve" smooth="yes"/>
      <point x="25" y="82"/>
      <point x="113" y="-14"/>
      <point x="278" y="-14" type="curve" smooth="yes"/>
      <point x="489" y="-14"/>
      <point x="602" y="168"/>
      <point x="602" y="429" type="curve" smooth="yes"/>
      <point x="602" y="622"/>
      <point x="499" y="801"/>
      <point x="236" y="842" type="curve"/>
      <point x="186" y="747" type="line"/>
      <point x="350" y="700"/>
      <point x="386" y="645"/>
      <point x="386" y="507" type="curve"/>
      <point x="386" y="446"/>
      <point x="373" y="370"/>
      <point x="351" y="271" type="curve" smooth="yes"/>
      <point x="323" y="148"/>
      <point x="321" y="118"/>
      <point x="275" y="118" type="curve" smooth="yes"/>
      <point x="248" y="118"/>
      <point x="239" y="143"/>
      <point x="239" y="178" type="curve" smooth="yes"/>
      <point x="239" y="197"/>
      <point x="243" y="231"/>
      <point x="250" y="278" type="curve" smooth="yes"/>
      <point x="260" y="347"/>
      <point x="270" y="422"/>
      <point x="314" y="422" type="curve" smooth="yes"/>
      <point x="356" y="422"/>
      <point x="381" y="370"/>
      <point x="392" y="279" type="curve"/>
    </contour>
  </outline>
</glyph>
<glyph name="Aogonek" format="2">
  <advance width="681"/>
  <unicode hex="0104"/>
  <outline>
    <contour>
      <point x="150" y="297" type="line"/>
      <point x="127" y="180" type="line"/>
      <point x="372" y="180" type="line"/>
      <point x="390" y="297" type="line"/>
    </contour>
    <contour>
      <point x="579" y="0" type="line"/>
      <point x="607" y="125" type="line"/>
      <point x="604" y="125" type="line"/>
      <point x="582" y="125"/>
      <point x="557" y="138"/>
      <point x="559" y="189" type="curve" smooth="yes"/>
      <point x="588" y="718" type="line"/>
      <point x="302" y="718" type="line"/>
      <point x="42" y="189" type="line" smooth="yes"/>
      <point x="17" y="137"/>
      <point x="0" y="125"/>
      <point x="-22" y="125" type="curve"/>
      <point x="-26" y="125" type="line"/>
      <point x="-54" y="0" type="line"/>
      <point x="158" y="0" type="line"/>
      <point x="186" y="125" type="line"/>
      <point x="186" y="125" type="line" smooth="yes"/>
      <point x="154" y="125"/>
      <point x="166" y="135"/>
      <point x="170" y="148" type="curve"/>
      <point x="454" y="751" type="line"/>
      <point x="359" y="710" type="line"/>
      <point x="327" y="0" type="line"/>
    </contour>
    <contour>
      <point x="445" y="45" type="line"/>
      <point x="157" y="-37"/>
      <point x="127" y="-83"/>
      <point x="127" y="-158" type="curve" smooth="yes"/>
      <point x="127" y="-227"/>
      <point x="181" y="-252"/>
      <point x="286" y="-252" type="curve" smooth="yes"/>
      <point x="360" y="-252"/>
      <point x="405" y="-226"/>
      <point x="444" y="-190" type="curve"/>
      <point x="403" y="-125" type="line"/>
      <point x="385" y="-142"/>
      <point x="359" y="-162"/>
      <point x="334" y="-162" type="curve" smooth="yes"/>
      <point x="310" y="-162"/>
      <point x="304" y="-147"/>
      <point x="304" y="-124" type="curve" smooth="yes"/>
      <point x="304" y="-89"/>
      <point x="312" y="-67"/>
      <point x="459" y="7" type="curve"/>
    </contour>
  </outline>
</glyph>
<glyph name="dcroat" format="2">
  <advance width="663"/>
  <unicode hex="0111"/>
  <outline>
    <contour>
      <point x="418" y="363" type="curve"/>
      <point x="396" y="303" type="line"/>
      <point x="379" y="378"/>
      <point x="373" y="417"/>
      <point x="340" y="417" type="curve" smooth="yes"/>
      <point x="280" y="417"/>
      <point x="236" y="313"/>
      <point x="236" y="200" type="curve" smooth="yes"/>
      <point x="236" y="173"/>
      <point x="243" y="141"/>
      <point x="277" y="141" type="curve" smooth="yes"/>
      <point x="309" y="141"/>
      <point x="337" y="181"/>
      <point x="400" y="264" type="curve"/>
      <point x="404" y="195" type="line"/>
      <point x="328" y="50"/>
      <point x="263" y="-12"/>
      <point x="173" y="-12" type="curve" smooth="yes"/>
      <point x="79" y="-12"/>
      <point x="23" y="65"/>
      <point x="23" y="199" type="curve" smooth="yes"/>
      <point x="23" y="386"/>
      <point x="143" y="582"/>
      <point x="282" y="582" type="curve" smooth="yes"/>
      <point x="366" y="582"/>
      <point x="422" y="509"/>
    </contour>
    <contour>
      <point x="342" y="719" type="line"/>
      <point x="737" y="719" type="line"/>
      <point x="715" y="625" type="line"/>
      <point x="320" y="625" type="line"/>
    </contour>
    <contour>
      <point x="502" y="780" type="line"/>
      <point x="716" y="780" type="line"/>
      <point x="589" y="281" type="line" smooth="yes"/>
      <point x="567" y="193"/>
      <point x="557" y="154"/>
      <point x="557" y="139" type="curve" smooth="yes"/>
      <point x="557" y="125"/>
      <point x="565" y="112"/>
      <point x="585" y="112" type="curve" smooth="yes"/>
      <point x="589" y="112"/>
      <point x="597" y="112"/>
      <point x="600" y="112" type="curve"/>
      <point x="575" y="0" type="line"/>
      <point x="533" y="0"/>
      <point x="510" y="0"/>
      <point x="468" y="0" type="curve" smooth="yes"/>
      <point x="397" y="0"/>
      <point x="355" y="33"/>
      <point x="355" y="93" type="curve" smooth="yes"/>
      <point x="355" y="105"/>
      <point x="355" y="114"/>
      <point x="355" y="142" type="curve"/>
      <point x="343" y="146" type="line"/>
    </contour>
  </outline>
</glyph>
<glyph name="eogonek" format="2">
  <advance width="578"/>
  <unicode hex="0119"/>
  <outline>
    <contour>
      <point x="320" y="125" type="curve" smooth="yes"/>
      <point x="264" y="125"/>
      <point x="231" y="164"/>
      <point x="231" y="238" type="curve" smooth="yes"/>
      <point x="231" y="370"/>
      <point x="277" y="482"/>
      <point x="337" y="482" type="curve" smooth="yes"/>
      <point x="361" y="482"/>
      <point x="377" y="461"/>
      <point x="377" y="426" type="curve" smooth="yes"/>
      <point x="377" y="338"/>
      <point x="314" y="319"/>
      <point x="182" y="315" type="curve"/>
      <point x="185" y="212" type="line"/>
      <point x="441" y="219"/>
      <point x="562" y="297"/>
      <point x="562" y="427" type="curve" smooth="yes"/>
      <point x="562" y="513"/>
      <point x="506" y="580"/>
      <point x="370" y="580" type="curve" smooth="yes"/>
      <point x="167" y="580"/>
      <point x="23" y="420"/>
      <point x="23" y="208" type="curve" smooth="yes"/>
      <point x="23" y="69"/>
      <point x="115" y="-14"/>
      <point x="267" y="-14" type="curve" smooth="yes"/>
      <point x="315" y="-14"/>
      <point x="351" y="-6"/>
      <point x="385" y="9" type="curve"/>
      <point x="363" y="48" type="line"/>
      <point x="180" y="-22"/>
      <point x="115" y="-83"/>
      <point x="115" y="-143" type="curve" smooth="yes"/>
      <point x="115" y="-222"/>
      <point x="169" y="-252"/>
      <point x="274" y="-252" type="curve" smooth="yes"/>
      <point x="348" y="-252"/>
      <point x="393" y="-226"/>
      <point x="432" y="-190" type="curve"/>
      <point x="391" y="-125" type="line"/>
      <point x="373" y="-142"/>
      <point x="347" y="-162"/>
      <point x="322" y="-162" type="curve" smooth="yes"/>
      <point x="299" y="-162"/>
      <point x="292" y="-148"/>
      <point x="292" y="-122" type="curve" smooth="yes"/>
      <point x="292" y="-66"/>
      <point x="318" y="-61"/>
      <point x="449" y="44" type="curve" smooth="yes"/>
      <point x="486" y="71"/>
      <point x="508" y="95"/>
      <point x="529" y="124" type="curve"/>
      <point x="435" y="196" type="line"/>
      <point x="413" y="172"/>
      <point x="373" y="125"/>
    </contour>
  </outline>
</glyph>
<glyph name="Hbar" format="2">
  <advance width="712"/>
  <unicode hex="0126"/>
  <outline>
    <contour>
      <point x="183" y="354" type="line"/>
      <point x="162" y="256" type="line"/>
      <point x="512" y="256" type="line"/>
      <point x="533" y="354" type="line"/>
    </contour>
    <contour>
      <point x="-48" y="0" type="line"/>
      <point x="256" y="0" type="line"/>
      <point x="285" y="125" type="line"/>
      <point x="278" y="125" type="line" smooth="yes"/>
      <point x="264" y="125"/>
      <point x="251" y="128"/>
      <point x="253" y="135" type="curve" smooth="yes"/>
      <point x="369" y="575" type="line" smooth="yes"/>
      <point x="371" y="582"/>
      <point x="386" y="585"/>
      <point x="400" y="585" type="curve" smooth="yes"/>
      <point x="406" y="585" type="line"/>
      <point x="435" y="710" type="line"/>
      <point x="130" y="710" type="line"/>
      <point x="101" y="585" type="line"/>
      <point x="111" y="585" type="line" smooth="yes"/>
      <point x="135" y="585"/>
      <point x="142" y="580"/>
      <point x="134" y="549" type="curve" smooth="yes"/>
      <point x="32" y="161" type="line" smooth="yes"/>
      <point x="25" y="131"/>
      <point x="10" y="125"/>
      <point x="-10" y="125" type="curve" smooth="yes"/>
      <point x="-19" y="125" type="line"/>
    </contour>
    <contour>
      <point x="302" y="0" type="line"/>
      <point x="606" y="0" type="line"/>
      <point x="635" y="125" type="line"/>
      <point x="628" y="125" type="line" smooth="yes"/>
      <point x="614" y="125"/>
      <point x="601" y="128"/>
      <point x="603" y="135" type="curve" smooth="yes"/>
      <point x="719" y="575" type="line" smooth="yes"/>
      <point x="721" y="582"/>
      <point x="735" y="585"/>
      <point x="749" y="585" type="curve" smooth="yes"/>
      <point x="755" y="585" type="line"/>
      <point x="784" y="710" type="line"/>
      <point x="481" y="710" type="line"/>
      <point x="452" y="585" type="line"/>
      <point x="462" y="585" type="line" smooth="yes"/>
      <point x="486" y="585"/>
      <point x="492" y="580"/>
      <point x="484" y="549" type="curve" smooth="yes"/>
      <point x="382" y="161" type="line" smooth="yes"/>
      <point x="375" y="131"/>
      <point x="360" y="125"/>
      <point x="340" y="125" type="curve" smooth="yes"/>
      <point x="331" y="125" type="line"/>
    </contour>
    <contour>
      <point x="40" y="418" type="line"/>
      <point x="734" y="418" type="line"/>
      <point x="758" y="525" type="line"/>
      <point x="64" y="525" type="line"/>
    </contour>
  </outline>
</glyph>
<glyph name="itilde" format="2">
  <advance width="346"/>
  <unicode hex="0129"/>
  <outline>
    <contour>
      <point x="319" y="632" type="curve" smooth="yes"/>
      <point x="392" y="632"/>
      <point x="423" y="683"/>
      <point x="467" y="838" type="curve"/>
      <point x="377" y="858" type="line"/>
      <point x="355" y="795"/>
      <point x="352" y="766"/>
      <point x="331" y="766" type="curve"/>
      <point x="294" y="766"/>
      <point x="300" y="855"/>
      <point x="203" y="855" type="curve" smooth="yes"/>
      <point x="128" y="855"/>
      <point x="96" y="802"/>
      <point x="51" y="655" type="curve"/>
      <point x="137" y="630" type="line"/>
      <point x="161" y="703"/>
      <point x="170" y="722"/>
      <point x="192" y="722" type="curve" smooth="yes"/>
      <point x="227" y="722"/>
      <point x="216" y="632"/>
    </contour>
    <component base="dotlessi"/>
  </outline>
</glyph>
<glyph name="imacron" format="2">
  <advance width="346"/>
  <unicode hex="012B"/>
  <outline>
    <contour>
      <point x="106" y="802" type="line"/>
      <point x="72" y="659" type="line"/>
      <point x="404" y="659" type="line"/>
      <point x="439" y="802" type="line"/>
    </contour>
    <component base="dotlessi"/>
  </outline>
</glyph>
<glyph name="ibreve" format="2">
  <advance width="346"/>
  <unicode hex="012D"/>
  <outline>
    <contour>
      <point x="246" y="639" type="curve" smooth="yes"/>
      <point x="126" y="639"/>
      <point x="63" y="683"/>
      <point x="63" y="770" type="curve" smooth="yes"/>
      <point x="63" y="789"/>
      <point x="65" y="816"/>
      <point x="71" y="839" type="curve"/>
      <point x="194" y="839" type="line"/>
      <point x="188" y="776"/>
      <point x="199" y="757"/>
      <point x="249" y="757" type="curve"/>
      <point x="309" y="757"/>
      <point x="320" y="770"/>
      <point x="337" y="839" type="curve"/>
      <point x="460" y="839" type="line"/>
      <point x="448" y="676"/>
      <point x="365" y="639"/>
    </contour>
    <component base="dotlessi"/>
  </outline>
</glyph>
<glyph name="Eng" format="2">
  <advance width="668"/>
  <unicode hex="014A"/>
  <outline>
    <contour>
      <point x="532" y="-43" type="curve" smooth="yes"/>
      <point x="686" y="553" type="line" smooth="yes"/>
      <point x="693" y="582"/>
      <point x="697" y="585"/>
      <point x="710" y="585" type="curve" smooth="yes"/>
      <point x="711" y="585" type="line"/>
      <point x="741" y="710" type="line"/>
      <point x="568" y="710" type="line"/>
      <point x="538" y="585" type="line"/>
      <point x="541" y="585" type="line" smooth="yes"/>
      <point x="548" y="585"/>
      <point x="560" y="584"/>
      <point x="557" y="575" type="curve" smooth="yes"/>
      <point x="484" y="316" type="line"/>
      <point x="516" y="335" type="line"/>
      <point x="437" y="710" type="line"/>
      <point x="130" y="710" type="line"/>
      <point x="101" y="585" type="line"/>
      <point x="104" y="585" type="line" smooth="yes"/>
      <point x="122" y="585"/>
      <point x="125" y="577"/>
      <point x="118" y="549" type="curve" smooth="yes"/>
      <point x="16" y="161" type="line" smooth="yes"/>
      <point x="8" y="132"/>
      <point x="3" y="125"/>
      <point x="-13" y="125" type="curve" smooth="yes"/>
      <point x="-19" y="125" type="line"/>
      <point x="-48" y="0" type="line"/>
      <point x="123" y="0" type="line"/>
      <point x="152" y="125" type="line"/>
      <point x="147" y="125" type="line" smooth="yes"/>
      <point x="141" y="125"/>
      <point x="138" y="128"/>
      <point x="140" y="135" type="curve" smooth="yes"/>
      <point x="282" y="659" type="line"/>
      <point x="245" y="644" type="line"/>
      <point x="423" y="-68" type="line"/>
      <point x="430" y="72" type="line"/>
      <point x="407" y="-4" type="line" smooth="yes"/>
      <point x="380" y="-94"/>
      <point x="370" y="-124"/>
      <point x="319" y="-124" type="curve" smooth="yes"/>
      <point x="261" y="-124"/>
      <point x="217" y="-99"/>
      <point x="200" y="-93" type="curve"/>
      <point x="169" y="-220" type="line"/>
      <point x="206" y="-234"/>
      <point x="244" y="-250"/>
      <point x="311" y="-250" type="curve" smooth="yes"/>
      <point x="409" y="-250"/>
      <point x="493" y="-194"/>
    </contour>
  </outline>
</glyph>
<glyph name="oe" format="2">
  <advance width="908"/>
  <unicode hex="0153"/>
  <outline>
    <contour>
      <point x="596" y="-14" type="curve" smooth="yes"/>
      <point x="718" y="-14"/>
      <point x="800" y="35"/>
      <point x="857" y="125" type="curve"/>
      <point x="764" y="196" type="line"/>
      <point x="742" y="174"/>
      <point x="702" y="125"/>
      <point x="646" y="125" type="curve" smooth="yes"/>
      <point x="594" y="125"/>
      <point x="560" y="162"/>
      <point x="560" y="238" type="curve" smooth="yes"/>
      <point x="560" y="360"/>
      <point x="613" y="469"/>
      <point x="674" y="469" type="curve" smooth="yes"/>
      <point x="700" y="469"/>
      <point x="711" y="451"/>
      <point x="711" y="420" type="curve" smooth="yes"/>
      <point x="711" y="340"/>
      <point x="643" y="319"/>
      <point x="511" y="315" type="curve"/>
      <point x="514" y="212" type="line"/>
      <point x="770" y="219"/>
      <point x="891" y="297"/>
      <point x="891" y="427" type="curve" smooth="yes"/>
      <point x="891" y="513"/>
      <point x="835" y="580"/>
      <point x="688" y="580" type="curve" smooth="yes"/>
      <point x="504" y="580"/>
      <point x="392" y="420"/>
      <point x="392" y="208" type="curve" smooth="yes"/>
      <point x="392" y="69"/>
      <point x="445" y="-14"/>
    </contour>
    <contour>
      <point x="328" y="580" type="curve" smooth="yes"/>
      <point x="123" y="580"/>
      <point x="22" y="398"/>
      <point x="22" y="203" type="curve" smooth="yes"/>
      <point x="22" y="64"/>
      <point x="117" y="-14"/>
      <point x="259" y="-14" type="curve" smooth="yes"/>
      <point x="474" y="-14"/>
      <point x="546" y="179"/>
      <point x="546" y="363" type="curve" smooth="yes"/>
      <point x="546" y="511"/>
      <point x="462" y="580"/>
    </contour>
    <contour>
      <point x="240" y="285" type="curve" smooth="yes"/>
      <point x="263" y="391"/>
      <point x="289" y="452"/>
      <point x="339" y="452" type="curve" smooth="yes"/>
      <point x="373" y="452"/>
      <point x="386" y="426"/>
      <point x="386" y="394" type="curve" smooth="yes"/>
      <point x="386" y="367"/>
      <point x="376" y="316"/>
      <point x="369" y="281" type="curve" smooth="yes"/>
      <point x="350" y="180"/>
      <point x="327" y="114"/>
      <point x="274" y="114" type="curve" smooth="yes"/>
      <point x="241" y="114"/>
      <point x="224" y="138"/>
      <point x="224" y="175" type="curve" smooth="yes"/>
      <point x="224" y="207"/>
      <point x="233" y="253"/>
    </contour>
  </outline>
</glyph>
<glyph name="tbar" format="2">
  <advance width="441"/>
  <unicode hex="0167"/>
  <outline>
    <contour>
      <point x="433" y="335" type="line"/>
      <point x="28" y="335" type="line"/>
      <point x="-2" y="203" type="line"/>
      <point x="403" y="203" type="line"/>
    </contour>
    <component base="t"/>
  </outline>
</glyph>
<glyph name="Bhook" format="2">
  <advance width="824"/>
  <unicode hex="0181"/>
  <outline>
    <contour>
      <point x="532" y="243" type="curve" smooth="yes"/>
      <point x="532" y="161"/>
      <point x="475" y="124"/>
      <point x="417" y="124" type="curve" smooth="yes"/>
      <point x="377" y="124" type="line"/>
      <point x="428" y="311" type="line"/>
      <point x="469" y="311" type="line" smooth="yes"/>
      <point x="506" y="311"/>
      <point x="532" y="290"/>
    </contour>
    <contour>
      <point x="590" y="520" type="curve" smooth="yes"/>
      <point x="590" y="456"/>
      <point x="545" y="431"/>
      <point x="500" y="431" type="curve" smooth="yes"/>
      <point x="454" y="431" type="line"/>
      <point x="498" y="586" type="line"/>
      <point x="514" y="586" type="line" smooth="yes"/>
      <point x="565" y="586"/>
      <point x="590" y="564"/>
    </contour>
    <contour>
      <point x="107" y="125" type="line"/>
      <point x="77" y="0" type="line"/>
      <point x="473" y="0" type="line" smooth="yes"/>
      <point x="672" y="0"/>
      <point x="760" y="75"/>
      <point x="760" y="210" type="curve" smooth="yes"/>
      <point x="760" y="306"/>
      <point x="692" y="350"/>
      <point x="563" y="355" type="curve"/>
      <point x="582" y="312" type="line"/>
      <point x="604" y="384" type="line"/>
      <point x="560" y="364" type="line"/>
      <point x="723" y="376"/>
      <point x="813" y="433"/>
      <point x="813" y="554" type="curve" smooth="yes"/>
      <point x="813" y="654"/>
      <point x="741" y="710"/>
      <point x="573" y="710" type="curve" smooth="yes"/>
      <point x="278" y="710" type="line" smooth="yes"/>
      <point x="150" y="710"/>
      <point x="82" y="645"/>
      <point x="55" y="516" type="curve" smooth="yes"/>
      <point x="48" y="482"/>
      <point x="44" y="445"/>
      <point x="43" y="430" type="curve"/>
      <point x="172" y="430" type="line"/>
      <point x="172.0" y="448"/>
      <point x="174" y="481"/>
      <point x="183" y="510" type="curve" smooth="yes"/>
      <point x="202" y="574"/>
      <point x="220.0" y="586.0"/>
      <point x="256" y="586" type="curve" smooth="yes"/>
      <point x="286" y="586" type="line"/>
      <point x="283" y="641" type="line"/>
      <point x="158" y="161" type="line" smooth="yes"/>
      <point x="150" y="131"/>
      <point x="136" y="125"/>
      <point x="116" y="125" type="curve" smooth="yes"/>
    </contour>
  </outline>
</glyph>
<glyph name="florin" format="2">
  <advance width="560"/>
  <unicode hex="0192"/>
  <outline>
    <contour>
      <point x="137" y="565" type="line"/>
      <point x="98" y="446" type="line"/>
      <point x="518" y="446" type="line"/>
      <point x="557" y="565" type="line"/>
    </contour>
    <contour>
      <point x="216" y="-40" type="curve" smooth="yes"/>
      <point x="437" y="601" type="line" smooth="yes"/>
      <point x="455" y="654"/>
      <point x="469" y="676"/>
      <point x="526" y="676" type="curve" smooth="yes"/>
      <point x="565" y="676"/>
      <point x="594" y="667"/>
      <point x="615" y="660" type="curve"/>
      <point x="644" y="764" type="line"/>
      <point x="621" y="774"/>
      <point x="573" y="790"/>
      <point x="496" y="790" type="curve" smooth="yes"/>
      <point x="357" y="790"/>
      <point x="294" y="754"/>
      <point x="263" y="664" type="curve" smooth="yes"/>
      <point x="4" y="-92" type="line" smooth="yes"/>
      <point x="-3" y="-112"/>
      <point x="-20" y="-128"/>
      <point x="-59" y="-128" type="curve" smooth="yes"/>
      <point x="-82" y="-128"/>
      <point x="-99" y="-124"/>
      <point x="-120" y="-115" type="curve"/>
      <point x="-153" y="-230" type="line"/>
      <point x="-134" y="-238"/>
      <point x="-98" y="-250"/>
      <point x="-38" y="-250" type="curve" smooth="yes"/>
      <point x="91" y="-250"/>
      <point x="161" y="-201"/>
    </contour>
  </outline>
</glyph>
<glyph name="Khook" format="2">
  <advance width="756"/>
  <unicode hex="0198"/>
  <outline>
    <contour>
      <point x="-48" y="0" type="line"/>
      <point x="251" y="0" type="line"/>
      <point x="280" y="125" type="line"/>
      <point x="273" y="125" type="line" smooth="yes"/>
      <point x="263" y="125"/>
      <point x="251" y="128"/>
      <point x="253" y="135" type="curve" smooth="yes"/>
      <point x="369" y="575" type="line" smooth="yes"/>
      <point x="371" y="582"/>
      <point x="380" y="585"/>
      <point x="407" y="585" type="curve" smooth="yes"/>
      <point x="416" y="585" type="line"/>
      <point x="445" y="710" type="line"/>
      <point x="130" y="710" type="line"/>
      <point x="101" y="585" type="line"/>
      <point x="111" y="585" type="line" smooth="yes"/>
      <point x="135" y="585"/>
      <point x="142" y="580"/>
      <point x="134" y="549" type="curve" smooth="yes"/>
      <point x="32" y="161" type="line" smooth="yes"/>
      <point x="24" y="131"/>
      <point x="10" y="125"/>
      <point x="-10" y="125" type="curve" smooth="yes"/>
      <point x="-19" y="125" type="line"/>
    </contour>
    <contour>
      <point x="422" y="286" type="line"/>
      <point x="628" y="512" type="line" smooth="yes"/>
      <point x="669.0" y="557.0"/>
      <point x="684.0" y="575.0"/>
      <point x="698" y="575" type="curve"/>
      <point x="708.0" y="575.0"/>
      <point x="713.0" y="570.0"/>
      <point x="713" y="559" type="curve"/>
      <point x="713.0" y="529.0"/>
      <point x="682" y="469"/>
      <point x="660" y="438" type="curve"/>
      <point x="799" y="438" type="line"/>
      <point x="816.0" y="463.0"/>
      <point x="842.0" y="527.0"/>
      <point x="842" y="604" type="curve"/>
      <point x="842.0" y="676.0"/>
      <point x="808" y="719.0"/>
      <point x="731" y="719" type="curve"/>
      <point x="663" y="719.0"/>
      <point x="619" y="690"/>
      <point x="552" y="617" type="curve" smooth="yes"/>
      <point x="329" y="372" type="line"/>
      <point x="324" y="348" type="line"/>
      <point x="384" y="135" type="line"/>
      <point x="382" y="128"/>
      <point x="376" y="125"/>
      <point x="362" y="125" type="curve" smooth="yes"/>
      <point x="359" y="125" type="line"/>
      <point x="330" y="0" type="line"/>
      <point x="647" y="0" type="line"/>
      <point x="676" y="125" type="line"/>
      <point x="665" y="125" type="line" smooth="yes"/>
      <point x="643" y="125"/>
      <point x="635" y="136"/>
      <point x="629" y="156" type="curve" smooth="yes"/>
      <point x="533" y="460" type="line"/>
    </contour>
  </outline>
</glyph>
<glyph name="khook" format="2">
  <advance width="656"/>
  <unicode hex="0199"/>
  <outline>
    <contour>
      <point x="529" y="118" type="line" smooth="yes"/>
      <point x="533" y="100"/>
      <point x="542" y="96"/>
      <point x="571" y="96" type="curve" smooth="yes"/>
      <point x="579" y="96"/>
      <point x="586" y="96"/>
      <point x="594" y="96" type="curve"/>
      <point x="572" y="0" type="line"/>
      <point x="518" y="0"/>
      <point x="465" y="0"/>
      <point x="411" y="0" type="curve" smooth="yes"/>
      <point x="360" y="0"/>
      <point x="346" y="11"/>
      <point x="334" y="59" type="curve"/>
      <point x="296" y="293" type="line"/>
      <point x="300" y="309" type="line"/>
      <point x="367" y="401"/>
      <point x="425" y="479"/>
      <point x="487" y="565" type="curve"/>
      <point x="700" y="565" type="line"/>
      <point x="700" y="550" type="line"/>
      <point x="583" y="463"/>
      <point x="493" y="402"/>
      <point x="373" y="313" type="curve"/>
      <point x="471" y="408" type="line"/>
    </contour>
    <contour>
      <point x="133" y="556.0" type="curve" smooth="yes"/>
      <point x="-6" y="0" type="line"/>
      <point x="208" y="0" type="line"/>
      <point x="346" y="552.0" type="line" smooth="yes"/>
      <point x="369" y="643"/>
      <point x="403.0" y="667.0"/>
      <point x="461" y="667.0" type="curve" smooth="yes"/>
      <point x="502" y="667.0"/>
      <point x="538" y="658.0"/>
      <point x="559" y="648.0" type="curve"/>
      <point x="588" y="769.0" type="line"/>
      <point x="572" y="776.0"/>
      <point x="517" y="785.0"/>
      <point x="474" y="785.0" type="curve" smooth="yes"/>
      <point x="286.45" y="785.0"/>
      <point x="175" y="723"/>
    </contour>
  </outline>
</glyph>
<glyph name="Ohorn" format="2">
  <advance width="804"/>
  <unicode hex="01A0"/>
  <outline>
    <contour>
      <point x="412" y="605" type="curve" smooth="yes"/>
      <point x="458" y="605"/>
      <point x="478" y="564"/>
      <point x="478" y="545" type="curve" smooth="yes"/>
      <point x="478" y="509"/>
      <point x="472" y="443"/>
      <point x="448" y="343" type="curve" smooth="yes"/>
      <point x="402" y="152"/>
      <point x="372" y="105"/>
      <point x="316" y="105" type="curve" smooth="yes"/>
      <point x="270" y="105"/>
      <point x="249" y="145"/>
      <point x="249" y="172" type="curve" smooth="yes"/>
      <point x="249" y="208"/>
      <point x="256" y="263"/>
      <point x="280" y="367" type="curve" smooth="yes"/>
      <point x="324" y="558"/>
      <point x="356" y="605"/>
    </contour>
    <contour>
      <point x="623" y="576" type="line"/>
      <point x="637" y="630" type="line"/>
      <point x="540" y="627" type="line"/>
      <point x="586" y="589"/>
      <point x="647" y="553"/>
      <point x="713" y="553" type="curve" smooth="yes"/>
      <point x="789" y="553"/>
      <point x="860" y="640"/>
      <point x="899" y="889" type="curve"/>
      <point x="739" y="889" type="line"/>
      <point x="710" y="749"/>
      <point x="694" y="703"/>
      <point x="639" y="703" type="curve" smooth="yes"/>
      <point x="584" y="703"/>
      <point x="524" y="735"/>
      <point x="424" y="735" type="curve" smooth="yes"/>
      <point x="142" y="735"/>
      <point x="32" y="454"/>
      <point x="32" y="238" type="curve" smooth="yes"/>
      <point x="32" y="83"/>
      <point x="135" y="-25"/>
      <point x="304" y="-25" type="curve" smooth="yes"/>
      <point x="587" y="-25"/>
      <point x="696" y="264"/>
      <point x="696" y="443" type="curve" smooth="yes"/>
      <point x="696" y="545"/>
      <point x="637" y="594"/>
      <point x="563" y="651" type="curve"/>
    </contour>
  </outline>
</glyph>
<glyph name="Uhorn" format="2">
  <advance width="822"/>
  <unicode hex="01AF"/>
  <outline>
    <contour>
      <point x="301" y="-23" type="curve" smooth="yes"/>
      <point x="445" y="-23"/>
      <point x="539" y="46"/>
      <point x="583" y="226" type="curve" smooth="yes"/>
      <point x="665" y="547" type="line" smooth="yes"/>
      <point x="672" y="577"/>
      <point x="689" y="582"/>
      <point x="721" y="587" type="curve" smooth="yes"/>
      <point x="818" y="602"/>
      <point x="893" y="659"/>
      <point x="951" y="889" type="curve"/>
      <point x="791" y="889" type="line"/>
      <point x="745" y="738"/>
      <point x="724" y="710"/>
      <point x="613" y="710" type="curve" smooth="yes"/>
      <point x="538" y="710" type="line"/>
      <point x="509" y="585" type="line"/>
      <point x="528" y="585" type="line" smooth="yes"/>
      <point x="548" y="585"/>
      <point x="548" y="580"/>
      <point x="545" y="568" type="curve" smooth="yes"/>
      <point x="472" y="298" type="line" smooth="yes"/>
      <point x="441" y="171"/>
      <point x="413" y="123"/>
      <point x="343" y="123" type="curve" smooth="yes"/>
      <point x="295" y="123"/>
      <point x="280" y="148"/>
      <point x="280" y="198" type="curve" smooth="yes"/>
      <point x="280" y="236"/>
      <point x="283" y="273"/>
      <point x="303" y="352" type="curve" smooth="yes"/>
      <point x="364" y="575" type="line" smooth="yes"/>
      <point x="366" y="582"/>
      <point x="384" y="585"/>
      <point x="398" y="585" type="curve" smooth="yes"/>
      <point x="410" y="585" type="line"/>
      <point x="439" y="710" type="line"/>
      <point x="126" y="710" type="line"/>
      <point x="97" y="585" type="line"/>
      <point x="107" y="585" type="line" smooth="yes"/>
      <point x="125" y="585"/>
      <point x="137" y="578"/>
      <point x="130" y="549" type="curve" smooth="yes"/>
      <point x="75" y="339" type="line" smooth="yes"/>
      <point x="58" y="271"/>
      <point x="52" y="222"/>
      <point x="52" y="184" type="curve" smooth="yes"/>
      <point x="52" y="52"/>
      <point x="148" y="-23"/>
    </contour>
  </outline>
</glyph>
<glyph name="Yhook" format="2">
  <advance width="729"/>
  <unicode hex="01B3"/>
  <outline>
    <contour>
      <point x="696" y="719" type="curve" smooth="yes"/>
      <point x="629" y="719.0"/>
      <point x="579" y="693"/>
      <point x="521" y="610" type="curve" smooth="yes"/>
      <point x="300" y="297" type="line"/>
      <point x="417" y="296" type="line"/>
      <point x="353" y="574" type="line"/>
      <point x="354" y="581"/>
      <point x="360" y="585"/>
      <point x="400" y="585" type="curve" smooth="yes"/>
      <point x="405" y="585" type="line"/>
      <point x="435" y="710" type="line"/>
      <point x="123" y="710" type="line"/>
      <point x="93" y="585" type="line"/>
      <point x="96" y="585" type="line" smooth="yes"/>
      <point x="122" y="585"/>
      <point x="124" y="571"/>
      <point x="134" y="532" type="curve" smooth="yes"/>
      <point x="211" y="238" type="line"/>
      <point x="208" y="291" type="line"/>
      <point x="173" y="161" type="line" smooth="yes"/>
      <point x="165" y="132"/>
      <point x="147" y="125"/>
      <point x="127" y="125" type="curve" smooth="yes"/>
      <point x="114" y="125" type="line"/>
      <point x="85" y="0" type="line"/>
      <point x="413" y="0" type="line"/>
      <point x="442" y="125" type="line"/>
      <point x="427" y="125" type="line" smooth="yes"/>
      <point x="404" y="125"/>
      <point x="394" y="131"/>
      <point x="401" y="161" type="curve" smooth="yes"/>
      <point x="445" y="327" type="line"/>
      <point x="384" y="212" type="line"/>
      <point x="603" y="512" type="line" smooth="yes"/>
      <point x="637" y="558"/>
      <point x="651.0" y="575.0"/>
      <point x="668" y="575" type="curve" smooth="yes"/>
      <point x="682.0" y="575.0"/>
      <point x="687.0" y="568.0"/>
      <point x="687" y="553" type="curve" smooth="yes"/>
      <point x="687.0" y="517.0"/>
      <point x="662" y="469"/>
      <point x="642" y="438" type="curve"/>
      <point x="773" y="438" type="line"/>
      <point x="790.0" y="463.0"/>
      <point x="816.0" y="521.0"/>
      <point x="816" y="596" type="curve" smooth="yes"/>
      <point x="816.0" y="670.0"/>
      <point x="777" y="719.0"/>
    </contour>
  </outline>
</glyph>
<glyph name="oogonek" format="2">
  <advance width="611"/>
  <unicode hex="01EB"/>
  <outline>
    <contour>
      <point x="102" y="-148" type="curve" smooth="yes"/>
      <point x="102" y="-224"/>
      <point x="156" y="-252"/>
      <point x="261" y="-252" type="curve" smooth="yes"/>
      <point x="335" y="-252"/>
      <point x="380" y="-226"/>
      <point x="419" y="-190" type="curve"/>
      <point x="378" y="-125" type="line"/>
      <point x="360" y="-142"/>
      <point x="333" y="-162"/>
      <point x="308" y="-162" type="curve" smooth="yes"/>
      <point x="286" y="-162"/>
      <point x="279" y="-150"/>
      <point x="279" y="-129" type="curve" smooth="yes"/>
      <point x="279" y="-95"/>
      <point x="318" y="-67"/>
      <point x="446" y="29" type="curve" smooth="yes"/>
      <point x="548" y="105"/>
      <point x="588" y="248"/>
      <point x="588" y="363" type="curve" smooth="yes"/>
      <point x="588" y="501"/>
      <point x="492" y="580"/>
      <point x="350" y="580" type="curve" smooth="yes"/>
      <point x="109" y="580"/>
      <point x="23" y="387"/>
      <point x="23" y="203" type="curve" smooth="yes"/>
      <point x="23" y="64"/>
      <point x="118" y="-14"/>
      <point x="260" y="-14" type="curve" smooth="yes"/>
      <point x="281" y="-14"/>
      <point x="301" y="-13"/>
      <point x="350" y="-5" type="curve"/>
      <point x="335" y="45" type="line"/>
      <point x="149" y="-50"/>
      <point x="102" y="-87"/>
    </contour>
    <contour>
      <point x="370" y="291" type="curve" smooth="yes"/>
      <point x="351" y="190"/>
      <point x="326" y="114"/>
      <point x="277" y="114" type="curve" smooth="yes"/>
      <point x="240" y="114"/>
      <point x="226" y="138"/>
      <point x="226" y="178" type="curve" smooth="yes"/>
      <point x="226" y="187"/>
      <point x="235" y="246"/>
      <point x="243" y="280" type="curve" smooth="yes"/>
      <point x="263" y="386"/>
      <point x="292" y="452"/>
      <point x="339" y="452" type="curve" smooth="yes"/>
      <point x="376" y="452"/>
      <point x="386" y="426"/>
      <point x="386" y="391" type="curve" smooth="yes"/>
      <point x="386" y="384"/>
      <point x="377" y="326"/>
    </contour>
  </outline>
</glyph>
<glyph name="iinvertedbreve" format="2">
  <advance width="346"/>
  <unicode hex="020B"/>
  <outline>
    <contour>
      <point x="253" y="839" type="curve" smooth="yes"/>
      <point x="373" y="839"/>
      <point x="436" y="795"/>
      <point x="436" y="708" type="curve" smooth="yes"/>
      <point x="436" y="689"/>
      <point x="434" y="662"/>
      <point x="428" y="639" type="curve"/>
      <point x="305" y="639" type="line"/>
      <point x="311" y="702"/>
      <point x="300" y="721"/>
      <point x="250" y="721" type="curve" smooth="yes"/>
      <point x="190" y="721"/>
      <point x="179" y="708"/>
      <point x="162" y="639" type="curve"/>
      <point x="39" y="639" type="line"/>
      <point x="51" y="802"/>
      <point x="134" y="839"/>
    </contour>
    <component base="dotlessi"/>
  </outline>
</glyph>
<glyph name="bhook" format="2">
  <advance width="634"/>
  <unicode hex="0253"/>
  <outline>
    <contour>
      <point x="334" y="554.0" type="line" smooth="yes"/>
      <point x="356.0" y="643.0"/>
      <point x="391.0" y="667.0"/>
      <point x="449" y="667.0" type="curve"/>
      <point x="490" y="667.0"/>
      <point x="526" y="658.0"/>
      <point x="547" y="648.0" type="curve"/>
      <point x="576" y="769.0" type="line"/>
      <point x="560" y="776.0"/>
      <point x="505" y="785.0"/>
      <point x="462" y="785.0" type="curve"/>
      <point x="275.0" y="785.0"/>
      <point x="165" y="722.0"/>
      <point x="122" y="553.0" type="curve" smooth="yes"/>
      <point x="11" y="112" type="line"/>
      <point x="64" y="49"/>
      <point x="156" y="-12"/>
      <point x="282" y="-12" type="curve" smooth="yes"/>
      <point x="490" y="-12"/>
      <point x="610" y="180"/>
      <point x="610" y="390" type="curve" smooth="yes"/>
      <point x="610" y="516"/>
      <point x="554" y="580"/>
      <point x="471" y="580" type="curve" smooth="yes"/>
      <point x="381" y="580"/>
      <point x="325" y="515"/>
      <point x="246" y="378" type="curve"/>
      <point x="232" y="317" type="line"/>
      <point x="301" y="405"/>
      <point x="328" y="431"/>
      <point x="357" y="431" type="curve" smooth="yes"/>
      <point x="389" y="431"/>
      <point x="397" y="399"/>
      <point x="397" y="357" type="curve" smooth="yes"/>
      <point x="397" y="225"/>
      <point x="336" y="136"/>
      <point x="286" y="136" type="curve" smooth="yes"/>
      <point x="248" y="136"/>
      <point x="232" y="170"/>
      <point x="219" y="209" type="curve"/>
      <point x="194" y="175"/>
      <point x="189" y="105"/>
      <point x="216" y="77" type="curve"/>
    </contour>
  </outline>
</glyph>
<glyph name="dhook" format="2">
  <advance width="663"/>
  <unicode hex="0257"/>
  <outline>
    <contour>
      <point x="173" y="-12" type="curve" smooth="yes"/>
      <point x="262" y="-12"/>
      <point x="327" y="50"/>
      <point x="404" y="195" type="curve"/>
      <point x="400" y="264" type="line"/>
      <point x="342" y="187"/>
      <point x="311" y="141"/>
      <point x="277" y="141" type="curve" smooth="yes"/>
      <point x="243" y="141"/>
      <point x="236" y="173"/>
      <point x="236" y="200" type="curve" smooth="yes"/>
      <point x="236" y="313"/>
      <point x="280" y="417"/>
      <point x="340" y="417" type="curve" smooth="yes"/>
      <point x="372" y="417"/>
      <point x="379" y="381"/>
      <point x="396" y="303" type="curve"/>
      <point x="418" y="363" type="line"/>
      <point x="418" y="509"/>
      <point x="371" y="582"/>
      <point x="282" y="582" type="curve" smooth="yes"/>
      <point x="143" y="582"/>
      <point x="23" y="386"/>
      <point x="23" y="199" type="curve" smooth="yes"/>
      <point x="23" y="65"/>
      <point x="79" y="-12"/>
    </contour>
    <contour>
      <point x="445" y="543.0" type="curve" smooth="yes"/>
      <point x="343" y="146" type="line"/>
      <point x="355" y="142" type="line"/>
      <point x="355" y="115"/>
      <point x="355" y="104"/>
      <point x="355" y="93" type="curve" smooth="yes"/>
      <point x="355" y="33"/>
      <point x="397" y="0"/>
      <point x="468" y="0" type="curve" smooth="yes"/>
      <point x="510" y="0"/>
      <point x="533" y="0"/>
      <point x="575" y="0" type="curve"/>
      <point x="600" y="112" type="line"/>
      <point x="597" y="112"/>
      <point x="590" y="112"/>
      <point x="586" y="112" type="curve" smooth="yes"/>
      <point x="566" y="112"/>
      <point x="557" y="123"/>
      <point x="557" y="140" type="curve" smooth="yes"/>
      <point x="557" y="153"/>
      <point x="567" y="195"/>
      <point x="589" y="281" type="curve" smooth="yes"/>
      <point x="651" y="523.0" type="line" smooth="yes"/>
      <point x="684" y="651"/>
      <point x="705" y="667.0"/>
      <point x="749" y="667.0" type="curve" smooth="yes"/>
      <point x="766.425" y="667.0"/>
      <point x="781.8" y="663.0"/>
      <point x="790" y="660.0" type="curve"/>
      <point x="819" y="776.0" type="line"/>
      <point x="806.325" y="780.0"/>
      <point x="777.075" y="785.0"/>
      <point x="741" y="785.0" type="curve" smooth="yes"/>
      <point x="576.0" y="785.0"/>
      <point x="491" y="722"/>
    </contour>
  </outline>
</glyph>
<glyph name="schwa" format="2">
  <advance width="578"/>
  <unicode hex="0259"/>
  <outline>
    <contour>
      <point x="304" y="580" type="curve" smooth="yes"/>
      <point x="191" y="580"/>
      <point x="107" y="531"/>
      <point x="54" y="441" type="curve"/>
      <point x="147" y="370" type="line"/>
      <point x="165" y="393"/>
      <point x="199" y="441"/>
      <point x="251" y="441" type="curve" smooth="yes"/>
      <point x="314" y="441"/>
      <point x="347" y="407"/>
      <point x="347" y="307" type="curve" smooth="yes"/>
      <point x="347" y="194"/>
      <point x="315" y="84"/>
      <point x="244" y="84" type="curve" smooth="yes"/>
      <point x="217" y="84"/>
      <point x="201" y="107"/>
      <point x="201" y="146" type="curve" smooth="yes"/>
      <point x="201" y="240"/>
      <point x="270" y="248"/>
      <point x="392" y="250" type="curve"/>
      <point x="387" y="354" type="line"/>
      <point x="162" y="348"/>
      <point x="16" y="285"/>
      <point x="16" y="138" type="curve" smooth="yes"/>
      <point x="16" y="53"/>
      <point x="73" y="-14"/>
      <point x="207" y="-14" type="curve" smooth="yes"/>
      <point x="423" y="-14"/>
      <point x="555" y="149"/>
      <point x="555" y="354" type="curve" smooth="yes"/>
      <point x="555" y="498"/>
      <point x="457" y="580"/>
    </contour>
  </outline>
</glyph>
<glyph name="ringhalfright" format="2">
  <advance width="418"/>
  <unicode hex="02BE"/>
  <outline>
    <contour>
      <point x="218" y="618" type="line"/>
      <point x="315" y="618"/>
      <point x="378" y="680"/>
      <point x="378" y="764" type="curve" smooth="yes"/>
      <point x="378" y="841"/>
      <point x="322" y="891"/>
      <point x="225" y="891" type="curve"/>
      <point x="221" y="807" type="line"/>
      <point x="256" y="807"/>
      <point x="277" y="789"/>
      <point x="277" y="760" type="curve" smooth="yes"/>
      <point x="277" y="733"/>
      <point x="264" y="702"/>
      <point x="222" y="702" type="curve"/>
    </contour>
  </outline>
</glyph>
<glyph name="ringhalfleft" format="2">
  <advance width="418"/>
  <unicode hex="02BF"/>
  <outline>
    <contour>
      <point x="218" y="618" type="curve"/>
      <point x="222" y="702" type="line"/>
      <point x="185" y="702"/>
      <point x="165" y="718"/>
      <point x="165" y="749" type="curve" smooth="yes"/>
      <point x="165" y="773"/>
      <point x="177" y="807"/>
      <point x="221" y="807" type="curve"/>
      <point x="225" y="891" type="line"/>
      <point x="126" y="891"/>
      <point x="64" y="829"/>
      <point x="64" y="745" type="curve" smooth="yes"/>
      <point x="64" y="669"/>
      <point x="120" y="618"/>
    </contour>
  </outline>
</glyph>
<glyph name="circumflex" format="2">
  <advance width="418"/>
  <unicode hex="02C6"/>
  <outline>
    <contour>
      <point x="304" y="873" type="line"/>
      <point x="401" y="690" type="line"/>
      <point x="387" y="633" type="line"/>
      <point x="307" y="633" type="line"/>
      <point x="187" y="749" type="line"/>
      <point x="277" y="771" type="line"/>
      <point x="65" y="633" type="line"/>
      <point x="-29" y="633" type="line"/>
      <point x="-15" y="690" type="line"/>
      <point x="168" y="873" type="line"/>
    </contour>
  </outline>
</glyph>
<glyph name="ogonek" format="2">
  <advance width="501"/>
  <unicode hex="02DB"/>
  <outline>
    <contour>
      <point x="338" y="48" type="line"/>
      <point x="105" y="-28"/>
      <point x="70" y="-78"/>
      <point x="70" y="-153" type="curve" smooth="yes"/>
      <point x="70" y="-222"/>
      <point x="124" y="-252"/>
      <point x="229" y="-252" type="curve" smooth="yes"/>
      <point x="303" y="-252"/>
      <point x="348" y="-226"/>
      <point x="387" y="-190" type="curve"/>
      <point x="346" y="-125" type="line"/>
      <point x="328" y="-142"/>
      <point x="302" y="-162"/>
      <point x="277" y="-162" type="curve" smooth="yes"/>
      <point x="256" y="-162"/>
      <point x="247" y="-148"/>
      <point x="247" y="-121" type="curve" smooth="yes"/>
      <point x="247" y="-93"/>
      <point x="258" y="-66"/>
      <point x="402" y="7" type="curve"/>
    </contour>
  </outline>
</glyph>
<glyph name="tilde" format="2">
  <advance width="418"/>
  <unicode hex="02DC"/>
  <outline>
    <contour>
      <point x="279" y="629" type="curve" smooth="yes"/>
      <point x="354" y="629"/>
      <point x="391" y="689"/>
      <point x="433" y="844" type="curve"/>
      <point x="344" y="870" type="line"/>
      <point x="319" y="796"/>
      <point x="314" y="768"/>
      <point x="291" y="768" type="curve"/>
      <point x="246" y="768"/>
      <point x="250" y="867"/>
      <point x="144" y="867" type="curve" smooth="yes"/>
      <point x="65" y="867"/>
      <point x="34" y="799"/>
      <point x="-11" y="652" type="curve"/>
      <point x="78" y="625" type="line"/>
      <point x="102" y="699"/>
      <point x="109" y="729"/>
      <point x="133" y="729" type="curve" smooth="yes"/>
      <point x="177" y="729"/>
      <point x="168" y="629"/>
    </contour>
  </outline>
</glyph>
<glyph name="Omega" format="2">
  <advance width="811"/>
  <unicode hex="03A9"/>
  <outline>
    <contour>
      <point x="453" y="610" type="curve"/>
      <point x="343" y="610"/>
      <point x="306" y="541"/>
      <point x="306" y="438" type="curve" smooth="yes"/>
      <point x="306" y="342"/>
      <point x="324" y="252"/>
      <point x="346" y="186" type="curve"/>
      <point x="302" y="0" type="line"/>
      <point x="-20" y="0" type="line"/>
      <point x="39" y="234" type="line"/>
      <point x="136" y="234" type="line"/>
      <point x="131" y="179" type="line" smooth="yes"/>
      <point x="128" y="148"/>
      <point x="144" y="146"/>
      <point x="213" y="146" type="curve" smooth="yes"/>
      <point x="320" y="146" type="line"/>
      <point x="295" y="100" type="line"/>
      <point x="182" y="238"/>
      <point x="106" y="350"/>
      <point x="106" y="470" type="curve" smooth="yes"/>
      <point x="106" y="616"/>
      <point x="214" y="735"/>
      <point x="465" y="735" type="curve"/>
      <point x="659" y="735"/>
      <point x="776" y="649"/>
      <point x="776" y="525" type="curve" smooth="yes"/>
      <point x="776" y="366"/>
      <point x="688" y="295"/>
      <point x="429" y="101" type="curve"/>
      <point x="428" y="146" type="line"/>
      <point x="547" y="146" type="line" smooth="yes"/>
      <point x="613" y="146"/>
      <point x="632" y="147"/>
      <point x="645" y="179" type="curve" smooth="yes"/>
      <point x="668" y="234" type="line"/>
      <point x="764" y="234" type="line"/>
      <point x="707" y="0" type="line"/>
      <point x="372" y="0" type="line"/>
      <point x="416" y="186" type="line"/>
      <point x="532" y="308"/>
      <point x="576" y="379"/>
      <point x="576" y="471" type="curve" smooth="yes"/>
      <point x="576" y="547"/>
      <point x="542" y="610"/>
    </contour>
  </outline>
</glyph>
<glyph name="pi" format="2">
  <advance width="739"/>
  <unicode hex="03C0"/>
  <outline>
    <contour>
      <point x="290" y="0" type="line"/>
      <point x="401" y="443" type="line"/>
      <point x="278" y="443" type="line"/>
      <point x="200" y="173"/>
      <point x="153" y="184"/>
      <point x="107" y="0" type="curve"/>
    </contour>
    <contour>
      <point x="706" y="383" type="line"/>
      <point x="740" y="524" type="line"/>
      <point x="307" y="524" type="line" smooth="yes"/>
      <point x="121" y="524"/>
      <point x="61" y="423"/>
      <point x="23" y="279" type="curve"/>
      <point x="138" y="244" type="line"/>
      <point x="164" y="327"/>
      <point x="192" y="383"/>
      <point x="266" y="383" type="curve" smooth="yes"/>
    </contour>
    <contour>
      <point x="643" y="443" type="line"/>
      <point x="499" y="443" type="line"/>
      <point x="431" y="202"/>
      <point x="380" y="188"/>
      <point x="380" y="97" type="curve" smooth="yes"/>
      <point x="380" y="29"/>
      <point x="422" y="-10"/>
      <point x="510" y="-10" type="curve" smooth="yes"/>
      <point x="600" y="-10"/>
      <point x="651" y="38"/>
      <point x="693" y="167" type="curve"/>
      <point x="616" y="200" type="line"/>
      <point x="600" y="158"/>
      <point x="598" y="142"/>
      <point x="581" y="142" type="curve" smooth="yes"/>
      <point x="570" y="142"/>
      <point x="568" y="154"/>
      <point x="568" y="168" type="curve" smooth="yes"/>
      <point x="568" y="185"/>
      <point x="568" y="193"/>
      <point x="577" y="225" type="curve" smooth="yes"/>
    </contour>
  </outline>
</glyph>
<glyph name="Njecyr" format="2">
  <advance width="992"/>
  <unicode hex="040A"/>
  <outline>
    <contour>
      <point x="195" y="451" type="line"/>
      <point x="168" y="327" type="line"/>
      <point x="516" y="327" type="line"/>
      <point x="545" y="451" type="line"/>
    </contour>
    <contour>
      <point x="-48" y="0" type="line"/>
      <point x="256" y="0" type="line"/>
      <point x="285" y="125" type="line"/>
      <point x="278" y="125" type="line" smooth="yes"/>
      <point x="264" y="125"/>
      <point x="251" y="128"/>
      <point x="253" y="135" type="curve" smooth="yes"/>
      <point x="369" y="575" type="line" smooth="yes"/>
      <point x="371" y="582"/>
      <point x="385" y="585"/>
      <point x="399" y="585" type="curve" smooth="yes"/>
      <point x="405" y="585" type="line"/>
      <point x="434" y="710" type="line"/>
      <point x="130" y="710" type="line"/>
      <point x="101" y="585" type="line"/>
      <point x="111" y="585" type="line" smooth="yes"/>
      <point x="135" y="585"/>
      <point x="142" y="580"/>
      <point x="134" y="549" type="curve" smooth="yes"/>
      <point x="32" y="161" type="line" smooth="yes"/>
      <point x="25" y="131"/>
      <point x="10" y="125"/>
      <point x="-10" y="125" type="curve" smooth="yes"/>
      <point x="-19" y="125" type="line"/>
    </contour>
    <contour>
      <point x="668" y="0" type="line" smooth="yes"/>
      <point x="867" y="0"/>
      <point x="965" y="98"/>
      <point x="965" y="242" type="curve" smooth="yes"/>
      <point x="965" y="375"/>
      <point x="880" y="451"/>
      <point x="714" y="451" type="curve" smooth="yes"/>
      <point x="560" y="451" type="line"/>
      <point x="531" y="327" type="line"/>
      <point x="668" y="327" type="line" smooth="yes"/>
      <point x="730" y="327"/>
      <point x="748" y="297"/>
      <point x="748" y="252" type="curve" smooth="yes"/>
      <point x="748" y="184"/>
      <point x="714" y="124"/>
      <point x="646" y="124" type="curve" smooth="yes"/>
      <point x="600" y="124" type="line"/>
      <point x="713" y="549" type="line" smooth="yes"/>
      <point x="721" y="582"/>
      <point x="737" y="585"/>
      <point x="750" y="585" type="curve" smooth="yes"/>
      <point x="755" y="585" type="line"/>
      <point x="784" y="710" type="line"/>
      <point x="485" y="710" type="line"/>
      <point x="456" y="585" type="line"/>
      <point x="466" y="585" type="line" smooth="yes"/>
      <point x="482" y="585"/>
      <point x="492" y="582"/>
      <point x="490" y="575" type="curve" smooth="yes"/>
      <point x="376" y="135" type="line" smooth="yes"/>
      <point x="374" y="128"/>
      <point x="361" y="125"/>
      <point x="347" y="125" type="curve" smooth="yes"/>
      <point x="336" y="125" type="line"/>
      <point x="307" y="0" type="line"/>
    </contour>
  </outline>
</glyph>
<glyph name="Tshecyr" format="2">
  <advance width="852"/>
  <unicode hex="040B"/>
  <guideline x="566" y="683" angle="90" identifier="juO2xYoEN4"/>
  <outline>
    <contour>
      <point x="591" y="420" type="curve" smooth="yes"/>
      <point x="527" y="420"/>
      <point x="469" y="411"/>
      <point x="440" y="396" type="curve"/>
      <point x="409" y="263" type="line"/>
      <point x="438" y="279"/>
      <point x="464" y="286"/>
      <point x="496" y="286" type="curve" smooth="yes"/>
      <point x="547" y="286"/>
      <point x="554" y="262"/>
      <point x="540" y="207" type="curve" smooth="yes"/>
      <point x="488" y="0" type="line"/>
      <point x="749" y="0" type="line"/>
      <point x="778" y="125" type="line"/>
      <point x="772" y="125" type="line" smooth="yes"/>
      <point x="753" y="125"/>
      <point x="744" y="129"/>
      <point x="752" y="161" type="curve" smooth="yes"/>
      <point x="765" y="211" type="line" smooth="yes"/>
      <point x="805" y="365"/>
      <point x="729" y="420"/>
    </contour>
    <contour>
      <point x="189" y="161" type="line" smooth="yes"/>
      <point x="182" y="132"/>
      <point x="163" y="125"/>
      <point x="142" y="125" type="curve" smooth="yes"/>
      <point x="128" y="125" type="line"/>
      <point x="99" y="0" type="line"/>
      <point x="431" y="0" type="line"/>
      <point x="460" y="125" type="line"/>
      <point x="438" y="125" type="line" smooth="yes"/>
      <point x="418" y="125"/>
      <point x="408" y="128"/>
      <point x="410" y="135" type="curve" smooth="yes"/>
      <point x="528" y="584" type="line"/>
      <point x="543" y="584" type="line" smooth="yes"/>
      <point x="586" y="584"/>
      <point x="595" y="567"/>
      <point x="588" y="531" type="curve" smooth="yes"/>
      <point x="577" y="477" type="line"/>
      <point x="708" y="477" type="line"/>
      <point x="767" y="710" type="line"/>
      <point x="127" y="710" type="line"/>
      <point x="56" y="427" type="line"/>
      <point x="184" y="427" type="line"/>
      <point x="224" y="529" type="line" smooth="yes"/>
      <point x="239" y="567"/>
      <point x="256" y="584"/>
      <point x="297" y="584" type="curve" smooth="yes"/>
      <point x="300" y="584" type="line"/>
    </contour>
  </outline>
</glyph>
<glyph name="Dzhecyr" format="2">
  <advance width="700"/>
  <unicode hex="040F"/>
  <outline>
    <contour>
      <point x="37" y="0" type="line"/>
      <point x="121" y="0" type="line" smooth="yes"/>
      <point x="176" y="0"/>
      <point x="196" y="-8"/>
      <point x="187" y="-56" type="curve" smooth="yes"/>
      <point x="164" y="-179" type="line"/>
      <point x="296" y="-179" type="line"/>
      <point x="339" y="-56" type="line" smooth="yes"/>
      <point x="356" y="-6"/>
      <point x="383" y="0"/>
      <point x="455" y="0" type="curve" smooth="yes"/>
      <point x="489" y="0" type="line"/>
      <point x="520" y="124" type="line"/>
      <point x="68" y="124" type="line"/>
    </contour>
    <contour>
      <point x="-48" y="0" type="line"/>
      <point x="222" y="0" type="line"/>
      <point x="369" y="575" type="line" smooth="yes"/>
      <point x="371" y="582"/>
      <point x="383" y="585"/>
      <point x="396" y="585" type="curve" smooth="yes"/>
      <point x="405" y="585" type="line"/>
      <point x="434" y="710" type="line"/>
      <point x="130" y="710" type="line"/>
      <point x="101" y="585" type="line"/>
      <point x="111" y="585" type="line" smooth="yes"/>
      <point x="135" y="585"/>
      <point x="142" y="580"/>
      <point x="134" y="549" type="curve" smooth="yes"/>
      <point x="32" y="161" type="line" smooth="yes"/>
      <point x="25" y="131"/>
      <point x="10" y="125"/>
      <point x="-10" y="125" type="curve" smooth="yes"/>
      <point x="-19" y="125" type="line"/>
    </contour>
    <contour>
      <point x="594" y="0" type="line"/>
      <point x="623" y="125" type="line"/>
      <point x="616" y="125" type="line" smooth="yes"/>
      <point x="602" y="125"/>
      <point x="591" y="133"/>
      <point x="598" y="161" type="curve" smooth="yes"/>
      <point x="701" y="549" type="line" smooth="yes"/>
      <point x="709" y="580"/>
      <point x="721" y="585"/>
      <point x="737" y="585" type="curve" smooth="yes"/>
      <point x="743" y="585" type="line"/>
      <point x="772" y="710" type="line"/>
      <point x="476" y="710" type="line"/>
      <point x="447" y="585" type="line"/>
      <point x="461" y="585" type="line" smooth="yes"/>
      <point x="475" y="585"/>
      <point x="481" y="582"/>
      <point x="479" y="575" type="curve" smooth="yes"/>
      <point x="333" y="0" type="line"/>
    </contour>
  </outline>
</glyph>
<glyph name="Becyr" format="2">
  <advance width="653"/>
  <unicode hex="0411"/>
  <outline>
    <contour>
      <point x="667" y="710" type="line"/>
      <point x="130" y="710" type="line"/>
      <point x="101" y="585" type="line"/>
      <point x="111" y="585" type="line" smooth="yes"/>
      <point x="135" y="585"/>
      <point x="142" y="580"/>
      <point x="134" y="549" type="curve" smooth="yes"/>
      <point x="32" y="161" type="line" smooth="yes"/>
      <point x="26" y="135"/>
      <point x="14" y="125"/>
      <point x="-8" y="125" type="curve" smooth="yes"/>
      <point x="-19" y="125" type="line"/>
      <point x="-48" y="0" type="line"/>
      <point x="318" y="0" type="line" smooth="yes"/>
      <point x="517" y="0"/>
      <point x="615" y="94"/>
      <point x="615" y="231" type="curve" smooth="yes"/>
      <point x="615" y="355"/>
      <point x="529" y="422"/>
      <point x="360" y="422" type="curve" smooth="yes"/>
      <point x="206" y="422" type="line"/>
      <point x="174" y="298" type="line"/>
      <point x="315" y="298" type="line" smooth="yes"/>
      <point x="376" y="298"/>
      <point x="398" y="271"/>
      <point x="398" y="230" type="curve" smooth="yes"/>
      <point x="398" y="179"/>
      <point x="367" y="124"/>
      <point x="296" y="124" type="curve" smooth="yes"/>
      <point x="250" y="124" type="line"/>
      <point x="372" y="584" type="line"/>
      <point x="452" y="584" type="line" smooth="yes"/>
      <point x="487" y="584"/>
      <point x="492" y="574"/>
      <point x="491" y="542" type="curve" smooth="yes"/>
      <point x="491" y="511" type="line"/>
      <point x="624" y="511" type="line"/>
    </contour>
  </outline>
</glyph>
<glyph name="Gecyr" format="2">
  <advance width="587"/>
  <unicode hex="0413"/>
  <outline>
    <contour>
      <point x="-48" y="0" type="line"/>
      <point x="285" y="0" type="line"/>
      <point x="314" y="125" type="line"/>
      <point x="297" y="125" type="line" smooth="yes"/>
      <point x="267" y="125"/>
      <point x="253" y="131"/>
      <point x="261" y="161" type="curve" smooth="yes"/>
      <point x="372" y="584" type="line"/>
      <point x="422" y="584" type="line" smooth="yes"/>
      <point x="465.125" y="584"/>
      <point x="475.5215047113" y="568.181448321"/>
      <point x="467" y="526" type="curve" smooth="yes"/>
      <point x="447" y="427" type="line"/>
      <point x="576" y="427" type="line"/>
      <point x="647" y="710" type="line"/>
      <point x="130" y="710" type="line"/>
      <point x="101" y="585" type="line"/>
      <point x="111" y="585" type="line" smooth="yes"/>
      <point x="135" y="585"/>
      <point x="142" y="580"/>
      <point x="134" y="549" type="curve" smooth="yes"/>
      <point x="32" y="161" type="line" smooth="yes"/>
      <point x="25" y="131"/>
      <point x="9" y="125"/>
      <point x="-10" y="125" type="curve" smooth="yes"/>
      <point x="-19" y="125" type="line"/>
    </contour>
  </outline>
</glyph>
<glyph name="Icyr" format="2">
  <advance width="722"/>
  <unicode hex="0418"/>
  <guideline x="739" y="930" angle="90" identifier="jpSOnFR6u4"/>
  <outline>
    <contour>
      <point x="159" y="234" type="line"/>
      <point x="212" y="142" type="line"/>
      <point x="594" y="468" type="line"/>
      <point x="541" y="560" type="line"/>
    </contour>
    <contour>
      <point x="-48" y="0" type="line"/>
      <point x="262" y="0" type="line"/>
      <point x="291" y="125" type="line"/>
      <point x="284" y="125" type="line" smooth="yes"/>
      <point x="270" y="125"/>
      <point x="251" y="128"/>
      <point x="253" y="135" type="curve" smooth="yes"/>
      <point x="369" y="575" type="line" smooth="yes"/>
      <point x="371" y="582"/>
      <point x="388" y="585"/>
      <point x="402" y="585" type="curve" smooth="yes"/>
      <point x="408" y="585" type="line"/>
      <point x="437" y="710" type="line"/>
      <point x="130" y="710" type="line"/>
      <point x="101" y="585" type="line"/>
      <point x="111" y="585" type="line" smooth="yes"/>
      <point x="135" y="585"/>
      <point x="142" y="580"/>
      <point x="134" y="549" type="curve" smooth="yes"/>
      <point x="32" y="161" type="line" smooth="yes"/>
      <point x="25" y="131"/>
      <point x="10" y="125"/>
      <point x="-10" y="125" type="curve" smooth="yes"/>
      <point x="-19" y="125" type="line"/>
    </contour>
    <contour>
      <point x="318" y="0" type="line"/>
      <point x="616" y="0" type="line"/>
      <point x="645" y="125" type="line"/>
      <point x="638" y="125" type="line" smooth="yes"/>
      <point x="624" y="125"/>
      <point x="611" y="128"/>
      <point x="619" y="162" type="curve" smooth="yes"/>
      <point x="723" y="548" type="line" smooth="yes"/>
      <point x="731" y="582"/>
      <point x="745" y="585"/>
      <point x="759" y="585" type="curve" smooth="yes"/>
      <point x="765" y="585" type="line"/>
      <point x="794" y="710" type="line"/>
      <point x="493" y="710" type="line"/>
      <point x="464" y="585" type="line"/>
      <point x="474" y="585" type="line" smooth="yes"/>
      <point x="492" y="585"/>
      <point x="502" y="582"/>
      <point x="500" y="575" type="curve" smooth="yes"/>
      <point x="386" y="135" type="line" smooth="yes"/>
      <point x="384" y="128"/>
      <point x="376" y="125"/>
      <point x="356" y="125" type="curve" smooth="yes"/>
      <point x="347" y="125" type="line"/>
    </contour>
  </outline>
</glyph>
<glyph name="Pecyr" format="2">
  <advance width="700"/>
  <unicode hex="041F"/>
  <outline>
    <contour>
      <point x="267" y="710" type="line"/>
      <point x="237" y="586" type="line"/>
      <point x="664" y="586" type="line"/>
      <point x="694" y="710" type="line"/>
    </contour>
    <contour>
      <point x="-48" y="0" type="line"/>
      <point x="256" y="0" type="line"/>
      <point x="285" y="125" type="line"/>
      <point x="276" y="125" type="line" smooth="yes"/>
      <point x="263" y="125"/>
      <point x="251" y="128"/>
      <point x="253" y="135" type="curve" smooth="yes"/>
      <point x="400" y="710" type="line"/>
      <point x="130" y="710" type="line"/>
      <point x="101" y="585" type="line"/>
      <point x="111" y="585" type="line" smooth="yes"/>
      <point x="135" y="585"/>
      <point x="142" y="580"/>
      <point x="134" y="549" type="curve" smooth="yes"/>
      <point x="32" y="161" type="line" smooth="yes"/>
      <point x="25" y="131"/>
      <point x="10" y="125"/>
      <point x="-10" y="125" type="curve" smooth="yes"/>
      <point x="-19" y="125" type="line"/>
    </contour>
    <contour>
      <point x="296" y="0" type="line"/>
      <point x="594" y="0" type="line"/>
      <point x="623" y="125" type="line"/>
      <point x="616" y="125" type="line" smooth="yes"/>
      <point x="602" y="125"/>
      <point x="589" y="128"/>
      <point x="597" y="161" type="curve" smooth="yes"/>
      <point x="701" y="549" type="line" smooth="yes"/>
      <point x="709" y="582"/>
      <point x="723" y="585"/>
      <point x="737" y="585" type="curve" smooth="yes"/>
      <point x="743" y="585" type="line"/>
      <point x="772" y="710" type="line"/>
      <point x="509" y="710" type="line"/>
      <point x="364" y="135" type="line" smooth="yes"/>
      <point x="362" y="128"/>
      <point x="351" y="125"/>
      <point x="336" y="125" type="curve" smooth="yes"/>
      <point x="325" y="125" type="line"/>
    </contour>
  </outline>
</glyph>
<glyph name="Ucyr" format="2">
  <advance width="640"/>
  <unicode hex="0423"/>
  <outline>
    <contour>
      <point x="348" y="142" type="curve" smooth="yes"/>
      <point x="637" y="550" type="line" smooth="yes"/>
      <point x="654" y="575"/>
      <point x="668" y="585"/>
      <point x="686" y="585" type="curve" smooth="yes"/>
      <point x="691" y="585" type="line"/>
      <point x="719" y="710" type="line"/>
      <point x="517" y="710" type="line"/>
      <point x="489" y="585" type="line"/>
      <point x="494" y="585" type="line" smooth="yes"/>
      <point x="498" y="585"/>
      <point x="508" y="583"/>
      <point x="506" y="575" type="curve"/>
      <point x="251" y="215" type="line" smooth="yes"/>
      <point x="215" y="164"/>
      <point x="184" y="160"/>
      <point x="151" y="160" type="curve" smooth="yes"/>
      <point x="115" y="160"/>
      <point x="92" y="174"/>
      <point x="83" y="180" type="curve"/>
      <point x="38" y="0" type="line"/>
      <point x="54" y="-8"/>
      <point x="84" y="-17"/>
      <point x="118" y="-17" type="curve" smooth="yes"/>
      <point x="217" y="-17"/>
      <point x="259" y="20"/>
    </contour>
    <contour>
      <point x="438" y="324" type="line"/>
      <point x="365" y="574" type="line"/>
      <point x="365" y="583"/>
      <point x="382" y="585"/>
      <point x="412" y="585" type="curve" smooth="yes"/>
      <point x="417" y="585" type="line"/>
      <point x="445" y="710" type="line"/>
      <point x="123" y="710" type="line"/>
      <point x="95" y="585" type="line"/>
      <point x="98" y="585" type="line" smooth="yes"/>
      <point x="108" y="585"/>
      <point x="117" y="582"/>
      <point x="127" y="549" type="curve" smooth="yes"/>
      <point x="267" y="126" type="line"/>
    </contour>
  </outline>
</glyph>
<glyph name="Efcyr" format="2">
  <advance width="855"/>
  <unicode hex="0424"/>
  <outline>
    <contour>
      <point x="272" y="137" type="line" smooth="yes"/>
      <point x="266" y="112"/>
      <point x="250" y="101"/>
      <point x="225" y="101" type="curve" smooth="yes"/>
      <point x="213" y="101" type="line"/>
      <point x="185" y="-20" type="line"/>
      <point x="513" y="-20" type="line"/>
      <point x="541" y="101" type="line"/>
      <point x="523" y="101" type="line" smooth="yes"/>
      <point x="495" y="101"/>
      <point x="495" y="118"/>
      <point x="500" y="137" type="curve" smooth="yes"/>
      <point x="613" y="569" type="line" smooth="yes"/>
      <point x="621" y="603"/>
      <point x="641" y="610"/>
      <point x="661" y="610" type="curve" smooth="yes"/>
      <point x="673" y="610" type="line"/>
      <point x="701" y="730" type="line"/>
      <point x="373" y="730" type="line"/>
      <point x="345" y="610" type="line"/>
      <point x="362" y="610" type="line" smooth="yes"/>
      <point x="384" y="610"/>
      <point x="393" y="601"/>
      <point x="387" y="578" type="curve" smooth="yes"/>
    </contour>
    <contour>
      <point x="431" y="567" type="line"/>
      <point x="191" y="567"/>
      <point x="21" y="502"/>
      <point x="21" y="330" type="curve" smooth="yes"/>
      <point x="21" y="188"/>
      <point x="157" y="143"/>
      <point x="329" y="143" type="curve"/>
      <point x="355" y="267" type="line"/>
      <point x="269" y="267"/>
      <point x="238" y="301"/>
      <point x="238" y="344" type="curve" smooth="yes"/>
      <point x="238" y="407"/>
      <point x="299" y="443"/>
      <point x="405" y="443" type="curve"/>
    </contour>
    <contour>
      <point x="463" y="143" type="line"/>
      <point x="701" y="143"/>
      <point x="869" y="213"/>
      <point x="869" y="390" type="curve" smooth="yes"/>
      <point x="869" y="525"/>
      <point x="740" y="567"/>
      <point x="575" y="567" type="curve"/>
      <point x="547" y="439" type="line"/>
      <point x="625" y="439"/>
      <point x="653" y="420"/>
      <point x="653" y="376" type="curve" smooth="yes"/>
      <point x="653" y="300"/>
      <point x="595" y="267"/>
      <point x="489" y="267" type="curve"/>
    </contour>
  </outline>
</glyph>
<glyph name="Tsecyr" format="2">
  <advance width="720"/>
  <unicode hex="0426"/>
  <outline>
    <contour>
      <point x="401" y="0" type="line" smooth="yes"/>
      <point x="472" y="0"/>
      <point x="476" y="-19"/>
      <point x="470" y="-53" type="curve" smooth="yes"/>
      <point x="449" y="-179" type="line"/>
      <point x="582" y="-179" type="line"/>
      <point x="655" y="124" type="line"/>
      <point x="410" y="124" type="line"/>
      <point x="380" y="0" type="line"/>
    </contour>
    <contour>
      <point x="389" y="0" type="line"/>
      <point x="419" y="124" type="line"/>
      <point x="173" y="124" type="line"/>
      <point x="143" y="0" type="line"/>
    </contour>
    <contour>
      <point x="-48" y="0" type="line"/>
      <point x="222" y="0" type="line"/>
      <point x="369" y="575" type="line" smooth="yes"/>
      <point x="371" y="582"/>
      <point x="383" y="585"/>
      <point x="396" y="585" type="curve" smooth="yes"/>
      <point x="405" y="585" type="line"/>
      <point x="434" y="710" type="line"/>
      <point x="130" y="710" type="line"/>
      <point x="101" y="585" type="line"/>
      <point x="111" y="585" type="line" smooth="yes"/>
      <point x="135" y="585"/>
      <point x="142" y="580"/>
      <point x="134" y="549" type="curve" smooth="yes"/>
      <point x="32" y="161" type="line" smooth="yes"/>
      <point x="25" y="131"/>
      <point x="10" y="125"/>
      <point x="-10" y="125" type="curve" smooth="yes"/>
      <point x="-19" y="125" type="line"/>
    </contour>
    <contour>
      <point x="560" y="0" type="line"/>
      <point x="701" y="549" type="line" smooth="yes"/>
      <point x="709" y="580"/>
      <point x="721" y="585"/>
      <point x="737" y="585" type="curve" smooth="yes"/>
      <point x="743" y="585" type="line"/>
      <point x="772" y="710" type="line"/>
      <point x="477" y="710" type="line"/>
      <point x="448" y="585" type="line"/>
      <point x="461" y="585" type="line" smooth="yes"/>
      <point x="475" y="585"/>
      <point x="481" y="582"/>
      <point x="479" y="575" type="curve" smooth="yes"/>
      <point x="333" y="0" type="line"/>
    </contour>
  </outline>
</glyph>
<glyph name="Checyr" format="2">
  <advance width="696"/>
  <unicode hex="0427"/>
  <guideline x="1127.067477019" y="741" angle="90" identifier="nfCxFSb4p1"/>
  <guideline x="1127.067477019" y="741" angle="90" identifier="2XVA9XPjvS"/>
  <outline>
    <contour>
      <point x="106.067477019" y="459" type="line" smooth="yes"/>
      <point x="66.067477019" y="320"/>
      <point x="124.067477019" y="249"/>
      <point x="262.067477019" y="249" type="curve" smooth="yes"/>
      <point x="342.067477019" y="249"/>
      <point x="387.067477019" y="260"/>
      <point x="427.067477019" y="278" type="curve"/>
      <point x="456.067477019" y="399" type="line"/>
      <point x="429.067477019" y="387"/>
      <point x="411.067477019" y="384"/>
      <point x="388.067477019" y="384" type="curve" smooth="yes"/>
      <point x="342.067477019" y="384"/>
      <point x="320.067477019" y="398"/>
      <point x="335.067477019" y="454" type="curve" smooth="yes"/>
      <point x="367.067477019" y="575" type="line" smooth="yes"/>
      <point x="369.067477019" y="583"/>
      <point x="383.067477019" y="585"/>
      <point x="395.067477019" y="585" type="curve" smooth="yes"/>
      <point x="401.067477019" y="585" type="line"/>
      <point x="430.067477019" y="710" type="line"/>
      <point x="128.067477019" y="710" type="line"/>
      <point x="99.067477019" y="585" type="line"/>
      <point x="108.067477019" y="585" type="line" smooth="yes"/>
      <point x="134.067477019" y="585"/>
      <point x="140.067477019" y="581"/>
      <point x="132.067477019" y="549" type="curve" smooth="yes"/>
    </contour>
    <contour>
      <point x="290.067477019" y="0" type="line"/>
      <point x="594.067477019" y="0" type="line"/>
      <point x="623.067477019" y="125" type="line"/>
      <point x="617.067477019" y="125" type="line" smooth="yes"/>
      <point x="601.067477019" y="125"/>
      <point x="590.067477019" y="130"/>
      <point x="598.067477019" y="161" type="curve" smooth="yes"/>
      <point x="700.067477019" y="549" type="line" smooth="yes"/>
      <point x="707.067477019" y="578"/>
      <point x="718.067477019" y="585"/>
      <point x="736.067477019" y="585" type="curve" smooth="yes"/>
      <point x="743.067477019" y="585" type="line"/>
      <point x="772.067477019" y="710" type="line"/>
      <point x="476.067477019" y="710" type="line"/>
      <point x="447.067477019" y="585" type="line"/>
      <point x="455.067477019" y="585" type="line" smooth="yes"/>
      <point x="465.067477019" y="585"/>
      <point x="481.067477019" y="584"/>
      <point x="479.067477019" y="576" type="curve" smooth="yes"/>
      <point x="362.067477019" y="133" type="line" smooth="yes"/>
      <point x="360.067477019" y="126"/>
      <point x="343.067477019" y="125"/>
      <point x="327.067477019" y="125" type="curve" smooth="yes"/>
      <point x="319.067477019" y="125" type="line"/>
    </contour>
  </outline>
</glyph>
<glyph name="Hardcyr" format="2">
  <advance width="790"/>
  <unicode hex="042A"/>
  <outline>
    <contour>
      <point x="291" y="584" type="line"/>
      <point x="180" y="161" type="line" smooth="yes"/>
      <point x="174" y="135"/>
      <point x="162" y="125"/>
      <point x="140" y="125" type="curve" smooth="yes"/>
      <point x="129" y="125" type="line"/>
      <point x="100" y="0" type="line"/>
      <point x="466" y="0" type="line" smooth="yes"/>
      <point x="655" y="0"/>
      <point x="763" y="104"/>
      <point x="763" y="256" type="curve" smooth="yes"/>
      <point x="763" y="386"/>
      <point x="668" y="458"/>
      <point x="511" y="458" type="curve" smooth="yes"/>
      <point x="357" y="458" type="line"/>
      <point x="328" y="334" type="line"/>
      <point x="476" y="334" type="line" smooth="yes"/>
      <point x="528" y="334"/>
      <point x="546" y="309"/>
      <point x="546" y="263" type="curve" smooth="yes"/>
      <point x="546" y="192"/>
      <point x="512" y="124"/>
      <point x="444" y="124" type="curve" smooth="yes"/>
      <point x="398" y="124" type="line"/>
      <point x="517" y="575" type="line" smooth="yes"/>
      <point x="519" y="582"/>
      <point x="533" y="585"/>
      <point x="545" y="585" type="curve" smooth="yes"/>
      <point x="553" y="585" type="line"/>
      <point x="582" y="710" type="line"/>
      <point x="127" y="710" type="line"/>
      <point x="56" y="427" type="line"/>
      <point x="185" y="427" type="line"/>
      <point x="225" y="531" type="line" smooth="yes"/>
      <point x="239" y="567"/>
      <point x="247" y="584"/>
      <point x="287" y="584" type="curve" smooth="yes"/>
    </contour>
  </outline>
</glyph>
<glyph name="Ylongcyr" format="2">
  <advance width="972"/>
  <unicode hex="042B"/>
  <outline>
    <contour>
      <point x="569" y="0" type="line"/>
      <point x="866" y="0" type="line"/>
      <point x="895" y="125" type="line"/>
      <point x="888" y="125" type="line" smooth="yes"/>
      <point x="874" y="125"/>
      <point x="861" y="128"/>
      <point x="870" y="162" type="curve" smooth="yes"/>
      <point x="973" y="549" type="line" smooth="yes"/>
      <point x="981" y="582"/>
      <point x="995" y="585"/>
      <point x="1009" y="585" type="curve" smooth="yes"/>
      <point x="1015" y="585" type="line"/>
      <point x="1044" y="710" type="line"/>
      <point x="740" y="710" type="line"/>
      <point x="711" y="585" type="line"/>
      <point x="721" y="585" type="line" smooth="yes"/>
      <point x="735" y="585"/>
      <point x="753" y="582"/>
      <point x="751" y="575" type="curve" smooth="yes"/>
      <point x="636" y="135" type="line" smooth="yes"/>
      <point x="634" y="128"/>
      <point x="627" y="125"/>
      <point x="607" y="125" type="curve" smooth="yes"/>
      <point x="598" y="125" type="line"/>
    </contour>
    <component base="Softcyr"/>
  </outline>
</glyph>
<glyph name="Yucyr" format="2">
  <advance width="1035"/>
  <unicode hex="042E"/>
  <outline>
    <contour>
      <point x="191" y="427" type="line"/>
      <point x="170" y="303" type="line"/>
      <point x="520" y="303" type="line"/>
      <point x="541" y="427" type="line"/>
    </contour>
    <contour>
      <point x="-48" y="0" type="line"/>
      <point x="256" y="0" type="line"/>
      <point x="285" y="125" type="line"/>
      <point x="278" y="125" type="line" smooth="yes"/>
      <point x="264" y="125"/>
      <point x="251" y="128"/>
      <point x="253" y="135" type="curve" smooth="yes"/>
      <point x="369" y="575" type="line" smooth="yes"/>
      <point x="371" y="582"/>
      <point x="385" y="585"/>
      <point x="399" y="585" type="curve" smooth="yes"/>
      <point x="405" y="585" type="line"/>
      <point x="434" y="710" type="line"/>
      <point x="130" y="710" type="line"/>
      <point x="101" y="585" type="line"/>
      <point x="111" y="585" type="line" smooth="yes"/>
      <point x="135" y="585"/>
      <point x="142" y="580"/>
      <point x="134" y="549" type="curve" smooth="yes"/>
      <point x="32" y="161" type="line" smooth="yes"/>
      <point x="25" y="131"/>
      <point x="10" y="125"/>
      <point x="-10" y="125" type="curve" smooth="yes"/>
      <point x="-19" y="125" type="line"/>
    </contour>
    <contour>
      <point x="639" y="-25" type="curve" smooth="yes"/>
      <point x="917" y="-25"/>
      <point x="1026" y="256"/>
      <point x="1026" y="472" type="curve" smooth="yes"/>
      <point x="1026" y="627"/>
      <point x="925" y="735"/>
      <point x="759" y="735" type="curve" smooth="yes"/>
      <point x="481" y="735"/>
      <point x="372" y="454"/>
      <point x="372" y="238" type="curve" smooth="yes"/>
      <point x="372" y="83"/>
      <point x="473" y="-25"/>
    </contour>
    <contour>
      <point x="752" y="605" type="curve" smooth="yes"/>
      <point x="784" y="605"/>
      <point x="806" y="584"/>
      <point x="806" y="539" type="curve" smooth="yes"/>
      <point x="806" y="508"/>
      <point x="801" y="443"/>
      <point x="778" y="343" type="curve" smooth="yes"/>
      <point x="743" y="212"/>
      <point x="710" y="105"/>
      <point x="646" y="105" type="curve" smooth="yes"/>
      <point x="614" y="105"/>
      <point x="591" y="131"/>
      <point x="591" y="172" type="curve" smooth="yes"/>
      <point x="591" y="208"/>
      <point x="596" y="263"/>
      <point x="620" y="367" type="curve" smooth="yes"/>
      <point x="654" y="493"/>
      <point x="688" y="605"/>
    </contour>
  </outline>
</glyph>
<glyph name="Yacyr" format="2">
  <advance width="704"/>
  <unicode hex="042F"/>
  <outline>
    <contour>
      <point x="396" y="321" type="line"/>
      <point x="199" y="399" type="line"/>
      <point x="54" y="180" type="line" smooth="yes"/>
      <point x="22" y="131"/>
      <point x="-7" y="125"/>
      <point x="-29" y="125" type="curve" smooth="yes"/>
      <point x="-38" y="125" type="line"/>
      <point x="-67" y="0" type="line"/>
      <point x="186" y="0" type="line"/>
    </contour>
    <contour>
      <point x="417" y="710" type="line" smooth="yes"/>
      <point x="200" y="710"/>
      <point x="105" y="618"/>
      <point x="105" y="477" type="curve" smooth="yes"/>
      <point x="105" y="399"/>
      <point x="147" y="332"/>
      <point x="213" y="311" type="curve"/>
      <point x="257" y="272" type="line"/>
      <point x="278" y="268"/>
      <point x="300" y="265"/>
      <point x="324" y="265" type="curve" smooth="yes"/>
      <point x="452" y="265" type="line"/>
      <point x="479" y="389" type="line"/>
      <point x="419" y="389" type="line" smooth="yes"/>
      <point x="358" y="389"/>
      <point x="337" y="421"/>
      <point x="337" y="462" type="curve" smooth="yes"/>
      <point x="337" y="536"/>
      <point x="380" y="586"/>
      <point x="460" y="586" type="curve" smooth="yes"/>
      <point x="486" y="586" type="line"/>
      <point x="368" y="133" type="line" smooth="yes"/>
      <point x="366" y="126"/>
      <point x="342" y="125"/>
      <point x="332" y="125" type="curve" smooth="yes"/>
      <point x="323" y="125" type="line"/>
      <point x="294" y="0" type="line"/>
      <point x="598" y="0" type="line"/>
      <point x="627" y="125" type="line"/>
      <point x="616" y="125" type="line" smooth="yes"/>
      <point x="606" y="125"/>
      <point x="593" y="130"/>
      <point x="601" y="161" type="curve" smooth="yes"/>
      <point x="704" y="549" type="line" smooth="yes"/>
      <point x="711" y="575"/>
      <point x="720" y="585"/>
      <point x="741" y="585" type="curve" smooth="yes"/>
      <point x="747" y="585" type="line"/>
      <point x="776" y="710" type="line"/>
    </contour>
  </outline>
</glyph>
<glyph name="gecyr" format="2">
  <advance width="540"/>
  <unicode hex="0433"/>
  <outline>
    <contour>
      <point x="186" y="142" type="curve" smooth="yes"/>
      <point x="186" y="110.1111111111"/>
      <point x="216" y="101"/>
      <point x="261" y="101" type="curve" smooth="yes"/>
      <point x="288" y="101"/>
      <point x="339" y="110"/>
      <point x="349" y="118" type="curve"/>
      <point x="352.0393413688" y="107.8688621042"/>
      <point x="344.1276952606" y="68.0705684335"/>
      <point x="306" y="47" type="curve"/>
      <point x="343" y="174" type="line"/>
      <point x="492" y="174" type="line"/>
      <point x="457" y="34" type="line"/>
      <point x="405" y="4"/>
      <point x="321" y="-12"/>
      <point x="255" y="-12" type="curve" smooth="yes"/>
      <point x="102" y="-12"/>
      <point x="20" y="51"/>
      <point x="20" y="161" type="curve" smooth="yes"/>
      <point x="20" y="257"/>
      <point x="71" y="324"/>
      <point x="226" y="364" type="curve" smooth="yes"/>
      <point x="314" y="386"/>
      <point x="364" y="398"/>
      <point x="364" y="437" type="curve" smooth="yes"/>
      <point x="364" y="469"/>
      <point x="335.6363636364" y="477"/>
      <point x="299" y="477" type="curve" smooth="yes"/>
      <point x="264.6428571429" y="477"/>
      <point x="244.4687390373" y="472.2960457078"/>
      <point x="225" y="460" type="curve"/>
      <point x="223.4184675824" y="477.3968565941"/>
      <point x="228.6972997311" y="490.9228500122"/>
      <point x="249" y="490" type="curve"/>
      <point x="229" y="416" type="line"/>
      <point x="83" y="416" type="line"/>
      <point x="117" y="542" type="line"/>
      <point x="161" y="565"/>
      <point x="228" y="582"/>
      <point x="306" y="582" type="curve" smooth="yes"/>
      <point x="451" y="582"/>
      <point x="516" y="522"/>
      <point x="516" y="420" type="curve" smooth="yes"/>
      <point x="516" y="317"/>
      <point x="462" y="260"/>
      <point x="330" y="224" type="curve" smooth="yes"/>
      <point x="211.3397147035" y="192.091351853"/>
      <point x="186" y="168.3908045977"/>
    </contour>
  </outline>
</glyph>
<glyph name="zhecyr" format="2">
  <advance width="1016"/>
  <unicode hex="0436"/>
  <guideline x="241" y="553" angle="90" identifier="iJ3VaKODEI"/>
  <guideline x="241" y="553" angle="90" identifier="CdtU5zqGdb"/>
  <outline>
    <contour>
      <point x="883" y="151" type="line" smooth="yes"/>
      <point x="890" y="116"/>
      <point x="908" y="112"/>
      <point x="930" y="112" type="curve" smooth="yes"/>
      <point x="941" y="112"/>
      <point x="949" y="112"/>
      <point x="956" y="112" type="curve"/>
      <point x="932" y="0" type="line"/>
      <point x="878" y="0"/>
      <point x="825" y="0"/>
      <point x="771" y="0" type="curve" smooth="yes"/>
      <point x="720" y="0"/>
      <point x="702" y="10"/>
      <point x="694" y="59" type="curve" smooth="yes"/>
      <point x="656" y="278" type="line"/>
      <point x="666" y="315" type="line"/>
      <point x="728" y="407"/>
      <point x="783" y="485"/>
      <point x="842" y="569" type="curve"/>
      <point x="1070" y="569" type="line"/>
      <point x="1070" y="544" type="line"/>
      <point x="959" y="458"/>
      <point x="876" y="394"/>
      <point x="763" y="305" type="curve"/>
      <point x="829" y="409" type="line"/>
    </contour>
    <contour>
      <point x="354" y="0" type="line" identifier="22iXN25W3i"/>
      <point x="496" y="569" type="line" identifier="jBKTgOEI7e"/>
      <point x="710" y="569" type="line" identifier="YeF5eC2wTz"/>
      <point x="568" y="0" type="line" identifier="Jt9yzE88Oz"/>
    </contour>
    <contour>
      <point x="70" y="150" type="curve" smooth="yes"/>
      <point x="260" y="419" type="line"/>
      <point x="327" y="298" type="line"/>
      <point x="247" y="387"/>
      <point x="186" y="456"/>
      <point x="106" y="544" type="curve"/>
      <point x="106" y="569" type="line"/>
      <point x="364" y="569" type="line"/>
      <point x="380" y="487"/>
      <point x="395" y="407"/>
      <point x="413" y="315" type="curve"/>
      <point x="403" y="278" type="line"/>
      <point x="256" y="59" type="line" smooth="yes"/>
      <point x="222" y="9"/>
      <point x="202" y="0"/>
      <point x="151" y="0" type="curve" smooth="yes"/>
      <point x="87" y="0"/>
      <point x="24" y="0"/>
      <point x="-40" y="0" type="curve"/>
      <point x="-15" y="112" type="line"/>
      <point x="-7" y="112"/>
      <point x="0" y="112"/>
      <point x="8" y="112" type="curve" smooth="yes"/>
      <point x="30" y="112"/>
      <point x="52" y="124"/>
    </contour>
  </outline>
</glyph>
<glyph name="kacyr" format="2">
  <advance width="656"/>
  <unicode hex="043A"/>
  <guideline x="350" y="569" angle="90" identifier="lmgRx0QBdK"/>
  <guideline x="543" y="272" angle="0" identifier="qdHgBDPa7a"/>
  <outline>
    <contour>
      <point x="522" y="155" type="line" smooth="yes" identifier="OrKq204Ukm"/>
      <point x="528" y="129" identifier="SrbOikPisr"/>
      <point x="537" y="112" identifier="JqDGTG4N6X"/>
      <point x="570" y="112" type="curve" smooth="yes" identifier="CfqUKLAWOF"/>
      <point x="581" y="112" identifier="rQtjRSZfYe"/>
      <point x="589" y="112" identifier="oRANyD78E8"/>
      <point x="596" y="112" type="curve" identifier="DsiTqjS1a4"/>
      <point x="572" y="0" type="line" identifier="XU0wPDT43j"/>
      <point x="518" y="0" identifier="4uDsKxaG48"/>
      <point x="465" y="0" identifier="RuEiVchg2b"/>
      <point x="411" y="0" type="curve" smooth="yes" identifier="CiQIyaUsYh"/>
      <point x="360" y="0" identifier="vgo4GDX7Gt"/>
      <point x="342" y="11" identifier="ZkZGlxYZQ3"/>
      <point x="334" y="59" type="curve" smooth="yes" identifier="5W5RISOQnG"/>
      <point x="296" y="278" type="line" identifier="QfrWYJxh65"/>
      <point x="306" y="315" type="line" identifier="pEiAcrm5ik"/>
      <point x="370" y="407" identifier="wpOgpdOUgL"/>
      <point x="424" y="485" identifier="SAwY06OaRj"/>
      <point x="482" y="569" type="curve" identifier="Y23wxsbw9Y"/>
      <point x="710" y="569" type="line" identifier="AVyxpv4CWq"/>
      <point x="710" y="544" type="line" identifier="5uNVMITTO2"/>
      <point x="607" y="464" identifier="FzmmjB3U5Q"/>
      <point x="518" y="395" identifier="pMEOS9kiEq"/>
      <point x="413" y="313" type="curve" identifier="r33tV75480"/>
      <point x="471" y="393" type="line" identifier="ZTC9hCIUEV"/>
    </contour>
    <contour>
      <point x="-6" y="0" type="line" identifier="22iXN25W3i"/>
      <point x="101" y="417" type="line" smooth="yes" identifier="jBKTgOEI7e"/>
      <point x="104" y="430" identifier="5NkM7hifNy"/>
      <point x="98" y="443" identifier="8hL1ZUZCvA"/>
      <point x="83" y="447" type="curve" smooth="yes" identifier="AunwYzOIXx"/>
      <point x="76" y="449" type="line" identifier="wzK1ovxlyu"/>
      <point x="103" y="569" type="line" identifier="zP7aNpU615"/>
      <point x="350" y="569" type="line" identifier="YeF5eC2wTz"/>
      <point x="208" y="0" type="line" identifier="Jt9yzE88Oz"/>
    </contour>
  </outline>
</glyph>
<glyph name="elcyr" format="2">
  <advance width="594"/>
  <unicode hex="043B"/>
  <outline>
    <contour>
      <point x="143" y="315" type="curve" smooth="yes"/>
      <point x="173" y="417" type="line" smooth="yes"/>
      <point x="177" y="430"/>
      <point x="177" y="443"/>
      <point x="165" y="447" type="curve" smooth="yes"/>
      <point x="158" y="449" type="line"/>
      <point x="185" y="569" type="line"/>
      <point x="341" y="569" type="line"/>
      <point x="244" y="238" type="line" smooth="yes"/>
      <point x="186" y="38"/>
      <point x="135" y="-14"/>
      <point x="24" y="-14" type="curve" smooth="yes"/>
      <point x="-3" y="-14"/>
      <point x="-31" y="-10"/>
      <point x="-45" y="-4" type="curve"/>
      <point x="4" y="195" type="line"/>
      <point x="17" y="189"/>
      <point x="34" y="186"/>
      <point x="52" y="186" type="curve" smooth="yes"/>
      <point x="90.0930232558" y="186"/>
      <point x="110.8789004192" y="205.7882614254"/>
    </contour>
    <contour>
      <point x="255" y="445" type="line"/>
      <point x="287" y="569" type="line"/>
      <point x="531" y="569" type="line"/>
      <point x="502" y="445" type="line"/>
    </contour>
    <contour>
      <point x="496" y="135" type="curve" smooth="yes"/>
      <point x="496" y="117.75"/>
      <point x="505.3548387097" y="112"/>
      <point x="525" y="112" type="curve" smooth="yes"/>
      <point x="529.5833333333" y="112"/>
      <point x="533" y="112"/>
      <point x="536" y="112" type="curve"/>
      <point x="511" y="0" type="line"/>
      <point x="469.3333333333" y="0"/>
      <point x="428" y="0"/>
      <point x="394" y="0" type="curve" smooth="yes"/>
      <point x="316.958677686" y="0"/>
      <point x="276" y="23"/>
      <point x="276" y="93" type="curve" smooth="yes"/>
      <point x="276" y="123"/>
      <point x="282.0939716915" y="157.5321278983"/>
      <point x="311" y="272" type="curve" smooth="yes"/>
      <point x="386" y="569" type="line"/>
      <point x="600" y="569" type="line"/>
      <point x="527" y="272" type="line" smooth="yes"/>
      <point x="504.7956697992" y="181.6618346625"/>
      <point x="496" y="151.6060606061"/>
    </contour>
  </outline>
</glyph>
<glyph name="encyr" format="2">
  <advance width="644"/>
  <unicode hex="043D"/>
  <outline>
    <contour>
      <point x="177" y="240" type="line"/>
      <point x="206" y="364" type="line"/>
      <point x="497" y="364" type="line"/>
      <point x="468" y="240" type="line"/>
    </contour>
    <contour>
      <point x="-7" y="0" type="line"/>
      <point x="101" y="417" type="line" smooth="yes"/>
      <point x="104" y="430"/>
      <point x="99" y="443"/>
      <point x="83" y="447" type="curve" smooth="yes"/>
      <point x="76" y="449" type="line"/>
      <point x="103" y="569" type="line"/>
      <point x="351" y="569" type="line"/>
      <point x="208" y="0" type="line"/>
    </contour>
    <contour>
      <point x="546" y="135" type="curve" smooth="yes"/>
      <point x="546" y="118"/>
      <point x="555.0322580645" y="112"/>
      <point x="574" y="112" type="curve" smooth="yes"/>
      <point x="579" y="112"/>
      <point x="583" y="112"/>
      <point x="586" y="112" type="curve"/>
      <point x="561" y="0" type="line"/>
      <point x="519.3333333333" y="0"/>
      <point x="478" y="0"/>
      <point x="441" y="0" type="curve" smooth="yes"/>
      <point x="357" y="0"/>
      <point x="326" y="31"/>
      <point x="326" y="93" type="curve" smooth="yes"/>
      <point x="326" y="123"/>
      <point x="332.0939716915" y="157.5321278983"/>
      <point x="361" y="272" type="curve" smooth="yes"/>
      <point x="436" y="569" type="line"/>
      <point x="650" y="569" type="line"/>
      <point x="577" y="272" type="line" smooth="yes"/>
      <point x="554.7956697992" y="181.6618346625"/>
      <point x="546" y="152"/>
    </contour>
  </outline>
</glyph>
<glyph name="checyr" format="2">
  <advance width="604"/>
  <unicode hex="0447"/>
  <guideline x="855" y="515" angle="90" identifier="GGEFes61Q6"/>
  <outline>
    <contour>
      <point x="278" y="406" type="curve" smooth="yes"/>
      <point x="321" y="569" type="line"/>
      <point x="73" y="569" type="line"/>
      <point x="46" y="449" type="line"/>
      <point x="53" y="447" type="line" smooth="yes"/>
      <point x="70" y="442"/>
      <point x="75" y="431"/>
      <point x="71" y="417" type="curve" smooth="yes"/>
      <point x="53" y="353" type="line" smooth="yes"/>
      <point x="47" y="331"/>
      <point x="43" y="311"/>
      <point x="43" y="291" type="curve" smooth="yes"/>
      <point x="43" y="237"/>
      <point x="84" y="201"/>
      <point x="160" y="201" type="curve" smooth="yes"/>
      <point x="247" y="201"/>
      <point x="319" y="243"/>
      <point x="365" y="325" type="curve"/>
      <point x="361" y="369" type="line"/>
      <point x="335" y="344"/>
      <point x="321" y="338"/>
      <point x="300" y="338" type="curve" smooth="yes"/>
      <point x="280" y="338"/>
      <point x="271" y="347"/>
      <point x="271" y="363" type="curve" smooth="yes"/>
      <point x="271" y="376"/>
      <point x="274" y="388"/>
    </contour>
    <contour>
      <point x="506" y="134" type="curve" smooth="yes"/>
      <point x="506" y="151"/>
      <point x="514.6465083314" y="181.0549722525"/>
      <point x="537" y="272" type="curve" smooth="yes"/>
      <point x="610" y="569" type="line"/>
      <point x="396" y="569" type="line"/>
      <point x="321" y="272" type="line" smooth="yes"/>
      <point x="292.3324090201" y="158.4763397195"/>
      <point x="286" y="124"/>
      <point x="286" y="93" type="curve" smooth="yes"/>
      <point x="286" y="33"/>
      <point x="317" y="0"/>
      <point x="396" y="0" type="curve" smooth="yes"/>
      <point x="438" y="0"/>
      <point x="479.3333333333" y="0"/>
      <point x="521" y="0" type="curve"/>
      <point x="546" y="112" type="line"/>
      <point x="543" y="112"/>
      <point x="539" y="112"/>
      <point x="534" y="112" type="curve" smooth="yes"/>
      <point x="515.0322580645" y="112"/>
      <point x="506" y="118"/>
    </contour>
  </outline>
</glyph>
<glyph name="shacyr" format="2">
  <advance width="943"/>
  <unicode hex="0448"/>
  <outline>
    <contour>
      <point x="257" y="219" type="curve" smooth="yes"/>
      <point x="347" y="569" type="line"/>
      <point x="100" y="569" type="line"/>
      <point x="73" y="449" type="line"/>
      <point x="80" y="447" type="line" smooth="yes"/>
      <point x="95" y="443"/>
      <point x="101" y="431"/>
      <point x="98" y="418" type="curve" smooth="yes"/>
      <point x="35" y="175" type="line" smooth="yes"/>
      <point x="26" y="142"/>
      <point x="22" y="108"/>
      <point x="22" y="79" type="curve" smooth="yes"/>
      <point x="22" y="25"/>
      <point x="58" y="-11"/>
      <point x="125" y="-11" type="curve" smooth="yes"/>
      <point x="227" y="-11"/>
      <point x="297" y="59"/>
      <point x="371" y="172" type="curve"/>
      <point x="397" y="260" type="line"/>
      <point x="344" y="197"/>
      <point x="298" y="156"/>
      <point x="272" y="156" type="curve" smooth="yes"/>
      <point x="259" y="156"/>
      <point x="250" y="158.7058823529"/>
      <point x="250" y="179" type="curve" smooth="yes"/>
      <point x="250" y="185.9565217391"/>
      <point x="254.7165746247" y="210.1200124293"/>
    </contour>
    <contour>
      <point x="892" y="251" type="curve" smooth="yes"/>
      <point x="970" y="569" type="line"/>
      <point x="756" y="569" type="line"/>
      <point x="655" y="161" type="line"/>
      <point x="668" y="157" type="line"/>
      <point x="667" y="125"/>
      <point x="666" y="104"/>
      <point x="666" y="93" type="curve" smooth="yes"/>
      <point x="666" y="33"/>
      <point x="708.3716814159" y="0"/>
      <point x="780" y="0" type="curve" smooth="yes"/>
      <point x="813" y="0"/>
      <point x="847" y="0"/>
      <point x="881" y="0" type="curve"/>
      <point x="906" y="112" type="line"/>
      <point x="902" y="112"/>
      <point x="896" y="112"/>
      <point x="893" y="112" type="curve" smooth="yes"/>
      <point x="872" y="112"/>
      <point x="866" y="121"/>
      <point x="866" y="134" type="curve" smooth="yes"/>
      <point x="866" y="148"/>
      <point x="870.2469351435" y="162.3144278929"/>
    </contour>
    <contour>
      <point x="569" y="219" type="curve" smooth="yes"/>
      <point x="659" y="569" type="line"/>
      <point x="444" y="569" type="line"/>
      <point x="354" y="204" type="line" smooth="yes"/>
      <point x="347" y="176"/>
      <point x="341" y="122"/>
      <point x="341" y="99" type="curve" smooth="yes"/>
      <point x="341" y="13"/>
      <point x="387" y="-11"/>
      <point x="444" y="-11" type="curve" smooth="yes"/>
      <point x="543" y="-11"/>
      <point x="616" y="60"/>
      <point x="689" y="172" type="curve"/>
      <point x="705" y="260" type="line"/>
      <point x="652.644039015" y="196.9789358514"/>
      <point x="608" y="156"/>
      <point x="584" y="156" type="curve" smooth="yes"/>
      <point x="570" y="156"/>
      <point x="562" y="158.7058823529"/>
      <point x="562" y="179" type="curve" smooth="yes"/>
      <point x="562" y="185.9565217391"/>
      <point x="566.7091694022" y="210.0912143419"/>
    </contour>
  </outline>
</glyph>
<glyph name="shchacyr" format="2">
  <advance width="964"/>
  <unicode hex="0449"/>
  <outline>
    <contour>
      <point x="257" y="219" type="curve" smooth="yes"/>
      <point x="347" y="569" type="line"/>
      <point x="100" y="569" type="line"/>
      <point x="73" y="449" type="line"/>
      <point x="80" y="447" type="line" smooth="yes"/>
      <point x="95" y="443"/>
      <point x="101" y="431"/>
      <point x="98" y="418" type="curve" smooth="yes"/>
      <point x="35" y="175" type="line" smooth="yes"/>
      <point x="26" y="142"/>
      <point x="22" y="108"/>
      <point x="22" y="79" type="curve" smooth="yes"/>
      <point x="22" y="25"/>
      <point x="58" y="-11"/>
      <point x="125" y="-11" type="curve" smooth="yes"/>
      <point x="227" y="-11"/>
      <point x="297" y="59"/>
      <point x="371" y="172" type="curve"/>
      <point x="397" y="260" type="line"/>
      <point x="344" y="197"/>
      <point x="298" y="156"/>
      <point x="272" y="156" type="curve" smooth="yes"/>
      <point x="259" y="156"/>
      <point x="250" y="158.7058823529"/>
      <point x="250" y="179" type="curve" smooth="yes"/>
      <point x="250" y="185.9565217391"/>
      <point x="254.7091694022" y="210.0912143419"/>
    </contour>
    <contour>
      <point x="569" y="219" type="curve" smooth="yes"/>
      <point x="659" y="569" type="line"/>
      <point x="444" y="569" type="line"/>
      <point x="354" y="204" type="line" smooth="yes"/>
      <point x="347" y="176"/>
      <point x="341" y="122"/>
      <point x="341" y="99" type="curve" smooth="yes"/>
      <point x="341" y="13"/>
      <point x="387" y="-11"/>
      <point x="444" y="-11" type="curve" smooth="yes"/>
      <point x="543" y="-11"/>
      <point x="616" y="60"/>
      <point x="689" y="172" type="curve"/>
      <point x="705" y="260" type="line"/>
      <point x="653" y="197"/>
      <point x="608" y="156"/>
      <point x="584" y="156" type="curve" smooth="yes"/>
      <point x="570" y="156"/>
      <point x="562" y="158.7058823529"/>
      <point x="562" y="179" type="curve" smooth="yes"/>
      <point x="562" y="185.9565217391"/>
      <point x="566.7091694022" y="210.0912143419"/>
    </contour>
    <contour>
      <point x="722" y="0" type="curve" smooth="yes"/>
      <point x="753.96875" y="0"/>
      <point x="759.0172843224" y="-18.0275376442"/>
      <point x="753" y="-62" type="curve" smooth="yes"/>
      <point x="740" y="-157" type="line"/>
      <point x="871" y="-157" type="line"/>
      <point x="938" y="124" type="line"/>
      <point x="905" y="124" type="line" smooth="yes"/>
      <point x="886" y="124"/>
      <point x="872" y="129.5238095238"/>
      <point x="872" y="153" type="curve" smooth="yes"/>
      <point x="872" y="167"/>
      <point x="877.9114629578" y="197.9766188736"/>
      <point x="901" y="291" type="curve" smooth="yes"/>
      <point x="970" y="569" type="line"/>
      <point x="756" y="569" type="line"/>
      <point x="655" y="161" type="line"/>
      <point x="667" y="157" type="line"/>
      <point x="667" y="125"/>
      <point x="667" y="104"/>
      <point x="667" y="93" type="curve" smooth="yes"/>
      <point x="667" y="32"/>
      <point x="681" y="0"/>
    </contour>
  </outline>
</glyph>
<glyph name="ylongcyr" format="2">
  <advance width="904"/>
  <unicode hex="044B"/>
  <outline>
    <contour>
      <point x="806" y="137" type="curve" smooth="yes"/>
      <point x="806" y="118"/>
      <point x="815.0322580645" y="112"/>
      <point x="834" y="112" type="curve" smooth="yes"/>
      <point x="839" y="112"/>
      <point x="843" y="112"/>
      <point x="846" y="112" type="curve"/>
      <point x="821" y="0" type="line"/>
      <point x="779.3333333333" y="0"/>
      <point x="738" y="0"/>
      <point x="696" y="0" type="curve" smooth="yes"/>
      <point x="618" y="0"/>
      <point x="586" y="33"/>
      <point x="586" y="93" type="curve" smooth="yes"/>
      <point x="586" y="127.8701298701"/>
      <point x="594.6317309755" y="167.5816546629"/>
      <point x="621" y="272" type="curve" smooth="yes"/>
      <point x="696" y="569" type="line"/>
      <point x="910" y="569" type="line"/>
      <point x="837" y="272" type="line" smooth="yes"/>
      <point x="815.1044264655" y="182.9180090448"/>
      <point x="806" y="153"/>
    </contour>
    <component base="softcyr"/>
  </outline>
</glyph>
<glyph name="softcyr" format="2">
  <advance width="595"/>
  <unicode hex="044C"/>
  <outline>
    <contour>
      <point x="272.7009754032" y="-14" type="curve" smooth="yes"/>
      <point x="468.7009754032" y="-14"/>
      <point x="563.7009754032" y="76"/>
      <point x="563.7009754032" y="201" type="curve" smooth="yes"/>
      <point x="563.7009754032" y="312"/>
      <point x="489.7009754032" y="371"/>
      <point x="334.7009754032" y="371" type="curve" smooth="yes"/>
      <point x="241.7009754032" y="371" type="line"/>
      <point x="219.7009754032" y="247" type="line"/>
      <point x="291.7009754032" y="247" type="line" smooth="yes"/>
      <point x="332.7009754032" y="247"/>
      <point x="345.7009754032" y="227"/>
      <point x="345.7009754032" y="197" type="curve" smooth="yes"/>
      <point x="345.7009754032" y="139"/>
      <point x="316.7009754032" y="114"/>
      <point x="286.7009754032" y="114" type="curve" smooth="yes"/>
      <point x="240.7009754032" y="114"/>
      <point x="238.311712777" y="137.5201307523"/>
      <point x="257.7009754032" y="214" type="curve" smooth="yes"/>
      <point x="347.7009754032" y="569" type="line"/>
      <point x="100.7009754032" y="569" type="line"/>
      <point x="73.7009754032" y="449" type="line"/>
      <point x="80.7009754032" y="447" type="line" smooth="yes"/>
      <point x="97.7009754032" y="443"/>
      <point x="101.7009754032" y="429"/>
      <point x="98.7009754032" y="418" type="curve" smooth="yes"/>
      <point x="50.7009754032" y="236" type="line" smooth="yes"/>
      <point x="5.7009754032" y="65"/>
      <point x="96.7009754032" y="-14"/>
    </contour>
  </outline>
</glyph>
<glyph name="yacyr" format="2">
  <advance width="680"/>
  <unicode hex="044F"/>
  <outline>
    <contour>
      <point x="151" y="267" type="line"/>
      <point x="84" y="183" type="line" smooth="yes"/>
      <point x="39" y="126"/>
      <point x="28.875" y="112"/>
      <point x="-6" y="112" type="curve" smooth="yes"/>
      <point x="-13" y="112" type="line"/>
      <point x="-37" y="0" type="line"/>
      <point x="195" y="0" type="line"/>
      <point x="374" y="252" type="line"/>
    </contour>
    <contour>
      <point x="470" y="369" type="line"/>
      <point x="460.9965047417" y="480.0431081855"/>
      <point x="423.4566473988" y="582"/>
      <point x="287" y="582" type="curve" smooth="yes"/>
      <point x="152.3513513514" y="582"/>
      <point x="75" y="478.2077922078"/>
      <point x="75" y="366" type="curve" smooth="yes"/>
      <point x="75" y="243.4339622642"/>
      <point x="162" y="192"/>
      <point x="257" y="192" type="curve" smooth="yes"/>
      <point x="317" y="192"/>
      <point x="353" y="201"/>
      <point x="419" y="226" type="curve"/>
      <point x="430" y="328" type="line"/>
      <point x="384" y="315"/>
      <point x="368" y="315"/>
      <point x="353" y="315" type="curve" smooth="yes"/>
      <point x="302" y="315"/>
      <point x="276" y="331.4482758621"/>
      <point x="276" y="368" type="curve" smooth="yes"/>
      <point x="276" y="404.1132075472"/>
      <point x="294" y="426"/>
      <point x="333" y="426" type="curve" smooth="yes"/>
      <point x="380" y="426"/>
      <point x="408" y="394"/>
      <point x="432" y="318" type="curve"/>
    </contour>
    <contour>
      <point x="601" y="261" type="curve" smooth="yes"/>
      <point x="678" y="576" type="line"/>
      <point x="560" y="576" type="line"/>
      <point x="436" y="407" type="line"/>
      <point x="423" y="410" type="line"/>
      <point x="382" y="247" type="line" smooth="yes"/>
      <point x="357.0696226099" y="147.8865484246"/>
      <point x="353" y="119"/>
      <point x="353" y="93" type="curve" smooth="yes"/>
      <point x="353" y="33"/>
      <point x="382" y="0"/>
      <point x="470" y="0" type="curve" smooth="yes"/>
      <point x="512" y="0"/>
      <point x="554" y="0"/>
      <point x="596" y="0" type="curve"/>
      <point x="620" y="112" type="line"/>
      <point x="616" y="112"/>
      <point x="608" y="112"/>
      <point x="604" y="112" type="curve" smooth="yes"/>
      <point x="583.6285714286" y="112"/>
      <point x="573" y="115.8260869565"/>
      <point x="573" y="134" type="curve" smooth="yes"/>
      <point x="573" y="145"/>
      <point x="577" y="162"/>
    </contour>
  </outline>
</glyph>
<glyph name="djecyr" format="2">
  <advance width="633"/>
  <unicode hex="0452"/>
  <outline>
    <contour>
      <point x="189" y="780" type="line"/>
      <point x="403" y="780" type="line"/>
      <point x="208" y="0" type="line"/>
      <point x="-6" y="0" type="line"/>
    </contour>
    <contour>
      <point x="135" y="719" type="line"/>
      <point x="535" y="719" type="line"/>
      <point x="513" y="625" type="line"/>
      <point x="113" y="625" type="line"/>
    </contour>
    <contour>
      <point x="507" y="-63" type="line" smooth="yes"/>
      <point x="474" y="-199"/>
      <point x="387" y="-250"/>
      <point x="256" y="-250" type="curve" smooth="yes"/>
      <point x="180" y="-250"/>
      <point x="132" y="-232"/>
      <point x="116" y="-221" type="curve"/>
      <point x="148" y="-94" type="line"/>
      <point x="158" y="-99"/>
      <point x="188" y="-116"/>
      <point x="225" y="-116" type="curve" smooth="yes"/>
      <point x="264" y="-116"/>
      <point x="281" y="-94"/>
      <point x="292" y="-52" type="curve" smooth="yes"/>
      <point x="396" y="360" type="line" smooth="yes"/>
      <point x="399.774894578" y="374.954390059"/>
      <point x="401" y="383"/>
      <point x="401" y="393" type="curve" smooth="yes"/>
      <point x="401" y="409"/>
      <point x="395" y="419"/>
      <point x="382" y="419" type="curve" smooth="yes"/>
      <point x="355" y="419"/>
      <point x="323" y="378"/>
      <point x="246" y="292" type="curve"/>
      <point x="269" y="396" type="line"/>
      <point x="345" y="509"/>
      <point x="424" y="581"/>
      <point x="526" y="581" type="curve" smooth="yes"/>
      <point x="597" y="581"/>
      <point x="630" y="542"/>
      <point x="630" y="486" type="curve" smooth="yes"/>
      <point x="630" y="460"/>
      <point x="622" y="420"/>
      <point x="617" y="396" type="curve" smooth="yes"/>
    </contour>
  </outline>
</glyph>
<glyph name="yukrcyr" format="2">
  <advance width="346"/>
  <unicode hex="0457"/>
  <outline>
    <contour>
      <point x="166" y="627" type="curve" smooth="yes"/>
      <point x="118" y="627"/>
      <point x="91" y="662"/>
      <point x="91" y="721" type="curve" smooth="yes"/>
      <point x="91" y="781"/>
      <point x="118" y="817"/>
      <point x="166" y="817" type="curve" smooth="yes"/>
      <point x="214" y="817"/>
      <point x="241" y="781"/>
      <point x="241" y="721" type="curve" smooth="yes"/>
      <point x="241" y="663"/>
      <point x="214" y="627"/>
    </contour>
    <contour>
      <point x="340" y="627" type="curve" smooth="yes"/>
      <point x="292" y="627"/>
      <point x="265" y="662"/>
      <point x="265" y="721" type="curve" smooth="yes"/>
      <point x="265" y="781"/>
      <point x="292" y="817"/>
      <point x="340" y="817" type="curve" smooth="yes"/>
      <point x="387" y="817"/>
      <point x="415" y="781"/>
      <point x="415" y="721" type="curve" smooth="yes"/>
      <point x="415" y="663"/>
      <point x="387" y="627"/>
    </contour>
    <contour>
      <point x="130" y="0" type="curve" smooth="yes"/>
      <point x="174" y="0"/>
      <point x="219" y="0"/>
      <point x="262" y="0" type="curve"/>
      <point x="286" y="112" type="line"/>
      <point x="280" y="112"/>
      <point x="274" y="112"/>
      <point x="267" y="112" type="curve" smooth="yes"/>
      <point x="249.6666666667" y="112"/>
      <point x="241" y="118.7083333333"/>
      <point x="241" y="135" type="curve" smooth="yes"/>
      <point x="241" y="149"/>
      <point x="244.5397802057" y="160.5905076634"/>
      <point x="267" y="251" type="curve" smooth="yes"/>
      <point x="346" y="569" type="line"/>
      <point x="96" y="569" type="line"/>
      <point x="69" y="449" type="line"/>
      <point x="77" y="447" type="line" smooth="yes"/>
      <point x="94" y="443"/>
      <point x="101" y="437"/>
      <point x="96" y="417" type="curve" smooth="yes"/>
      <point x="50" y="247" type="line" smooth="yes"/>
      <point x="26.7767678577" y="161.1750116482"/>
      <point x="18" y="120"/>
      <point x="18" y="91" type="curve" smooth="yes"/>
      <point x="18" y="32"/>
      <point x="60.2456140351" y="0"/>
    </contour>
  </outline>
</glyph>
<glyph name="Geupcyr" format="2">
  <advance width="562"/>
  <unicode hex="0490"/>
  <outline>
    <contour>
      <point x="601" y="584" type="line"/>
      <point x="674" y="889" type="line"/>
      <point x="538" y="889" type="line"/>
      <point x="494" y="755" type="line" smooth="yes"/>
      <point x="483" y="722"/>
      <point x="461" y="710"/>
      <point x="393" y="710" type="curve" smooth="yes"/>
      <point x="130" y="710" type="line"/>
      <point x="101" y="585" type="line"/>
      <point x="111" y="585" type="line" smooth="yes"/>
      <point x="135" y="585"/>
      <point x="142" y="580"/>
      <point x="134" y="549" type="curve" smooth="yes"/>
      <point x="32" y="161" type="line" smooth="yes"/>
      <point x="25" y="131"/>
      <point x="9" y="125"/>
      <point x="-10" y="125" type="curve" smooth="yes"/>
      <point x="-19" y="125" type="line"/>
      <point x="-48" y="0" type="line"/>
      <point x="285" y="0" type="line"/>
      <point x="314" y="125" type="line"/>
      <point x="297" y="125" type="line" smooth="yes"/>
      <point x="262" y="125"/>
      <point x="253" y="131"/>
      <point x="261" y="161" type="curve" smooth="yes"/>
      <point x="372" y="584" type="line"/>
    </contour>
  </outline>
</glyph>
<glyph name="Gestrokecyr" format="2">
  <advance width="587"/>
  <unicode hex="0492"/>
  <outline>
    <contour>
      <point x="47" y="428" type="line"/>
      <point x="18" y="303" type="line"/>
      <point x="405" y="303" type="line"/>
      <point x="434" y="428" type="line"/>
    </contour>
    <contour>
      <point x="-48" y="0" type="line"/>
      <point x="285" y="0" type="line"/>
      <point x="314" y="125" type="line"/>
      <point x="297" y="125" type="line" smooth="yes"/>
      <point x="269" y="125"/>
      <point x="253" y="130"/>
      <point x="261" y="161" type="curve" smooth="yes"/>
      <point x="372" y="584" type="line"/>
      <point x="426" y="584" type="line" smooth="yes"/>
      <point x="464.1818181818" y="584"/>
      <point x="475" y="567"/>
      <point x="468" y="530" type="curve" smooth="yes"/>
      <point x="454" y="459" type="line"/>
      <point x="584" y="459" type="line"/>
      <point x="647" y="710" type="line"/>
      <point x="130" y="710" type="line"/>
      <point x="101" y="585" type="line"/>
      <point x="111" y="585" type="line" smooth="yes"/>
      <point x="135" y="585"/>
      <point x="142" y="580"/>
      <point x="134" y="549" type="curve" smooth="yes"/>
      <point x="32" y="161" type="line" smooth="yes"/>
      <point x="25" y="131"/>
      <point x="9" y="125"/>
      <point x="-10" y="125" type="curve" smooth="yes"/>
      <point x="-19" y="125" type="line"/>
    </contour>
  </outline>
</glyph>
<glyph name="gestrokecyr" format="2">
  <advance width="580"/>
  <unicode hex="0493"/>
  <outline>
    <contour>
      <point x="4" y="248" type="line"/>
      <point x="28" y="348" type="line"/>
      <point x="586" y="348" type="line"/>
      <point x="563" y="248" type="line"/>
    </contour>
    <contour>
      <point x="206" y="137" type="curve" smooth="yes"/>
      <point x="206" y="109"/>
      <point x="236" y="101"/>
      <point x="281" y="101" type="curve" smooth="yes"/>
      <point x="308" y="101"/>
      <point x="359" y="110"/>
      <point x="369" y="118" type="curve"/>
      <point x="372.0393413688" y="107.8688621042"/>
      <point x="364.1276952606" y="68.0705684335"/>
      <point x="326" y="47" type="curve"/>
      <point x="363" y="174" type="line"/>
      <point x="512" y="174" type="line"/>
      <point x="477" y="34" type="line"/>
      <point x="425" y="4"/>
      <point x="341" y="-12"/>
      <point x="275" y="-12" type="curve" smooth="yes"/>
      <point x="122" y="-12"/>
      <point x="40" y="51"/>
      <point x="40" y="161" type="curve" smooth="yes"/>
      <point x="40" y="210"/>
      <point x="64.2147039898" y="243.2544639879"/>
      <point x="91" y="275" type="curve"/>
      <point x="156" y="326" type="line"/>
      <point x="354" y="386"/>
      <point x="384" y="400"/>
      <point x="384" y="437" type="curve" smooth="yes"/>
      <point x="384" y="469"/>
      <point x="359.619047619" y="477"/>
      <point x="320" y="477" type="curve" smooth="yes"/>
      <point x="289" y="477"/>
      <point x="263.7555135806" y="472.4771664719"/>
      <point x="244" y="460" type="curve"/>
      <point x="242.4169412392" y="477.413646369"/>
      <point x="247.8511200436" y="490.9613127253"/>
      <point x="269" y="490" type="curve"/>
      <point x="249" y="416" type="line"/>
      <point x="103" y="416" type="line"/>
      <point x="137" y="542" type="line"/>
      <point x="180.8172608344" y="564.9044772543"/>
      <point x="247" y="582"/>
      <point x="325" y="582" type="curve" smooth="yes"/>
      <point x="468" y="582"/>
      <point x="536" y="522"/>
      <point x="536" y="431" type="curve" smooth="yes"/>
      <point x="536" y="385"/>
      <point x="517.1482388731" y="352.3013373895"/>
      <point x="486" y="317" type="curve"/>
      <point x="460" y="273" type="line"/>
      <point x="263.7165843201" y="218.2000616122"/>
      <point x="206" y="182"/>
    </contour>
  </outline>
</glyph>
<glyph name="zhetailcyr" format="2">
  <advance width="1016"/>
  <unicode hex="0497"/>
  <guideline x="241" y="553" angle="90" identifier="iJ3VaKODEI"/>
  <guideline x="241" y="553" angle="90" identifier="CdtU5zqGdb"/>
  <outline>
    <contour>
      <point x="354" y="0" type="line"/>
      <point x="496" y="569" type="line"/>
      <point x="710" y="569" type="line"/>
      <point x="568" y="0" type="line"/>
    </contour>
    <contour>
      <point x="66" y="144" type="curve" smooth="yes"/>
      <point x="260" y="419" type="line"/>
      <point x="327" y="298" type="line"/>
      <point x="247" y="387"/>
      <point x="185" y="458"/>
      <point x="106" y="544" type="curve"/>
      <point x="106" y="569" type="line"/>
      <point x="364" y="569" type="line"/>
      <point x="379" y="487"/>
      <point x="395" y="407"/>
      <point x="413" y="315" type="curve"/>
      <point x="403" y="278" type="line"/>
      <point x="256" y="59" type="line" smooth="yes"/>
      <point x="223" y="10"/>
      <point x="202" y="0"/>
      <point x="151" y="0" type="curve" smooth="yes"/>
      <point x="87" y="0"/>
      <point x="24" y="0"/>
      <point x="-40" y="0" type="curve"/>
      <point x="-15" y="112" type="line"/>
      <point x="-7" y="112"/>
      <point x="0" y="112"/>
      <point x="8" y="112" type="curve" smooth="yes"/>
      <point x="30" y="112"/>
      <point x="54" y="127"/>
    </contour>
    <contour>
      <point x="771" y="0" type="curve" smooth="yes"/>
      <point x="738" y="0"/>
      <point x="703" y="11"/>
      <point x="694" y="59" type="curve" smooth="yes"/>
      <point x="656" y="278" type="line"/>
      <point x="666" y="315" type="line"/>
      <point x="730" y="407"/>
      <point x="782" y="484"/>
      <point x="842" y="569" type="curve"/>
      <point x="1070" y="569" type="line"/>
      <point x="1070" y="544" type="line"/>
      <point x="957" y="457"/>
      <point x="877" y="395"/>
      <point x="763" y="305" type="curve"/>
      <point x="829" y="409" type="line"/>
      <point x="878" y="170" type="line" smooth="yes"/>
      <point x="884" y="141"/>
      <point x="895" y="124"/>
      <point x="938" y="124" type="curve" smooth="yes"/>
      <point x="987" y="124" type="line"/>
      <point x="920" y="-157" type="line"/>
      <point x="789" y="-157" type="line"/>
      <point x="802" y="-62" type="line" smooth="yes"/>
      <point x="808" y="-18"/>
      <point x="803" y="0"/>
    </contour>
  </outline>
</glyph>
<glyph name="Kabashkcyr" format="2">
  <advance width="894"/>
  <unicode hex="04A0"/>
  <guideline x="480" y="796" angle="90" identifier="LxfLwWU0sJ"/>
  <outline>
    <contour>
      <point x="478" y="0" type="line"/>
      <point x="795" y="0" type="line"/>
      <point x="824" y="125" type="line"/>
      <point x="810" y="125" type="line" smooth="yes"/>
      <point x="799.9259259259" y="125"/>
      <point x="785" y="128"/>
      <point x="776" y="156" type="curve" smooth="yes"/>
      <point x="681" y="460" type="line"/>
      <point x="570" y="286" type="line"/>
      <point x="851" y="571" type="line" smooth="yes"/>
      <point x="862.8224426812" y="582.9907336803"/>
      <point x="877.7567567568" y="585"/>
      <point x="884" y="585" type="curve" smooth="yes"/>
      <point x="887" y="585" type="line"/>
      <point x="916" y="710" type="line"/>
      <point x="668" y="710" type="line"/>
      <point x="639" y="585" type="line"/>
      <point x="654" y="585" type="line" smooth="yes"/>
      <point x="679" y="585"/>
      <point x="681" y="581"/>
      <point x="680" y="574" type="curve"/>
      <point x="477" y="372" type="line"/>
      <point x="472" y="348" type="line"/>
      <point x="532" y="135" type="line"/>
      <point x="530" y="128"/>
      <point x="524" y="125"/>
      <point x="511" y="125" type="curve" smooth="yes"/>
      <point x="507" y="125" type="line"/>
    </contour>
    <contour>
      <point x="291" y="584" type="line"/>
      <point x="180" y="161" type="line" smooth="yes"/>
      <point x="172" y="131"/>
      <point x="158" y="125"/>
      <point x="138" y="125" type="curve" smooth="yes"/>
      <point x="129" y="125" type="line"/>
      <point x="100" y="0" type="line"/>
      <point x="399" y="0" type="line"/>
      <point x="428" y="125" type="line"/>
      <point x="421" y="125" type="line" smooth="yes"/>
      <point x="411" y="125"/>
      <point x="399.0180711852" y="127.4823389782"/>
      <point x="401" y="135" type="curve" smooth="yes"/>
      <point x="517" y="575" type="line" smooth="yes"/>
      <point x="519" y="582"/>
      <point x="528" y="585"/>
      <point x="555" y="585" type="curve" smooth="yes"/>
      <point x="564" y="585" type="line"/>
      <point x="593" y="710" type="line"/>
      <point x="127" y="710" type="line"/>
      <point x="56" y="427" type="line"/>
      <point x="185" y="427" type="line"/>
      <point x="218" y="514" type="line" smooth="yes"/>
      <point x="236" y="561"/>
      <point x="250" y="584"/>
      <point x="288" y="584" type="curve" smooth="yes"/>
    </contour>
  </outline>
</glyph>
<glyph name="kabashkcyr" format="2">
  <advance width="777"/>
  <unicode hex="04A1"/>
  <guideline x="241" y="553" angle="90" identifier="Tf77a0I6e0"/>
  <outline>
    <contour>
      <point x="322" y="445" type="line"/>
      <point x="228" y="445" type="line" smooth="yes"/>
      <point x="187" y="445"/>
      <point x="168.1207860318" y="435.1938185539"/>
      <point x="146" y="359" type="curve" smooth="yes"/>
      <point x="137" y="328" type="line"/>
      <point x="6" y="328" type="line"/>
      <point x="68" y="569" type="line"/>
      <point x="355" y="569" type="line"/>
    </contour>
    <contour>
      <point x="642" y="160" type="line" smooth="yes" identifier="OrKq204Ukm"/>
      <point x="650" y="123" identifier="SrbOikPisr"/>
      <point x="656.468641115" y="112" identifier="JqDGTG4N6X"/>
      <point x="697" y="112" type="curve" smooth="yes" identifier="CfqUKLAWOF"/>
      <point x="705.4615384615" y="112" identifier="rQtjRSZfYe"/>
      <point x="711.6153846154" y="112" identifier="oRANyD78E8"/>
      <point x="717" y="112" type="curve" identifier="DsiTqjS1a4"/>
      <point x="693" y="0" type="line" identifier="XU0wPDT43j"/>
      <point x="639" y="0" identifier="4uDsKxaG48"/>
      <point x="586" y="0" identifier="RuEiVchg2b"/>
      <point x="532" y="0" type="curve" smooth="yes" identifier="CiQIyaUsYh"/>
      <point x="481" y="0" identifier="vgo4GDX7Gt"/>
      <point x="463" y="11" identifier="ZkZGlxYZQ3"/>
      <point x="455" y="59" type="curve" smooth="yes" identifier="5W5RISOQnG"/>
      <point x="417" y="278" type="line" identifier="QfrWYJxh65"/>
      <point x="427" y="315" type="line" identifier="pEiAcrm5ik"/>
      <point x="489" y="405" identifier="wpOgpdOUgL"/>
      <point x="545" y="485" identifier="SAwY06OaRj"/>
      <point x="603" y="569" type="curve" identifier="Y23wxsbw9Y"/>
      <point x="831" y="569" type="line" identifier="AVyxpv4CWq"/>
      <point x="831" y="544" type="line" identifier="5uNVMITTO2"/>
      <point x="728" y="464" identifier="FzmmjB3U5Q"/>
      <point x="639" y="396" identifier="pMEOS9kiEq"/>
      <point x="534" y="313" type="curve" identifier="r33tV75480"/>
      <point x="592" y="393" type="line" identifier="ZTC9hCIUEV"/>
    </contour>
    <contour>
      <point x="115" y="0" type="line" identifier="22iXN25W3i"/>
      <point x="256" y="569" type="line" identifier="jBKTgOEI7e"/>
      <point x="471" y="569" type="line" identifier="YeF5eC2wTz"/>
      <point x="329" y="0" type="line" identifier="Jt9yzE88Oz"/>
    </contour>
  </outline>
</glyph>
<glyph name="Entailcyr" format="2">
  <advance width="732"/>
  <unicode hex="04A2"/>
  <outline>
    <contour>
      <point x="413" y="0" type="line" smooth="yes"/>
      <point x="484" y="0"/>
      <point x="487" y="-19"/>
      <point x="482" y="-53" type="curve" smooth="yes"/>
      <point x="462" y="-179" type="line"/>
      <point x="595" y="-179" type="line"/>
      <point x="667" y="124" type="line"/>
      <point x="378" y="124" type="line"/>
      <point x="349" y="0" type="line"/>
    </contour>
    <contour>
      <point x="194" y="427" type="line"/>
      <point x="167" y="303" type="line"/>
      <point x="517" y="303" type="line"/>
      <point x="544" y="427" type="line"/>
    </contour>
    <contour>
      <point x="-48" y="0" type="line"/>
      <point x="260" y="0" type="line"/>
      <point x="289" y="125" type="line"/>
      <point x="282" y="125" type="line" smooth="yes"/>
      <point x="268" y="125"/>
      <point x="251" y="128"/>
      <point x="253" y="135" type="curve" smooth="yes"/>
      <point x="369" y="575" type="line" smooth="yes"/>
      <point x="371" y="582"/>
      <point x="389" y="585"/>
      <point x="403" y="585" type="curve" smooth="yes"/>
      <point x="409" y="585" type="line"/>
      <point x="438" y="710" type="line"/>
      <point x="130" y="710" type="line"/>
      <point x="101" y="585" type="line"/>
      <point x="111" y="585" type="line" smooth="yes"/>
      <point x="135" y="585"/>
      <point x="142" y="580"/>
      <point x="134" y="549" type="curve" smooth="yes"/>
      <point x="32" y="161" type="line" smooth="yes"/>
      <point x="25" y="131"/>
      <point x="10" y="125"/>
      <point x="-10" y="125" type="curve" smooth="yes"/>
      <point x="-19" y="125" type="line"/>
    </contour>
    <contour>
      <point x="306" y="0" type="line"/>
      <point x="572" y="0" type="line"/>
      <point x="713" y="549" type="line" smooth="yes"/>
      <point x="721" y="582"/>
      <point x="735" y="585"/>
      <point x="749" y="585" type="curve" smooth="yes"/>
      <point x="755" y="585" type="line"/>
      <point x="784" y="710" type="line"/>
      <point x="484" y="710" type="line"/>
      <point x="455" y="585" type="line"/>
      <point x="465" y="585" type="line" smooth="yes"/>
      <point x="479" y="585"/>
      <point x="492" y="582"/>
      <point x="490" y="575" type="curve" smooth="yes"/>
      <point x="376" y="135" type="line" smooth="yes"/>
      <point x="374" y="128"/>
      <point x="364" y="125"/>
      <point x="344" y="125" type="curve" smooth="yes"/>
      <point x="335" y="125" type="line"/>
    </contour>
  </outline>
</glyph>
